<svg width="357" height="169" viewBox="0 0 357 169" fill="none" xmlns="http://www.w3.org/2000/svg">
<rect x="16" width="325" height="67" rx="8" fill="#FFCEB6"/>
<path d="M38.2169 24.753C38.3056 24.753 38.3826 24.788 38.4479 24.858L39.0989 25.565C38.6882 26.0597 38.1842 26.4423 37.5869 26.713C36.9896 26.979 36.2756 27.112 35.4449 27.112C34.7076 27.112 34.0402 26.986 33.4429 26.734C32.8502 26.4773 32.3439 26.1227 31.9239 25.67C31.5039 25.2127 31.1796 24.669 30.9509 24.039C30.7269 23.409 30.6149 22.716 30.6149 21.96C30.6149 21.204 30.7339 20.511 30.9719 19.881C31.2146 19.2463 31.5529 18.7027 31.9869 18.25C32.4256 17.7927 32.9482 17.438 33.5549 17.186C34.1662 16.934 34.8382 16.808 35.5709 16.808C36.2989 16.808 36.9406 16.927 37.4959 17.165C38.0559 17.3983 38.5412 17.711 38.9519 18.103L38.4129 18.866C38.3756 18.9173 38.3312 18.9617 38.2799 18.999C38.2286 19.0363 38.1586 19.055 38.0699 19.055C37.9766 19.055 37.8692 19.013 37.7479 18.929C37.6312 18.8403 37.4796 18.7447 37.2929 18.642C37.1109 18.5347 36.8799 18.439 36.5999 18.355C36.3246 18.2663 35.9792 18.222 35.5639 18.222C35.0832 18.222 34.6422 18.306 34.2409 18.474C33.8396 18.642 33.4942 18.887 33.2049 19.209C32.9156 19.531 32.6892 19.923 32.5259 20.385C32.3672 20.847 32.2879 21.372 32.2879 21.96C32.2879 22.5527 32.3719 23.0823 32.5399 23.549C32.7079 24.011 32.9389 24.403 33.2329 24.725C33.5269 25.0423 33.8722 25.285 34.2689 25.453C34.6656 25.621 35.0926 25.705 35.5499 25.705C35.8299 25.705 36.0796 25.691 36.2989 25.663C36.5229 25.6303 36.7282 25.5813 36.9149 25.516C37.1016 25.446 37.2766 25.3597 37.4399 25.257C37.6079 25.1543 37.7736 25.0283 37.9369 24.879C38.0302 24.795 38.1236 24.753 38.2169 24.753ZM46.0728 19.86V27H45.1628C44.9622 27 44.8338 26.9043 44.7778 26.713L44.6658 26.048C44.5165 26.2067 44.3578 26.3513 44.1898 26.482C44.0265 26.6127 43.8515 26.7247 43.6648 26.818C43.4782 26.9113 43.2775 26.9837 43.0628 27.035C42.8528 27.0863 42.6265 27.112 42.3838 27.112C41.9918 27.112 41.6465 27.0467 41.3478 26.916C41.0492 26.7853 40.7972 26.601 40.5918 26.363C40.3912 26.125 40.2395 25.8403 40.1368 25.509C40.0342 25.173 39.9828 24.8043 39.9828 24.403V19.86H41.4878V24.403C41.4878 24.8837 41.5975 25.257 41.8168 25.523C42.0408 25.789 42.3792 25.922 42.8318 25.922C43.1632 25.922 43.4712 25.8473 43.7558 25.698C44.0452 25.544 44.3158 25.334 44.5678 25.068V19.86H46.0728ZM50.1179 27.112C49.5252 27.112 49.0679 26.9463 48.7459 26.615C48.4286 26.279 48.2699 25.8077 48.2699 25.201V21.043H47.4859C47.4019 21.043 47.3296 21.0173 47.2689 20.966C47.2082 20.91 47.1779 20.8283 47.1779 20.721V20.112L48.3329 19.944L48.6619 17.879C48.6852 17.7997 48.7249 17.7367 48.7809 17.69C48.8369 17.6387 48.9116 17.613 49.0049 17.613H49.7749V19.958H51.7559V21.043H49.7749V25.096C49.7749 25.3527 49.8379 25.5487 49.9639 25.684C50.0899 25.8193 50.2579 25.887 50.4679 25.887C50.5846 25.887 50.6849 25.873 50.7689 25.845C50.8529 25.8123 50.9252 25.7797 50.9859 25.747C51.0466 25.7097 51.0979 25.677 51.1399 25.649C51.1866 25.6163 51.2309 25.6 51.2729 25.6C51.3569 25.6 51.4246 25.6467 51.4759 25.74L51.9239 26.475C51.6906 26.6803 51.4152 26.839 51.0979 26.951C50.7806 27.0583 50.4539 27.112 50.1179 27.112ZM58.5744 27.112C57.9817 27.112 57.5244 26.9463 57.2024 26.615C56.885 26.279 56.7264 25.8077 56.7264 25.201V21.043H55.9424C55.8584 21.043 55.786 21.0173 55.7254 20.966C55.6647 20.91 55.6344 20.8283 55.6344 20.721V20.112L56.7894 19.944L57.1184 17.879C57.1417 17.7997 57.1814 17.7367 57.2374 17.69C57.2934 17.6387 57.368 17.613 57.4614 17.613H58.2314V19.958H60.2124V21.043H58.2314V25.096C58.2314 25.3527 58.2944 25.5487 58.4204 25.684C58.5464 25.8193 58.7144 25.887 58.9244 25.887C59.041 25.887 59.1414 25.873 59.2254 25.845C59.3094 25.8123 59.3817 25.7797 59.4424 25.747C59.503 25.7097 59.5544 25.677 59.5964 25.649C59.643 25.6163 59.6874 25.6 59.7294 25.6C59.8134 25.6 59.881 25.6467 59.9324 25.74L60.3804 26.475C60.147 26.6803 59.8717 26.839 59.5544 26.951C59.237 27.0583 58.9104 27.112 58.5744 27.112ZM62.8321 20.707C63.1261 20.4177 63.4481 20.1867 63.7981 20.014C64.1481 19.8367 64.5564 19.748 65.0231 19.748C65.4151 19.748 65.7581 19.8133 66.0521 19.944C66.3508 20.0747 66.6004 20.259 66.8011 20.497C67.0064 20.735 67.1604 21.022 67.2631 21.358C67.3658 21.6893 67.4171 22.0557 67.4171 22.457V27H65.9191V22.457C65.9191 21.9763 65.8071 21.603 65.5831 21.337C65.3638 21.071 65.0278 20.938 64.5751 20.938C64.2391 20.938 63.9264 21.015 63.6371 21.169C63.3524 21.323 63.0841 21.533 62.8321 21.799V27H61.3271V16.64H62.8321V20.707ZM73.7862 22.625C73.7862 22.373 73.7488 22.1397 73.6742 21.925C73.6042 21.7057 73.4992 21.5167 73.3592 21.358C73.2192 21.1947 73.0442 21.0687 72.8342 20.98C72.6288 20.8867 72.3908 20.84 72.1202 20.84C71.5742 20.84 71.1448 20.9963 70.8322 21.309C70.5195 21.6217 70.3212 22.0603 70.2372 22.625H73.7862ZM70.1952 23.549C70.2138 23.955 70.2768 24.3073 70.3842 24.606C70.4915 24.9 70.6338 25.145 70.8112 25.341C70.9932 25.537 71.2078 25.684 71.4552 25.782C71.7072 25.8753 71.9872 25.922 72.2952 25.922C72.5892 25.922 72.8435 25.8893 73.0582 25.824C73.2728 25.754 73.4595 25.6793 73.6182 25.6C73.7768 25.516 73.9122 25.4413 74.0242 25.376C74.1362 25.306 74.2388 25.271 74.3322 25.271C74.4535 25.271 74.5468 25.3177 74.6122 25.411L75.0392 25.964C74.8618 26.174 74.6612 26.3513 74.4372 26.496C74.2132 26.6407 73.9752 26.7597 73.7232 26.853C73.4712 26.9417 73.2122 27.0047 72.9462 27.042C72.6802 27.084 72.4212 27.105 72.1692 27.105C71.6745 27.105 71.2148 27.0233 70.7902 26.86C70.3702 26.692 70.0038 26.447 69.6912 26.125C69.3832 25.803 69.1405 25.404 68.9632 24.928C68.7905 24.452 68.7042 23.9037 68.7042 23.283C68.7042 22.7883 68.7812 22.3263 68.9352 21.897C69.0938 21.4677 69.3178 21.0943 69.6072 20.777C69.9012 20.4597 70.2558 20.21 70.6712 20.028C71.0912 19.8413 71.5648 19.748 72.0922 19.748C72.5308 19.748 72.9368 19.8203 73.3102 19.965C73.6835 20.105 74.0055 20.3127 74.2762 20.588C74.5468 20.8633 74.7568 21.2017 74.9062 21.603C75.0602 21.9997 75.1372 22.4523 75.1372 22.961C75.1372 23.1943 75.1115 23.3507 75.0602 23.43C75.0088 23.5093 74.9155 23.549 74.7802 23.549H70.1952ZM81.4169 16.64V27H79.9119V16.64H81.4169ZM87.8859 22.625C87.8859 22.373 87.8486 22.1397 87.7739 21.925C87.7039 21.7057 87.5989 21.5167 87.4589 21.358C87.3189 21.1947 87.1439 21.0687 86.9339 20.98C86.7286 20.8867 86.4906 20.84 86.2199 20.84C85.6739 20.84 85.2446 20.9963 84.9319 21.309C84.6192 21.6217 84.4209 22.0603 84.3369 22.625H87.8859ZM84.2949 23.549C84.3136 23.955 84.3766 24.3073 84.4839 24.606C84.5912 24.9 84.7336 25.145 84.9109 25.341C85.0929 25.537 85.3076 25.684 85.5549 25.782C85.8069 25.8753 86.0869 25.922 86.3949 25.922C86.6889 25.922 86.9432 25.8893 87.1579 25.824C87.3726 25.754 87.5592 25.6793 87.7179 25.6C87.8766 25.516 88.0119 25.4413 88.1239 25.376C88.2359 25.306 88.3386 25.271 88.4319 25.271C88.5532 25.271 88.6466 25.3177 88.7119 25.411L89.1389 25.964C88.9616 26.174 88.7609 26.3513 88.5369 26.496C88.3129 26.6407 88.0749 26.7597 87.8229 26.853C87.5709 26.9417 87.3119 27.0047 87.0459 27.042C86.7799 27.084 86.5209 27.105 86.2689 27.105C85.7742 27.105 85.3146 27.0233 84.8899 26.86C84.4699 26.692 84.1036 26.447 83.7909 26.125C83.4829 25.803 83.2402 25.404 83.0629 24.928C82.8902 24.452 82.8039 23.9037 82.8039 23.283C82.8039 22.7883 82.8809 22.3263 83.0349 21.897C83.1936 21.4677 83.4176 21.0943 83.7069 20.777C84.0009 20.4597 84.3556 20.21 84.7709 20.028C85.1909 19.8413 85.6646 19.748 86.1919 19.748C86.6306 19.748 87.0366 19.8203 87.4099 19.965C87.7832 20.105 88.1052 20.3127 88.3759 20.588C88.6466 20.8633 88.8566 21.2017 89.0059 21.603C89.1599 21.9997 89.2369 22.4523 89.2369 22.961C89.2369 23.1943 89.2112 23.3507 89.1599 23.43C89.1086 23.5093 89.0152 23.549 88.8799 23.549H84.2949ZM94.3838 23.878C93.8472 23.8967 93.3945 23.941 93.0258 24.011C92.6572 24.0763 92.3585 24.1627 92.1298 24.27C91.9012 24.3727 91.7355 24.4963 91.6328 24.641C91.5348 24.7857 91.4858 24.9443 91.4858 25.117C91.4858 25.285 91.5115 25.4297 91.5628 25.551C91.6188 25.6677 91.6935 25.7657 91.7868 25.845C91.8848 25.9197 91.9968 25.9757 92.1228 26.013C92.2535 26.0457 92.3958 26.062 92.5498 26.062C92.9418 26.062 93.2778 25.9897 93.5578 25.845C93.8425 25.6957 94.1178 25.481 94.3838 25.201V23.878ZM90.3938 20.854C91.2012 20.1027 92.1625 19.727 93.2778 19.727C93.6885 19.727 94.0525 19.7947 94.3698 19.93C94.6918 20.0607 94.9602 20.2473 95.1748 20.49C95.3942 20.7327 95.5598 21.022 95.6718 21.358C95.7885 21.6893 95.8468 22.058 95.8468 22.464V27H95.1748C95.0302 27 94.9205 26.979 94.8458 26.937C94.7712 26.8903 94.7082 26.7993 94.6568 26.664L94.5098 26.083C94.3278 26.2463 94.1482 26.3933 93.9708 26.524C93.7935 26.65 93.6092 26.7573 93.4178 26.846C93.2312 26.9347 93.0282 27 92.8088 27.042C92.5942 27.0887 92.3562 27.112 92.0948 27.112C91.8055 27.112 91.5348 27.0723 91.2828 26.993C91.0355 26.9137 90.8208 26.7947 90.6388 26.636C90.4568 26.4727 90.3122 26.272 90.2048 26.034C90.1022 25.796 90.0508 25.516 90.0508 25.194C90.0508 24.9187 90.1232 24.6503 90.2678 24.389C90.4172 24.1277 90.6598 23.8943 90.9958 23.689C91.3365 23.479 91.7822 23.3063 92.3328 23.171C92.8882 23.0357 93.5718 22.9587 94.3838 22.94V22.464C94.3838 21.9507 94.2742 21.568 94.0548 21.316C93.8355 21.064 93.5135 20.938 93.0888 20.938C92.7995 20.938 92.5568 20.9753 92.3608 21.05C92.1648 21.12 91.9945 21.197 91.8498 21.281C91.7052 21.365 91.5768 21.4443 91.4648 21.519C91.3528 21.589 91.2338 21.624 91.1078 21.624C91.0052 21.624 90.9165 21.5983 90.8418 21.547C90.7718 21.491 90.7135 21.4233 90.6668 21.344L90.3938 20.854ZM103.66 19.86L100.79 27H99.4322L96.5622 19.86H97.8012C97.9179 19.86 98.0136 19.8903 98.0882 19.951C98.1676 20.007 98.2189 20.0747 98.2422 20.154L99.8242 24.312C99.8896 24.508 99.9479 24.7017 99.9992 24.893C100.051 25.0843 100.095 25.278 100.132 25.474C100.17 25.278 100.214 25.0867 100.265 24.9C100.321 24.7087 100.382 24.5127 100.447 24.312L102.057 20.154C102.085 20.07 102.137 20 102.211 19.944C102.286 19.888 102.377 19.86 102.484 19.86H103.66ZM109.095 22.625C109.095 22.373 109.058 22.1397 108.983 21.925C108.913 21.7057 108.808 21.5167 108.668 21.358C108.528 21.1947 108.353 21.0687 108.143 20.98C107.938 20.8867 107.7 20.84 107.429 20.84C106.883 20.84 106.454 20.9963 106.141 21.309C105.828 21.6217 105.63 22.0603 105.546 22.625H109.095ZM105.504 23.549C105.523 23.955 105.586 24.3073 105.693 24.606C105.8 24.9 105.943 25.145 106.12 25.341C106.302 25.537 106.517 25.684 106.764 25.782C107.016 25.8753 107.296 25.922 107.604 25.922C107.898 25.922 108.152 25.8893 108.367 25.824C108.582 25.754 108.768 25.6793 108.927 25.6C109.086 25.516 109.221 25.4413 109.333 25.376C109.445 25.306 109.548 25.271 109.641 25.271C109.762 25.271 109.856 25.3177 109.921 25.411L110.348 25.964C110.171 26.174 109.97 26.3513 109.746 26.496C109.522 26.6407 109.284 26.7597 109.032 26.853C108.78 26.9417 108.521 27.0047 108.255 27.042C107.989 27.084 107.73 27.105 107.478 27.105C106.983 27.105 106.524 27.0233 106.099 26.86C105.679 26.692 105.313 26.447 105 26.125C104.692 25.803 104.449 25.404 104.272 24.928C104.099 24.452 104.013 23.9037 104.013 23.283C104.013 22.7883 104.09 22.3263 104.244 21.897C104.403 21.4677 104.627 21.0943 104.916 20.777C105.21 20.4597 105.565 20.21 105.98 20.028C106.4 19.8413 106.874 19.748 107.401 19.748C107.84 19.748 108.246 19.8203 108.619 19.965C108.992 20.105 109.314 20.3127 109.585 20.588C109.856 20.8633 110.066 21.2017 110.215 21.603C110.369 21.9997 110.446 22.4523 110.446 22.961C110.446 23.1943 110.42 23.3507 110.369 23.43C110.318 23.5093 110.224 23.549 110.089 23.549H105.504ZM116.041 21.155C116.004 21.2203 115.962 21.267 115.915 21.295C115.868 21.323 115.81 21.337 115.74 21.337C115.661 21.337 115.574 21.3137 115.481 21.267C115.388 21.2157 115.278 21.1597 115.152 21.099C115.026 21.0383 114.877 20.9847 114.704 20.938C114.536 20.8867 114.338 20.861 114.109 20.861C113.922 20.861 113.752 20.8843 113.598 20.931C113.449 20.973 113.32 21.036 113.213 21.12C113.11 21.1993 113.031 21.295 112.975 21.407C112.919 21.5143 112.891 21.631 112.891 21.757C112.891 21.925 112.942 22.065 113.045 22.177C113.148 22.289 113.283 22.387 113.451 22.471C113.619 22.5503 113.81 22.6227 114.025 22.688C114.24 22.7533 114.459 22.8233 114.683 22.898C114.907 22.9727 115.126 23.059 115.341 23.157C115.556 23.255 115.747 23.3763 115.915 23.521C116.083 23.661 116.218 23.8337 116.321 24.039C116.424 24.2397 116.475 24.4847 116.475 24.774C116.475 25.11 116.414 25.4203 116.293 25.705C116.172 25.9897 115.994 26.237 115.761 26.447C115.528 26.657 115.236 26.8203 114.886 26.937C114.541 27.0537 114.144 27.112 113.696 27.112C113.449 27.112 113.208 27.0887 112.975 27.042C112.746 27 112.527 26.9417 112.317 26.867C112.112 26.7877 111.918 26.6943 111.736 26.587C111.559 26.4797 111.4 26.363 111.26 26.237L111.61 25.663C111.652 25.593 111.703 25.5393 111.764 25.502C111.829 25.46 111.909 25.439 112.002 25.439C112.1 25.439 112.196 25.4717 112.289 25.537C112.387 25.5977 112.499 25.6653 112.625 25.74C112.756 25.8147 112.912 25.8847 113.094 25.95C113.276 26.0107 113.502 26.041 113.773 26.041C113.997 26.041 114.191 26.0153 114.354 25.964C114.517 25.908 114.653 25.8333 114.76 25.74C114.867 25.6467 114.947 25.5417 114.998 25.425C115.049 25.3037 115.075 25.1753 115.075 25.04C115.075 24.858 115.024 24.7087 114.921 24.592C114.818 24.4753 114.681 24.375 114.508 24.291C114.34 24.207 114.146 24.1323 113.927 24.067C113.712 24.0017 113.493 23.9317 113.269 23.857C113.045 23.7823 112.823 23.696 112.604 23.598C112.389 23.5 112.196 23.3763 112.023 23.227C111.855 23.073 111.72 22.8887 111.617 22.674C111.514 22.4547 111.463 22.1887 111.463 21.876C111.463 21.5913 111.519 21.3207 111.631 21.064C111.748 20.8073 111.916 20.581 112.135 20.385C112.359 20.189 112.632 20.035 112.954 19.923C113.281 19.8063 113.656 19.748 114.081 19.748C114.562 19.748 114.998 19.825 115.39 19.979C115.782 20.133 116.111 20.343 116.377 20.609L116.041 21.155Z" fill="#1A1C6C"/>
<path d="M39.2269 41.1584V49.0399H38.2919V43.2484C38.2919 43.1714 38.2937 43.0889 38.2974 43.0009C38.3047 42.9129 38.3121 42.8231 38.3194 42.7314L35.6134 47.6594C35.5291 47.8244 35.4007 47.9069 35.2284 47.9069H35.0744C34.9021 47.9069 34.7737 47.8244 34.6894 47.6594L31.9284 42.7094C31.9504 42.9038 31.9614 43.0834 31.9614 43.2484V49.0399H31.0264V41.1584H31.8129C31.9082 41.1584 31.9816 41.1676 32.0329 41.1859C32.0842 41.2042 32.1337 41.2556 32.1814 41.3399L34.9039 46.1909C34.9479 46.2789 34.9901 46.3706 35.0304 46.4659C35.0744 46.5613 35.1147 46.6584 35.1514 46.7574C35.1881 46.6584 35.2266 46.5613 35.2669 46.4659C35.3072 46.3669 35.3512 46.2734 35.3989 46.1854L38.0719 41.3399C38.1159 41.2556 38.1636 41.2042 38.2149 41.1859C38.2699 41.1676 38.3451 41.1584 38.4404 41.1584H39.2269ZM43.1163 43.3804C43.5233 43.3804 43.8899 43.4483 44.2163 43.5839C44.5426 43.7196 44.8213 43.9121 45.0523 44.1614C45.2833 44.4108 45.4593 44.7132 45.5803 45.0689C45.7049 45.4209 45.7673 45.8151 45.7673 46.2514C45.7673 46.6914 45.7049 47.0874 45.5803 47.4394C45.4593 47.7914 45.2833 48.0921 45.0523 48.3414C44.8213 48.5908 44.5426 48.7833 44.2163 48.9189C43.8899 49.0509 43.5233 49.1169 43.1163 49.1169C42.7056 49.1169 42.3353 49.0509 42.0053 48.9189C41.6789 48.7833 41.4003 48.5908 41.1693 48.3414C40.9383 48.0921 40.7604 47.7914 40.6358 47.4394C40.5148 47.0874 40.4543 46.6914 40.4543 46.2514C40.4543 45.8151 40.5148 45.4209 40.6358 45.0689C40.7604 44.7132 40.9383 44.4108 41.1693 44.1614C41.4003 43.9121 41.6789 43.7196 42.0053 43.5839C42.3353 43.4483 42.7056 43.3804 43.1163 43.3804ZM43.1163 48.3524C43.6663 48.3524 44.0769 48.1691 44.3483 47.8024C44.6196 47.4321 44.7553 46.9169 44.7553 46.2569C44.7553 45.5933 44.6196 45.0763 44.3483 44.7059C44.0769 44.3356 43.6663 44.1504 43.1163 44.1504C42.8376 44.1504 42.5938 44.1981 42.3848 44.2934C42.1794 44.3888 42.0071 44.5263 41.8678 44.7059C41.7321 44.8856 41.6294 45.1074 41.5598 45.3714C41.4938 45.6318 41.4608 45.9269 41.4608 46.2569C41.4608 46.9169 41.5964 47.4321 41.8678 47.8024C42.1428 48.1691 42.5589 48.3524 43.1163 48.3524ZM47.8614 44.2769C47.9824 44.1413 48.1107 44.0184 48.2464 43.9084C48.3821 43.7984 48.5251 43.7049 48.6754 43.6279C48.8294 43.5473 48.9907 43.4868 49.1594 43.4464C49.3317 43.4024 49.5169 43.3804 49.7149 43.3804C50.0192 43.3804 50.2869 43.4318 50.5179 43.5344C50.7526 43.6334 50.9469 43.7764 51.1009 43.9634C51.2586 44.1468 51.3777 44.3686 51.4584 44.6289C51.5391 44.8893 51.5794 45.1771 51.5794 45.4924V49.0399H50.5949V45.4924C50.5949 45.0708 50.4977 44.7444 50.3034 44.5134C50.1127 44.2788 49.8212 44.1614 49.4289 44.1614C49.1392 44.1614 48.8679 44.2311 48.6149 44.3704C48.3656 44.5098 48.1346 44.6986 47.9219 44.9369V49.0399H46.9374V43.4684H47.5259C47.6652 43.4684 47.7514 43.5363 47.7844 43.6719L47.8614 44.2769ZM56.2446 44.3869C56.2006 44.4676 56.1328 44.5079 56.0411 44.5079C55.9861 44.5079 55.9238 44.4878 55.8541 44.4474C55.7845 44.4071 55.6983 44.3631 55.5956 44.3154C55.4966 44.2641 55.3775 44.2183 55.2381 44.1779C55.0988 44.1339 54.9338 44.1119 54.7431 44.1119C54.5781 44.1119 54.4296 44.1339 54.2976 44.1779C54.1656 44.2183 54.052 44.2751 53.9566 44.3484C53.865 44.4218 53.7935 44.5079 53.7421 44.6069C53.6945 44.7023 53.6706 44.8068 53.6706 44.9204C53.6706 45.0634 53.711 45.1826 53.7916 45.2779C53.876 45.3733 53.986 45.4558 54.1216 45.5254C54.2573 45.5951 54.4113 45.6574 54.5836 45.7124C54.756 45.7638 54.932 45.8206 55.1116 45.8829C55.295 45.9416 55.4728 46.0076 55.6451 46.0809C55.8175 46.1543 55.9715 46.2459 56.1071 46.3559C56.2428 46.4659 56.351 46.6016 56.4316 46.7629C56.516 46.9206 56.5581 47.1113 56.5581 47.3349C56.5581 47.5916 56.5123 47.8299 56.4206 48.0499C56.329 48.2663 56.1933 48.4551 56.0136 48.6164C55.834 48.7741 55.614 48.8988 55.3536 48.9904C55.0933 49.0821 54.7926 49.1279 54.4516 49.1279C54.063 49.1279 53.711 49.0656 53.3956 48.9409C53.0803 48.8126 52.8126 48.6494 52.5926 48.4514L52.8236 48.0774C52.853 48.0298 52.8878 47.9931 52.9281 47.9674C52.9685 47.9418 53.0198 47.9289 53.0821 47.9289C53.1481 47.9289 53.2178 47.9546 53.2911 48.0059C53.3645 48.0573 53.4525 48.1141 53.5551 48.1764C53.6615 48.2388 53.7898 48.2956 53.9401 48.3469C54.0905 48.3983 54.2775 48.4239 54.5011 48.4239C54.6918 48.4239 54.8586 48.4001 55.0016 48.3524C55.1446 48.3011 55.2638 48.2333 55.3591 48.1489C55.4545 48.0646 55.5241 47.9674 55.5681 47.8574C55.6158 47.7474 55.6396 47.6301 55.6396 47.5054C55.6396 47.3514 55.5975 47.2249 55.5131 47.1259C55.4325 47.0233 55.3243 46.9371 55.1886 46.8674C55.053 46.7941 54.8971 46.7318 54.7211 46.6804C54.5488 46.6254 54.371 46.5686 54.1876 46.5099C54.008 46.4513 53.8301 46.3853 53.6541 46.3119C53.4818 46.2349 53.3278 46.1396 53.1921 46.0259C53.0565 45.9123 52.9465 45.7729 52.8621 45.6079C52.7815 45.4393 52.7411 45.2358 52.7411 44.9974C52.7411 44.7848 52.7851 44.5813 52.8731 44.3869C52.9611 44.1889 53.0895 44.0166 53.2581 43.8699C53.4268 43.7196 53.634 43.6004 53.8796 43.5124C54.1253 43.4244 54.4058 43.3804 54.7211 43.3804C55.0878 43.3804 55.416 43.4391 55.7056 43.5564C55.999 43.6701 56.252 43.8278 56.4646 44.0294L56.2446 44.3869ZM59.3973 49.1279C58.9573 49.1279 58.6182 49.0051 58.3798 48.7594C58.1452 48.5138 58.0278 48.1599 58.0278 47.6979V44.2879H57.3568C57.2982 44.2879 57.2487 44.2714 57.2083 44.2384C57.168 44.2018 57.1478 44.1468 57.1478 44.0734V43.6829L58.0608 43.5674L58.2863 41.8459C58.2973 41.7909 58.3212 41.7469 58.3578 41.7139C58.3982 41.6773 58.4495 41.6589 58.5118 41.6589H59.0068V43.5784H60.6183V44.2879H59.0068V47.6319C59.0068 47.8666 59.0637 48.0408 59.1773 48.1544C59.291 48.2681 59.4377 48.3249 59.6173 48.3249C59.72 48.3249 59.808 48.3121 59.8813 48.2864C59.9583 48.2571 60.0243 48.2259 60.0793 48.1929C60.1343 48.1599 60.1802 48.1306 60.2168 48.1049C60.2572 48.0756 60.292 48.0609 60.3213 48.0609C60.3727 48.0609 60.4185 48.0921 60.4588 48.1544L60.7448 48.6219C60.5762 48.7796 60.3727 48.9043 60.1343 48.9959C59.896 49.0839 59.6503 49.1279 59.3973 49.1279ZM65.2544 45.6464C65.2544 45.4191 65.2214 45.2119 65.1554 45.0249C65.0931 44.8343 64.9996 44.6711 64.8749 44.5354C64.7539 44.3961 64.6054 44.2898 64.4294 44.2164C64.2534 44.1394 64.0536 44.1009 63.8299 44.1009C63.3606 44.1009 62.9884 44.2384 62.7134 44.5134C62.4421 44.7848 62.2734 45.1624 62.2074 45.6464H65.2544ZM66.0464 48.2589C65.9254 48.4056 65.7806 48.5339 65.6119 48.6439C65.4433 48.7503 65.2618 48.8383 65.0674 48.9079C64.8768 48.9776 64.6788 49.0289 64.4734 49.0619C64.2681 49.0986 64.0646 49.1169 63.8629 49.1169C63.4779 49.1169 63.1223 49.0528 62.7959 48.9244C62.4733 48.7924 62.1928 48.6018 61.9544 48.3524C61.7198 48.0994 61.5364 47.7878 61.4044 47.4174C61.2724 47.0471 61.2064 46.6218 61.2064 46.1414C61.2064 45.7528 61.2651 45.3898 61.3824 45.0524C61.5034 44.7151 61.6758 44.4236 61.8994 44.1779C62.1231 43.9286 62.3963 43.7343 62.7189 43.5949C63.0416 43.4519 63.4046 43.3804 63.8079 43.3804C64.1416 43.3804 64.4496 43.4373 64.7319 43.5509C65.0179 43.6609 65.2636 43.8223 65.4689 44.0349C65.6779 44.2439 65.8411 44.5043 65.9584 44.8159C66.0758 45.1239 66.1344 45.4759 66.1344 45.8719C66.1344 46.0259 66.1179 46.1286 66.0849 46.1799C66.0519 46.2313 65.9896 46.2569 65.8979 46.2569H62.1744C62.1854 46.6089 62.2331 46.9151 62.3174 47.1754C62.4054 47.4358 62.5264 47.6539 62.6804 47.8299C62.8344 48.0023 63.0178 48.1324 63.2304 48.2204C63.4431 48.3048 63.6814 48.3469 63.9454 48.3469C64.1911 48.3469 64.4019 48.3194 64.5779 48.2644C64.7576 48.2058 64.9116 48.1434 65.0399 48.0774C65.1683 48.0114 65.2746 47.9509 65.3589 47.8959C65.4469 47.8373 65.5221 47.8079 65.5844 47.8079C65.6651 47.8079 65.7274 47.8391 65.7714 47.9014L66.0464 48.2589ZM68.1949 44.5849C68.3709 44.2036 68.5872 43.9066 68.8439 43.6939C69.1006 43.4776 69.4141 43.3694 69.7844 43.3694C69.9017 43.3694 70.0136 43.3823 70.1199 43.4079C70.2299 43.4336 70.3271 43.4739 70.4114 43.5289L70.3399 44.2604C70.3179 44.3521 70.2629 44.3979 70.1749 44.3979C70.1236 44.3979 70.0484 44.3869 69.9494 44.3649C69.8504 44.3429 69.7386 44.3319 69.6139 44.3319C69.4379 44.3319 69.2802 44.3576 69.1409 44.4089C69.0052 44.4602 68.8824 44.5373 68.7724 44.6399C68.6661 44.7389 68.5689 44.8636 68.4809 45.0139C68.3966 45.1606 68.3196 45.3293 68.2499 45.5199V49.0399H67.2654V43.4684H67.8264C67.9327 43.4684 68.0061 43.4886 68.0464 43.5289C68.0867 43.5692 68.1142 43.6389 68.1289 43.7379L68.1949 44.5849ZM74.1342 46.5319C73.6832 46.5466 73.2982 46.5833 72.9792 46.6419C72.6639 46.6969 72.4054 46.7703 72.2037 46.8619C72.0057 46.9536 71.8609 47.0618 71.7692 47.1864C71.6812 47.3111 71.6372 47.4504 71.6372 47.6044C71.6372 47.7511 71.661 47.8776 71.7087 47.9839C71.7564 48.0903 71.8205 48.1783 71.9012 48.2479C71.9855 48.3139 72.0827 48.3634 72.1927 48.3964C72.3064 48.4258 72.4274 48.4404 72.5557 48.4404C72.728 48.4404 72.8857 48.4239 73.0287 48.3909C73.1717 48.3543 73.3055 48.3029 73.4302 48.2369C73.5585 48.1709 73.6795 48.0921 73.7932 48.0004C73.9105 47.9088 74.0242 47.8043 74.1342 47.6869V46.5319ZM70.9717 44.2549C71.2797 43.9579 71.6115 43.7361 71.9672 43.5894C72.3229 43.4428 72.717 43.3694 73.1497 43.3694C73.4614 43.3694 73.7382 43.4208 73.9802 43.5234C74.2222 43.6261 74.4257 43.7691 74.5907 43.9524C74.7557 44.1357 74.8804 44.3576 74.9647 44.6179C75.049 44.8783 75.0912 45.1643 75.0912 45.4759V49.0399H74.6567C74.5614 49.0399 74.488 49.0253 74.4367 48.9959C74.3854 48.9629 74.345 48.9006 74.3157 48.8089L74.2057 48.2809C74.059 48.4166 73.916 48.5376 73.7767 48.6439C73.6374 48.7466 73.4907 48.8346 73.3367 48.9079C73.1827 48.9776 73.0177 49.0308 72.8417 49.0674C72.6694 49.1078 72.4769 49.1279 72.2642 49.1279C72.0479 49.1279 71.8444 49.0986 71.6537 49.0399C71.463 48.9776 71.2962 48.8859 71.1532 48.7649C71.0139 48.6439 70.902 48.4918 70.8177 48.3084C70.737 48.1214 70.6967 47.9014 70.6967 47.6484C70.6967 47.4284 70.7572 47.2176 70.8782 47.0159C70.9992 46.8106 71.1954 46.6291 71.4667 46.4714C71.738 46.3138 72.0919 46.1854 72.5282 46.0864C72.9645 45.9838 73.4999 45.9251 74.1342 45.9104V45.4759C74.1342 45.0433 74.0407 44.7169 73.8537 44.4969C73.6667 44.2733 73.3935 44.1614 73.0342 44.1614C72.7922 44.1614 72.5887 44.1926 72.4237 44.2549C72.2624 44.3136 72.1212 44.3814 72.0002 44.4584C71.8829 44.5318 71.7802 44.5996 71.6922 44.6619C71.6079 44.7206 71.5235 44.7499 71.4392 44.7499C71.3732 44.7499 71.3164 44.7334 71.2687 44.7004C71.221 44.6638 71.1807 44.6198 71.1477 44.5684L70.9717 44.2549Z" fill="black"/>
<path d="M147.815 48.1104C147.921 48.1104 148.006 48.1416 148.068 48.2039C148.13 48.2663 148.162 48.3469 148.162 48.4459V49.0399H142.904V48.7044C142.904 48.6348 142.918 48.5633 142.948 48.4899C142.977 48.4166 143.023 48.3488 143.085 48.2864L145.61 45.7509C145.819 45.5383 146.009 45.3348 146.182 45.1404C146.354 44.9424 146.501 44.7444 146.622 44.5464C146.743 44.3484 146.836 44.1486 146.902 43.9469C146.968 43.7416 147.001 43.5234 147.001 43.2924C147.001 43.0614 146.964 42.8598 146.891 42.6874C146.818 42.5114 146.717 42.3666 146.589 42.2529C146.464 42.1392 146.315 42.0549 146.143 41.9999C145.971 41.9413 145.786 41.9119 145.588 41.9119C145.386 41.9119 145.201 41.9413 145.032 41.9999C144.863 42.0586 144.713 42.1411 144.581 42.2474C144.453 42.3501 144.345 42.4729 144.257 42.6159C144.169 42.7589 144.106 42.9166 144.07 43.0889C144.026 43.2173 143.965 43.3034 143.888 43.3474C143.815 43.3877 143.71 43.3988 143.575 43.3804L143.063 43.2924C143.114 42.9331 143.213 42.6159 143.36 42.3409C143.51 42.0623 143.697 41.8294 143.921 41.6424C144.148 41.4554 144.407 41.3143 144.697 41.2189C144.986 41.1199 145.3 41.0704 145.637 41.0704C145.971 41.0704 146.282 41.1199 146.572 41.2189C146.862 41.3179 147.113 41.4627 147.326 41.6534C147.538 41.8404 147.705 42.0696 147.826 42.3409C147.947 42.6123 148.008 42.9202 148.008 43.2649C148.008 43.5583 147.964 43.8314 147.876 44.0844C147.788 44.3338 147.668 44.5721 147.518 44.7994C147.368 45.0268 147.194 45.2486 146.996 45.4649C146.801 45.6813 146.594 45.8994 146.374 46.1194L144.295 48.2424C144.442 48.2021 144.59 48.1709 144.741 48.1489C144.891 48.1233 145.036 48.1104 145.175 48.1104H147.815ZM150.01 49.1554C149.963 49.2838 149.888 49.3791 149.785 49.4414C149.686 49.5038 149.583 49.5349 149.477 49.5349H149.064L152.37 41.3014C152.414 41.1841 152.48 41.0943 152.568 41.0319C152.66 40.9696 152.764 40.9384 152.881 40.9384H153.299L150.01 49.1554ZM159.026 48.1104C159.133 48.1104 159.217 48.1416 159.279 48.2039C159.342 48.2663 159.373 48.3469 159.373 48.4459V49.0399H154.115V48.7044C154.115 48.6348 154.13 48.5633 154.159 48.4899C154.188 48.4166 154.234 48.3488 154.296 48.2864L156.821 45.7509C157.03 45.5383 157.221 45.3348 157.393 45.1404C157.565 44.9424 157.712 44.7444 157.833 44.5464C157.954 44.3484 158.047 44.1486 158.113 43.9469C158.179 43.7416 158.212 43.5234 158.212 43.2924C158.212 43.0614 158.176 42.8598 158.102 42.6874C158.029 42.5114 157.928 42.3666 157.8 42.2529C157.675 42.1392 157.527 42.0549 157.354 41.9999C157.182 41.9413 156.997 41.9119 156.799 41.9119C156.597 41.9119 156.412 41.9413 156.243 41.9999C156.075 42.0586 155.924 42.1411 155.792 42.2474C155.664 42.3501 155.556 42.4729 155.468 42.6159C155.38 42.7589 155.318 42.9166 155.281 43.0889C155.237 43.2173 155.176 43.3034 155.099 43.3474C155.026 43.3877 154.922 43.3988 154.786 43.3804L154.274 43.2924C154.326 42.9331 154.425 42.6159 154.571 42.3409C154.722 42.0623 154.909 41.8294 155.132 41.6424C155.36 41.4554 155.618 41.3143 155.908 41.2189C156.198 41.1199 156.511 41.0704 156.848 41.0704C157.182 41.0704 157.494 41.1199 157.783 41.2189C158.073 41.3179 158.324 41.4627 158.537 41.6534C158.75 41.8404 158.916 42.0696 159.037 42.3409C159.158 42.6123 159.219 42.9202 159.219 43.2649C159.219 43.5583 159.175 43.8314 159.087 44.0844C158.999 44.3338 158.88 44.5721 158.729 44.7994C158.579 45.0268 158.405 45.2486 158.207 45.4649C158.013 45.6813 157.805 45.8994 157.585 46.1194L155.506 48.2424C155.653 48.2021 155.802 48.1709 155.952 48.1489C156.102 48.1233 156.247 48.1104 156.386 48.1104H159.026ZM168.596 49.0399H167.617V44.2879H164.746V47.6319C164.746 47.8666 164.802 48.0408 164.916 48.1544C165.03 48.2681 165.176 48.3249 165.356 48.3249C165.459 48.3249 165.547 48.3121 165.62 48.2864C165.697 48.2571 165.763 48.2259 165.818 48.1929C165.873 48.1599 165.919 48.1306 165.956 48.1049C165.996 48.0756 166.031 48.0609 166.06 48.0609C166.111 48.0609 166.157 48.0921 166.198 48.1544L166.484 48.6219C166.315 48.7796 166.111 48.9043 165.873 48.9959C165.635 49.0839 165.389 49.1279 165.136 49.1279C164.696 49.1279 164.357 49.0051 164.119 48.7594C163.884 48.5138 163.767 48.1599 163.767 47.6979V44.2879H163.096C163.037 44.2879 162.987 44.2714 162.947 44.2384C162.907 44.2018 162.887 44.1468 162.887 44.0734V43.6829L163.8 43.5619L164.025 41.8459C164.036 41.7909 164.06 41.7469 164.097 41.7139C164.137 41.6773 164.188 41.6589 164.251 41.6589H164.746V43.5784H168.596V49.0399ZM168.838 41.6809C168.838 41.7763 168.817 41.8661 168.777 41.9504C168.74 42.0311 168.689 42.1026 168.623 42.1649C168.561 42.2273 168.487 42.2768 168.403 42.3134C168.319 42.3501 168.229 42.3684 168.134 42.3684C168.038 42.3684 167.948 42.3501 167.864 42.3134C167.783 42.2768 167.712 42.2273 167.65 42.1649C167.587 42.1026 167.538 42.0311 167.501 41.9504C167.464 41.8661 167.446 41.7763 167.446 41.6809C167.446 41.5856 167.464 41.4957 167.501 41.4114C167.538 41.3234 167.587 41.2483 167.65 41.1859C167.712 41.1199 167.783 41.0686 167.864 41.0319C167.948 40.9952 168.038 40.9769 168.134 40.9769C168.229 40.9769 168.319 40.9952 168.403 41.0319C168.487 41.0686 168.561 41.1199 168.623 41.1859C168.689 41.2483 168.74 41.3234 168.777 41.4114C168.817 41.4957 168.838 41.5856 168.838 41.6809ZM170.132 49.0399V43.4684H170.721C170.86 43.4684 170.946 43.5363 170.979 43.6719L171.051 44.2439C171.256 43.9909 171.487 43.7838 171.744 43.6224C172.001 43.4611 172.298 43.3804 172.635 43.3804C173.009 43.3804 173.311 43.4849 173.542 43.6939C173.777 43.9029 173.946 44.1853 174.048 44.5409C174.129 44.3393 174.232 44.1651 174.356 44.0184C174.485 43.8717 174.628 43.7508 174.785 43.6554C174.943 43.5601 175.11 43.4904 175.286 43.4464C175.466 43.4024 175.647 43.3804 175.83 43.3804C176.124 43.3804 176.384 43.4281 176.611 43.5234C176.842 43.6151 177.037 43.7508 177.194 43.9304C177.356 44.1101 177.479 44.3319 177.563 44.5959C177.647 44.8563 177.689 45.1551 177.689 45.4924V49.0399H176.705V45.4924C176.705 45.0561 176.61 44.7261 176.419 44.5024C176.228 44.2751 175.953 44.1614 175.594 44.1614C175.433 44.1614 175.279 44.1908 175.132 44.2494C174.989 44.3044 174.862 44.3869 174.752 44.4969C174.642 44.6069 174.554 44.7462 174.488 44.9149C174.426 45.0799 174.395 45.2724 174.395 45.4924V49.0399H173.41V45.4924C173.41 45.0451 173.321 44.7114 173.141 44.4914C172.961 44.2714 172.699 44.1614 172.354 44.1614C172.112 44.1614 171.889 44.2274 171.683 44.3594C171.478 44.4878 171.289 44.6638 171.117 44.8874V49.0399H170.132ZM182.835 45.6464C182.835 45.4191 182.802 45.2119 182.736 45.0249C182.673 44.8343 182.58 44.6711 182.455 44.5354C182.334 44.3961 182.186 44.2898 182.01 44.2164C181.834 44.1394 181.634 44.1009 181.41 44.1009C180.941 44.1009 180.569 44.2384 180.294 44.5134C180.022 44.7848 179.854 45.1624 179.788 45.6464H182.835ZM183.627 48.2589C183.506 48.4056 183.361 48.5339 183.192 48.6439C183.024 48.7503 182.842 48.8383 182.648 48.9079C182.457 48.9776 182.259 49.0289 182.054 49.0619C181.848 49.0986 181.645 49.1169 181.443 49.1169C181.058 49.1169 180.703 49.0528 180.376 48.9244C180.054 48.7924 179.773 48.6018 179.535 48.3524C179.3 48.0994 179.117 47.7878 178.985 47.4174C178.853 47.0471 178.787 46.6218 178.787 46.1414C178.787 45.7528 178.845 45.3898 178.963 45.0524C179.084 44.7151 179.256 44.4236 179.48 44.1779C179.703 43.9286 179.977 43.7343 180.299 43.5949C180.622 43.4519 180.985 43.3804 181.388 43.3804C181.722 43.3804 182.03 43.4373 182.312 43.5509C182.598 43.6609 182.844 43.8223 183.049 44.0349C183.258 44.2439 183.421 44.5043 183.539 44.8159C183.656 45.1239 183.715 45.4759 183.715 45.8719C183.715 46.0259 183.698 46.1286 183.665 46.1799C183.632 46.2313 183.57 46.2569 183.478 46.2569H179.755C179.766 46.6089 179.813 46.9151 179.898 47.1754C179.986 47.4358 180.107 47.6539 180.261 47.8299C180.415 48.0023 180.598 48.1324 180.811 48.2204C181.023 48.3048 181.262 48.3469 181.526 48.3469C181.771 48.3469 181.982 48.3194 182.158 48.2644C182.338 48.2058 182.492 48.1434 182.62 48.0774C182.749 48.0114 182.855 47.9509 182.939 47.8959C183.027 47.8373 183.102 47.8079 183.165 47.8079C183.245 47.8079 183.308 47.8391 183.352 47.9014L183.627 48.2589ZM188.091 44.3869C188.047 44.4676 187.979 44.5079 187.887 44.5079C187.832 44.5079 187.77 44.4878 187.7 44.4474C187.631 44.4071 187.544 44.3631 187.442 44.3154C187.343 44.2641 187.224 44.2183 187.084 44.1779C186.945 44.1339 186.78 44.1119 186.589 44.1119C186.424 44.1119 186.276 44.1339 186.144 44.1779C186.012 44.2183 185.898 44.2751 185.803 44.3484C185.711 44.4218 185.64 44.5079 185.588 44.6069C185.541 44.7023 185.517 44.8068 185.517 44.9204C185.517 45.0634 185.557 45.1826 185.638 45.2779C185.722 45.3733 185.832 45.4558 185.968 45.5254C186.103 45.5951 186.257 45.6574 186.43 45.7124C186.602 45.7638 186.778 45.8206 186.958 45.8829C187.141 45.9416 187.319 46.0076 187.491 46.0809C187.664 46.1543 187.818 46.2459 187.953 46.3559C188.089 46.4659 188.197 46.6016 188.278 46.7629C188.362 46.9206 188.404 47.1113 188.404 47.3349C188.404 47.5916 188.358 47.8299 188.267 48.0499C188.175 48.2663 188.039 48.4551 187.86 48.6164C187.68 48.7741 187.46 48.8988 187.2 48.9904C186.939 49.0821 186.639 49.1279 186.298 49.1279C185.909 49.1279 185.557 49.0656 185.242 48.9409C184.926 48.8126 184.659 48.6494 184.439 48.4514L184.67 48.0774C184.699 48.0298 184.734 47.9931 184.774 47.9674C184.815 47.9418 184.866 47.9289 184.928 47.9289C184.994 47.9289 185.064 47.9546 185.137 48.0059C185.211 48.0573 185.299 48.1141 185.401 48.1764C185.508 48.2388 185.636 48.2956 185.786 48.3469C185.937 48.3983 186.124 48.4239 186.347 48.4239C186.538 48.4239 186.705 48.4001 186.848 48.3524C186.991 48.3011 187.11 48.2333 187.205 48.1489C187.301 48.0646 187.37 47.9674 187.414 47.8574C187.462 47.7474 187.486 47.6301 187.486 47.5054C187.486 47.3514 187.444 47.2249 187.359 47.1259C187.279 47.0233 187.17 46.9371 187.035 46.8674C186.899 46.7941 186.743 46.7318 186.567 46.6804C186.395 46.6254 186.217 46.5686 186.034 46.5099C185.854 46.4513 185.676 46.3853 185.5 46.3119C185.328 46.2349 185.174 46.1396 185.038 46.0259C184.903 45.9123 184.793 45.7729 184.708 45.6079C184.628 45.4393 184.587 45.2358 184.587 44.9974C184.587 44.7848 184.631 44.5813 184.719 44.3869C184.807 44.1889 184.936 44.0166 185.104 43.8699C185.273 43.7196 185.48 43.6004 185.726 43.5124C185.971 43.4244 186.252 43.3804 186.567 43.3804C186.934 43.3804 187.262 43.4391 187.552 43.5564C187.845 43.6701 188.098 43.8278 188.311 44.0294L188.091 44.3869Z" fill="#626262"/>
<mask id="mask0" mask-type="alpha" maskUnits="userSpaceOnUse" x="16" y="0" width="325" height="67">
<rect x="16" width="325" height="67" rx="8" fill="#582949"/>
</mask>
<g mask="url(#mask0)">
<path d="M253.878 99.0425C257.761 89.8812 262.323 81.0315 267.5 72.5557C267.562 72.4934 267.623 72.4311 267.685 72.3688C267.562 71.9948 267.623 72.7427 267.685 72.3688C271.013 70.6238 274.342 72.9297 277.855 73.4906C282.724 74.2384 287.902 72.9297 291.847 69.8759C295.792 66.8844 298.504 62.2103 299.182 57.2869C296.778 60.216 292.895 61.4625 289.196 62.0857C285.498 62.7089 281.615 62.7712 278.04 63.9553C276.314 64.5162 272.431 66.5105 269.966 68.8787C270.027 68.7541 270.089 68.5671 270.15 68.4425C271.63 66.1366 273.109 63.893 274.712 61.6494C278.163 56.6637 281.862 51.8649 285.745 47.2531C283.711 52.3635 294.436 52.9867 298.689 51.1794C303.311 49.1851 307.01 45.0718 308.55 40.2107C302.14 43.3268 295.052 39.089 289.135 43.3268C291.724 40.3977 294.374 37.5309 297.148 34.7888C297.148 34.9134 297.209 34.9757 297.209 35.1004C297.826 36.5961 302.818 35.6613 304.051 35.412C309.598 34.4771 312.619 31.4234 316.995 28.4319C314.838 29.8653 312.125 30.0523 309.537 29.99C306.948 29.9277 304.298 29.6784 301.832 30.4262C301.647 30.4886 301.462 30.5509 301.216 30.6755C303.003 28.9305 304.852 27.2478 306.701 25.6275C306.948 25.8144 307.256 26.0014 307.564 26.126C311.817 27.9957 317.919 22.6983 320.385 19.7692C323.159 16.5285 325.069 12.6645 326.98 8.86292C324.206 10.6702 320.94 11.4804 317.734 12.3529C314.529 13.2254 311.324 14.2849 308.797 16.4662C306.701 18.3358 304.298 22.7607 306.208 25.1289C303.743 27.3101 301.277 29.6161 298.935 31.922C299.12 31.6103 299.243 31.2364 299.428 30.8002C301.031 26.126 301.462 20.7664 301.401 15.8429C301.401 15.2197 301.154 13.5994 301.154 13.5994C301.154 13.5994 299.736 14.5342 299.367 14.8458C297.271 16.7778 295.114 18.7097 293.573 21.078C292.032 23.4462 291.107 26.4376 291.662 29.2421C292.402 32.6698 294.867 34.6641 296.963 33.8539C291.107 39.7745 285.56 46.0067 280.444 52.6128C280.567 52.3635 280.752 52.1142 280.875 51.9272C281.985 50.4315 283.218 48.9981 284.265 47.4401C289.196 39.9615 289.196 29.4914 284.327 22.0128C284.882 22.823 281.862 29.8653 281.492 31.1118C280.629 34.2902 279.828 37.4686 279.088 40.7093C278.348 44.0124 277.793 47.3154 277.239 50.6185C277.115 51.6156 276.006 56.539 277.177 56.8506C276.129 58.284 275.081 59.7175 274.095 61.1509C273.232 62.3973 272.369 63.6437 271.568 64.8902C272.986 61.0885 273.232 57.0376 273.356 52.9244C273.479 48.4372 273.664 43.9501 273.787 39.5252C273.787 38.8397 273.602 32.1089 273.602 32.1089C273.602 32.1089 270.335 38.5904 270.027 39.2136C266.144 45.882 263.925 53.5476 263.617 61.2755C263.494 64.1423 262.816 70.3745 265.343 72.4311C265.774 72.805 266.206 72.9297 266.575 72.9297C261.46 81.2808 257.022 89.9435 253.262 98.7932L253.878 99.0425Z" fill="url(#paint0_linear)"/>
<path d="M439.117 260.68C443 251.518 447.561 242.669 452.738 234.193C452.8 234.131 452.862 234.068 452.923 234.006C452.8 233.632 452.862 234.38 452.923 234.006C456.252 232.261 459.58 234.567 463.093 235.128C467.963 235.876 473.14 234.567 477.085 231.513C481.03 228.522 483.742 223.848 484.42 218.924C482.016 221.853 478.133 223.1 474.435 223.723C470.736 224.346 466.853 224.408 463.278 225.593C461.552 226.153 457.669 228.148 455.204 230.516C455.265 230.391 455.327 230.204 455.389 230.08C456.868 227.774 458.347 225.53 459.95 223.287C463.402 218.301 467.1 213.502 470.983 208.89C468.949 214.001 479.674 214.624 483.927 212.817C488.55 210.822 492.248 206.709 493.789 201.848C487.379 204.964 480.29 200.726 474.373 204.964C476.962 202.035 479.612 199.168 482.386 196.426C482.386 196.551 482.448 196.613 482.448 196.738C483.064 198.233 488.057 197.298 489.289 197.049C494.837 196.114 497.857 193.061 502.233 190.069C500.076 191.503 497.364 191.69 494.775 191.627C492.186 191.565 489.536 191.316 487.07 192.063C486.885 192.126 486.701 192.188 486.454 192.313C488.241 190.568 490.091 188.885 491.94 187.265C492.186 187.452 492.494 187.639 492.803 187.763C497.056 189.633 503.158 184.336 505.623 181.406C508.397 178.166 510.308 174.302 512.218 170.5C509.445 172.307 506.178 173.118 502.973 173.99C499.768 174.863 496.562 175.922 494.035 178.103C491.94 179.973 489.536 184.398 491.447 186.766C488.981 188.947 486.516 191.253 484.173 193.559C484.358 193.248 484.482 192.874 484.666 192.437C486.269 187.763 486.7 182.404 486.639 177.48C486.639 176.857 486.392 175.237 486.392 175.237C486.392 175.237 484.975 176.171 484.605 176.483C482.509 178.415 480.352 180.347 478.811 182.715C477.27 185.083 476.345 188.075 476.9 190.879C477.64 194.307 480.105 196.301 482.201 195.491C476.345 201.412 470.798 207.644 465.682 214.25C465.805 214.001 465.99 213.751 466.114 213.564C467.223 212.069 468.456 210.635 469.504 209.077C474.435 201.599 474.435 191.129 469.565 183.65C470.12 184.46 467.1 191.503 466.73 192.749C465.867 195.927 465.066 199.106 464.326 202.347C463.587 205.65 463.032 208.953 462.477 212.256C462.354 213.253 461.244 218.176 462.415 218.488C461.368 219.921 460.32 221.355 459.334 222.788C458.471 224.034 457.608 225.281 456.806 226.527C458.224 222.726 458.471 218.675 458.594 214.562C458.717 210.074 458.902 205.587 459.025 201.162C459.025 200.477 458.84 193.746 458.84 193.746C458.84 193.746 455.574 200.228 455.265 200.851C451.382 207.519 449.163 215.185 448.855 222.913C448.732 225.78 448.054 232.012 450.581 234.068C451.012 234.442 451.444 234.567 451.814 234.567C446.698 242.918 442.26 251.581 438.5 260.43L439.117 260.68Z" fill="url(#paint1_linear)"/>
</g>
<g filter="url(#filter0_d)">
<rect x="16" y="77" width="325" height="67.6934" rx="8" fill="#FFDEB0"/>
<path d="M46.3237 93.9943L43.1877 104.074H41.7107L39.3447 96.8363C39.3167 96.757 39.2887 96.6707 39.2607 96.5773C39.2374 96.484 39.2141 96.3837 39.1907 96.2763C39.1674 96.3837 39.1417 96.484 39.1137 96.5773C39.0904 96.6707 39.0647 96.757 39.0367 96.8363L36.6497 104.074H35.1727L32.0367 93.9943H33.4087C33.5487 93.9943 33.6654 94.0293 33.7587 94.0993C33.8567 94.1647 33.9221 94.2557 33.9547 94.3723L35.8447 100.833C35.8821 100.973 35.9171 101.125 35.9497 101.288C35.9824 101.452 36.0151 101.622 36.0477 101.799C36.0804 101.622 36.1154 101.452 36.1527 101.288C36.1947 101.12 36.2391 100.969 36.2857 100.833L38.4487 94.3723C38.4814 94.279 38.5467 94.1927 38.6447 94.1133C38.7427 94.034 38.8594 93.9943 38.9947 93.9943H39.4707C39.6154 93.9943 39.7321 94.0317 39.8207 94.1063C39.9094 94.1763 39.9771 94.265 40.0237 94.3723L42.1797 100.833C42.2264 100.969 42.2684 101.116 42.3057 101.274C42.3477 101.428 42.3851 101.592 42.4177 101.764C42.4504 101.592 42.4807 101.428 42.5087 101.274C42.5414 101.116 42.5764 100.969 42.6137 100.833L44.4967 94.3723C44.5247 94.2697 44.5877 94.181 44.6857 94.1063C44.7884 94.0317 44.9074 93.9943 45.0427 93.9943H46.3237ZM50.3311 100.952C49.7944 100.971 49.3417 101.015 48.9731 101.085C48.6044 101.151 48.3057 101.237 48.0771 101.344C47.8484 101.447 47.6827 101.571 47.5801 101.715C47.4821 101.86 47.4331 102.019 47.4331 102.191C47.4331 102.359 47.4587 102.504 47.5101 102.625C47.5661 102.742 47.6407 102.84 47.7341 102.919C47.8321 102.994 47.9441 103.05 48.0701 103.087C48.2007 103.12 48.3431 103.136 48.4971 103.136C48.8891 103.136 49.2251 103.064 49.5051 102.919C49.7897 102.77 50.0651 102.555 50.3311 102.275V100.952ZM46.3411 97.9283C47.1484 97.177 48.1097 96.8013 49.2251 96.8013C49.6357 96.8013 49.9997 96.869 50.3171 97.0043C50.6391 97.135 50.9074 97.3217 51.1221 97.5643C51.3414 97.807 51.5071 98.0963 51.6191 98.4323C51.7357 98.7637 51.7941 99.1323 51.7941 99.5383V104.074H51.1221C50.9774 104.074 50.8677 104.053 50.7931 104.011C50.7184 103.965 50.6554 103.874 50.6041 103.738L50.4571 103.157C50.2751 103.321 50.0954 103.468 49.9181 103.598C49.7407 103.724 49.5564 103.832 49.3651 103.92C49.1784 104.009 48.9754 104.074 48.7561 104.116C48.5414 104.163 48.3034 104.186 48.0421 104.186C47.7527 104.186 47.4821 104.147 47.2301 104.067C46.9827 103.988 46.7681 103.869 46.5861 103.71C46.4041 103.547 46.2594 103.346 46.1521 103.108C46.0494 102.87 45.9981 102.59 45.9981 102.268C45.9981 101.993 46.0704 101.725 46.2151 101.463C46.3644 101.202 46.6071 100.969 46.9431 100.763C47.2837 100.553 47.7294 100.381 48.2801 100.245C48.8354 100.11 49.5191 100.033 50.3311 100.014V99.5383C50.3311 99.025 50.2214 98.6423 50.0021 98.3903C49.7827 98.1383 49.4607 98.0123 49.0361 98.0123C48.7467 98.0123 48.5041 98.0497 48.3081 98.1243C48.1121 98.1943 47.9417 98.2713 47.7971 98.3553C47.6524 98.4393 47.5241 98.5187 47.4121 98.5933C47.3001 98.6633 47.1811 98.6983 47.0551 98.6983C46.9524 98.6983 46.8637 98.6727 46.7891 98.6213C46.7191 98.5653 46.6607 98.4977 46.6141 98.4183L46.3411 97.9283ZM55.6788 104.186C55.0862 104.186 54.6288 104.021 54.3068 103.689C53.9895 103.353 53.8308 102.882 53.8308 102.275V98.1173H53.0468C52.9628 98.1173 52.8905 98.0917 52.8298 98.0403C52.7692 97.9843 52.7388 97.9027 52.7388 97.7953V97.1863L53.8938 97.0183L54.2228 94.9533C54.2462 94.874 54.2858 94.811 54.3418 94.7643C54.3978 94.713 54.4725 94.6873 54.5658 94.6873H55.3358V97.0323H57.3168V98.1173H55.3358V102.17C55.3358 102.427 55.3988 102.623 55.5248 102.758C55.6508 102.894 55.8188 102.961 56.0288 102.961C56.1455 102.961 56.2458 102.947 56.3298 102.919C56.4138 102.887 56.4862 102.854 56.5468 102.821C56.6075 102.784 56.6588 102.751 56.7008 102.723C56.7475 102.691 56.7918 102.674 56.8338 102.674C56.9178 102.674 56.9855 102.721 57.0368 102.814L57.4848 103.549C57.2515 103.755 56.9762 103.913 56.6588 104.025C56.3415 104.133 56.0148 104.186 55.6788 104.186ZM63.0598 99.6993C63.0598 99.4473 63.0225 99.214 62.9478 98.9993C62.8778 98.78 62.7728 98.591 62.6328 98.4323C62.4928 98.269 62.3178 98.143 62.1078 98.0543C61.9025 97.961 61.6645 97.9143 61.3938 97.9143C60.8478 97.9143 60.4185 98.0707 60.1058 98.3833C59.7932 98.696 59.5948 99.1347 59.5108 99.6993H63.0598ZM59.4688 100.623C59.4875 101.029 59.5505 101.382 59.6578 101.68C59.7652 101.974 59.9075 102.219 60.0848 102.415C60.2668 102.611 60.4815 102.758 60.7288 102.856C60.9808 102.95 61.2608 102.996 61.5688 102.996C61.8628 102.996 62.1172 102.964 62.3318 102.898C62.5465 102.828 62.7332 102.754 62.8918 102.674C63.0505 102.59 63.1858 102.516 63.2978 102.45C63.4098 102.38 63.5125 102.345 63.6058 102.345C63.7272 102.345 63.8205 102.392 63.8858 102.485L64.3128 103.038C64.1355 103.248 63.9348 103.426 63.7108 103.57C63.4868 103.715 63.2488 103.834 62.9968 103.927C62.7448 104.016 62.4858 104.079 62.2198 104.116C61.9538 104.158 61.6948 104.179 61.4428 104.179C60.9482 104.179 60.4885 104.098 60.0638 103.934C59.6438 103.766 59.2775 103.521 58.9648 103.199C58.6568 102.877 58.4142 102.478 58.2368 102.002C58.0642 101.526 57.9778 100.978 57.9778 100.357C57.9778 99.8627 58.0548 99.4007 58.2088 98.9713C58.3675 98.542 58.5915 98.1687 58.8808 97.8513C59.1748 97.534 59.5295 97.2843 59.9448 97.1023C60.3648 96.9157 60.8385 96.8223 61.3658 96.8223C61.8045 96.8223 62.2105 96.8947 62.5838 97.0393C62.9572 97.1793 63.2792 97.387 63.5498 97.6623C63.8205 97.9377 64.0305 98.276 64.1798 98.6773C64.3338 99.074 64.4108 99.5267 64.4108 100.035C64.4108 100.269 64.3852 100.425 64.3338 100.504C64.2825 100.584 64.1892 100.623 64.0538 100.623H59.4688ZM67.1638 98.2573C67.3878 97.8047 67.6584 97.45 67.9758 97.1933C68.2931 96.932 68.6734 96.8013 69.1168 96.8013C69.2708 96.8013 69.4154 96.82 69.5508 96.8573C69.6861 96.89 69.8074 96.9413 69.9148 97.0113L69.8098 98.1453C69.7911 98.2247 69.7608 98.2807 69.7188 98.3133C69.6814 98.3413 69.6301 98.3553 69.5648 98.3553C69.4948 98.3553 69.3944 98.3437 69.2638 98.3203C69.1331 98.2923 68.9954 98.2783 68.8508 98.2783C68.6408 98.2783 68.4541 98.3087 68.2908 98.3693C68.1321 98.43 67.9874 98.5187 67.8568 98.6353C67.7308 98.752 67.6188 98.8943 67.5208 99.0623C67.4228 99.2303 67.3318 99.4217 67.2478 99.6363V104.074H65.7428V96.9343H66.6178C66.7764 96.9343 66.8861 96.9647 66.9468 97.0253C67.0074 97.0813 67.0494 97.1817 67.0728 97.3263L67.1638 98.2573ZM76.2421 104.186C75.6495 104.186 75.1921 104.021 74.8701 103.689C74.5528 103.353 74.3941 102.882 74.3941 102.275V98.1173H73.6101C73.5261 98.1173 73.4538 98.0917 73.3931 98.0403C73.3325 97.9843 73.3021 97.9027 73.3021 97.7953V97.1863L74.4571 97.0183L74.7861 94.9533C74.8095 94.874 74.8491 94.811 74.9051 94.7643C74.9611 94.713 75.0358 94.6873 75.1291 94.6873H75.8991V97.0323H77.8801V98.1173H75.8991V102.17C75.8991 102.427 75.9621 102.623 76.0881 102.758C76.2141 102.894 76.3821 102.961 76.5921 102.961C76.7088 102.961 76.8091 102.947 76.8931 102.919C76.9771 102.887 77.0495 102.854 77.1101 102.821C77.1708 102.784 77.2221 102.751 77.2641 102.723C77.3108 102.691 77.3551 102.674 77.3971 102.674C77.4811 102.674 77.5488 102.721 77.6001 102.814L78.0481 103.549C77.8148 103.755 77.5395 103.913 77.2221 104.025C76.9048 104.133 76.5781 104.186 76.2421 104.186ZM80.4999 97.7813C80.7939 97.492 81.1159 97.261 81.4659 97.0883C81.8159 96.911 82.2242 96.8223 82.6909 96.8223C83.0829 96.8223 83.4259 96.8877 83.7199 97.0183C84.0185 97.149 84.2682 97.3333 84.4689 97.5713C84.6742 97.8093 84.8282 98.0963 84.9309 98.4323C85.0335 98.7637 85.0849 99.13 85.0849 99.5313V104.074H83.5869V99.5313C83.5869 99.0507 83.4749 98.6773 83.2509 98.4113C83.0315 98.1453 82.6955 98.0123 82.2429 98.0123C81.9069 98.0123 81.5942 98.0893 81.3049 98.2433C81.0202 98.3973 80.7519 98.6073 80.4999 98.8733V104.074H78.9949V93.7143H80.4999V97.7813ZM91.4539 99.6993C91.4539 99.4473 91.4166 99.214 91.3419 98.9993C91.2719 98.78 91.1669 98.591 91.0269 98.4323C90.8869 98.269 90.7119 98.143 90.5019 98.0543C90.2966 97.961 90.0586 97.9143 89.7879 97.9143C89.2419 97.9143 88.8126 98.0707 88.4999 98.3833C88.1873 98.696 87.9889 99.1347 87.9049 99.6993H91.4539ZM87.8629 100.623C87.8816 101.029 87.9446 101.382 88.0519 101.68C88.1593 101.974 88.3016 102.219 88.4789 102.415C88.6609 102.611 88.8756 102.758 89.1229 102.856C89.3749 102.95 89.6549 102.996 89.9629 102.996C90.2569 102.996 90.5113 102.964 90.7259 102.898C90.9406 102.828 91.1273 102.754 91.2859 102.674C91.4446 102.59 91.5799 102.516 91.6919 102.45C91.8039 102.38 91.9066 102.345 91.9999 102.345C92.1213 102.345 92.2146 102.392 92.2799 102.485L92.7069 103.038C92.5296 103.248 92.3289 103.426 92.1049 103.57C91.8809 103.715 91.6429 103.834 91.3909 103.927C91.1389 104.016 90.8799 104.079 90.6139 104.116C90.3479 104.158 90.0889 104.179 89.8369 104.179C89.3423 104.179 88.8826 104.098 88.4579 103.934C88.0379 103.766 87.6716 103.521 87.3589 103.199C87.0509 102.877 86.8083 102.478 86.6309 102.002C86.4583 101.526 86.3719 100.978 86.3719 100.357C86.3719 99.8627 86.4489 99.4007 86.6029 98.9713C86.7616 98.542 86.9856 98.1687 87.2749 97.8513C87.5689 97.534 87.9236 97.2843 88.3389 97.1023C88.7589 96.9157 89.2326 96.8223 89.7599 96.8223C90.1986 96.8223 90.6046 96.8947 90.9779 97.0393C91.3513 97.1793 91.6733 97.387 91.9439 97.6623C92.2146 97.9377 92.4246 98.276 92.5739 98.6773C92.7279 99.074 92.8049 99.5267 92.8049 100.035C92.8049 100.269 92.7793 100.425 92.7279 100.504C92.6766 100.584 92.5833 100.623 92.4479 100.623H87.8629ZM99.4766 95.3173V98.5443H103.418V99.8673H99.4766V104.074H97.8316V93.9943H104.118V95.3173H99.4766ZM106.806 93.7143V104.074H105.301V93.7143H106.806ZM111.679 96.8223C112.206 96.8223 112.682 96.9087 113.107 97.0813C113.536 97.254 113.9 97.499 114.199 97.8163C114.502 98.1337 114.736 98.5187 114.899 98.9713C115.062 99.424 115.144 99.9327 115.144 100.497C115.144 101.062 115.062 101.571 114.899 102.023C114.736 102.476 114.502 102.863 114.199 103.185C113.9 103.503 113.536 103.748 113.107 103.92C112.682 104.093 112.206 104.179 111.679 104.179C111.147 104.179 110.666 104.093 110.237 103.92C109.812 103.748 109.448 103.503 109.145 103.185C108.842 102.863 108.608 102.476 108.445 102.023C108.282 101.571 108.2 101.062 108.2 100.497C108.2 99.9327 108.282 99.424 108.445 98.9713C108.608 98.5187 108.842 98.1337 109.145 97.8163C109.448 97.499 109.812 97.254 110.237 97.0813C110.666 96.9087 111.147 96.8223 111.679 96.8223ZM111.679 103.003C112.323 103.003 112.801 102.789 113.114 102.359C113.431 101.925 113.59 101.307 113.59 100.504C113.59 99.7017 113.431 99.0833 113.114 98.6493C112.801 98.2107 112.323 97.9913 111.679 97.9913C111.026 97.9913 110.54 98.2107 110.223 98.6493C109.906 99.0833 109.747 99.7017 109.747 100.504C109.747 101.307 109.906 101.925 110.223 102.359C110.54 102.789 111.026 103.003 111.679 103.003ZM126.44 96.9343L124.151 104.074H122.954C122.814 104.074 122.716 103.983 122.66 103.801L121.239 99.3563C121.202 99.2303 121.167 99.1043 121.134 98.9783C121.106 98.8523 121.081 98.7287 121.057 98.6073C121.006 98.8593 120.943 99.1113 120.868 99.3633L119.426 103.801C119.375 103.983 119.265 104.074 119.097 104.074H117.956L115.667 96.9343H116.857C116.974 96.9343 117.07 96.9647 117.144 97.0253C117.224 97.0813 117.275 97.149 117.298 97.2283L118.488 101.386C118.535 101.578 118.575 101.764 118.607 101.946C118.645 102.124 118.677 102.301 118.705 102.478C118.752 102.301 118.801 102.124 118.852 101.946C118.904 101.764 118.957 101.578 119.013 101.386L120.35 97.2073C120.374 97.1233 120.42 97.0557 120.49 97.0043C120.565 96.9483 120.654 96.9203 120.756 96.9203H121.414C121.522 96.9203 121.613 96.9483 121.687 97.0043C121.762 97.0557 121.811 97.1233 121.834 97.2073L123.136 101.386C123.192 101.578 123.244 101.764 123.29 101.946C123.342 102.128 123.388 102.31 123.43 102.492C123.463 102.315 123.498 102.135 123.535 101.953C123.573 101.771 123.617 101.582 123.668 101.386L124.879 97.2283C124.907 97.1443 124.959 97.0743 125.033 97.0183C125.108 96.9623 125.199 96.9343 125.306 96.9343H126.44ZM132.04 99.6993C132.04 99.4473 132.003 99.214 131.928 98.9993C131.858 98.78 131.753 98.591 131.613 98.4323C131.473 98.269 131.298 98.143 131.088 98.0543C130.883 97.961 130.645 97.9143 130.374 97.9143C129.828 97.9143 129.399 98.0707 129.086 98.3833C128.773 98.696 128.575 99.1347 128.491 99.6993H132.04ZM128.449 100.623C128.468 101.029 128.531 101.382 128.638 101.68C128.745 101.974 128.888 102.219 129.065 102.415C129.247 102.611 129.462 102.758 129.709 102.856C129.961 102.95 130.241 102.996 130.549 102.996C130.843 102.996 131.097 102.964 131.312 102.898C131.527 102.828 131.713 102.754 131.872 102.674C132.031 102.59 132.166 102.516 132.278 102.45C132.39 102.38 132.493 102.345 132.586 102.345C132.707 102.345 132.801 102.392 132.866 102.485L133.293 103.038C133.116 103.248 132.915 103.426 132.691 103.57C132.467 103.715 132.229 103.834 131.977 103.927C131.725 104.016 131.466 104.079 131.2 104.116C130.934 104.158 130.675 104.179 130.423 104.179C129.928 104.179 129.469 104.098 129.044 103.934C128.624 103.766 128.258 103.521 127.945 103.199C127.637 102.877 127.394 102.478 127.217 102.002C127.044 101.526 126.958 100.978 126.958 100.357C126.958 99.8627 127.035 99.4007 127.189 98.9713C127.348 98.542 127.572 98.1687 127.861 97.8513C128.155 97.534 128.51 97.2843 128.925 97.1023C129.345 96.9157 129.819 96.8223 130.346 96.8223C130.785 96.8223 131.191 96.8947 131.564 97.0393C131.937 97.1793 132.259 97.387 132.53 97.6623C132.801 97.9377 133.011 98.276 133.16 98.6773C133.314 99.074 133.391 99.5267 133.391 100.035C133.391 100.269 133.365 100.425 133.314 100.504C133.263 100.584 133.169 100.623 133.034 100.623H128.449ZM136.144 98.2573C136.368 97.8047 136.639 97.45 136.956 97.1933C137.273 96.932 137.654 96.8013 138.097 96.8013C138.251 96.8013 138.396 96.82 138.531 96.8573C138.666 96.89 138.788 96.9413 138.895 97.0113L138.79 98.1453C138.771 98.2247 138.741 98.2807 138.699 98.3133C138.662 98.3413 138.61 98.3553 138.545 98.3553C138.475 98.3553 138.375 98.3437 138.244 98.3203C138.113 98.2923 137.976 98.2783 137.831 98.2783C137.621 98.2783 137.434 98.3087 137.271 98.3693C137.112 98.43 136.968 98.5187 136.837 98.6353C136.711 98.752 136.599 98.8943 136.501 99.0623C136.403 99.2303 136.312 99.4217 136.228 99.6363V104.074H134.723V96.9343H135.598C135.757 96.9343 135.866 96.9647 135.927 97.0253C135.988 97.0813 136.03 97.1817 136.053 97.3263L136.144 98.2573Z" fill="#1A1C6C"/>
<path d="M34.0734 118.987V121.743H37.3129V122.612H34.0734V126H33.0064V118.118H37.8629V118.987H34.0734ZM39.936 120.428V126H38.957V120.428H39.936ZM40.145 118.679C40.145 118.775 40.1249 118.865 40.0845 118.949C40.0479 119.03 39.9965 119.103 39.9305 119.169C39.8682 119.231 39.793 119.281 39.705 119.317C39.6207 119.354 39.5309 119.372 39.4355 119.372C39.3402 119.372 39.2504 119.354 39.166 119.317C39.0854 119.281 39.0139 119.231 38.9515 119.169C38.8892 119.103 38.8397 119.03 38.803 118.949C38.7664 118.865 38.748 118.775 38.748 118.679C38.748 118.584 38.7664 118.494 38.803 118.41C38.8397 118.322 38.8892 118.247 38.9515 118.184C39.0139 118.118 39.0854 118.067 39.166 118.03C39.2504 117.994 39.3402 117.975 39.4355 117.975C39.5309 117.975 39.6207 117.994 39.705 118.03C39.793 118.067 39.8682 118.118 39.9305 118.184C39.9965 118.247 40.0479 118.322 40.0845 118.41C40.1249 118.494 40.145 118.584 40.145 118.679ZM45.3506 121.418C45.3212 121.459 45.2919 121.49 45.2626 121.512C45.2332 121.534 45.1929 121.545 45.1416 121.545C45.0866 121.545 45.0261 121.523 44.9601 121.479C44.8941 121.431 44.8116 121.38 44.7126 121.325C44.6172 121.27 44.4981 121.22 44.3551 121.176C44.2157 121.129 44.0434 121.105 43.8381 121.105C43.5631 121.105 43.3211 121.154 43.1121 121.253C42.9031 121.349 42.7271 121.488 42.5841 121.671C42.4447 121.855 42.3384 122.077 42.2651 122.337C42.1954 122.597 42.1606 122.889 42.1606 123.211C42.1606 123.549 42.1991 123.849 42.2761 124.113C42.3531 124.374 42.4612 124.594 42.6006 124.773C42.7436 124.949 42.9141 125.085 43.1121 125.18C43.3137 125.272 43.5392 125.318 43.7886 125.318C44.0269 125.318 44.2231 125.29 44.3771 125.235C44.5311 125.177 44.6576 125.113 44.7566 125.043C44.8592 124.973 44.9436 124.911 45.0096 124.856C45.0792 124.797 45.1471 124.768 45.2131 124.768C45.2937 124.768 45.3561 124.799 45.4001 124.861L45.6751 125.219C45.5541 125.369 45.4166 125.498 45.2626 125.604C45.1086 125.71 44.9417 125.8 44.7621 125.873C44.5861 125.943 44.4009 125.994 44.2066 126.028C44.0122 126.061 43.8142 126.077 43.6126 126.077C43.2642 126.077 42.9397 126.013 42.6391 125.884C42.3421 125.756 42.0836 125.571 41.8636 125.329C41.6436 125.083 41.4712 124.783 41.3466 124.427C41.2219 124.071 41.1596 123.666 41.1596 123.211C41.1596 122.797 41.2164 122.414 41.3301 122.062C41.4474 121.71 41.6161 121.407 41.8361 121.154C42.0597 120.898 42.3329 120.698 42.6556 120.555C42.9819 120.412 43.3559 120.34 43.7776 120.34C44.1699 120.34 44.5146 120.405 44.8116 120.533C45.1122 120.658 45.3781 120.835 45.6091 121.066L45.3506 121.418ZM51.2359 120.428V126H50.6529C50.5136 126 50.4256 125.932 50.3889 125.796L50.3119 125.197C50.0699 125.465 49.7986 125.681 49.4979 125.846C49.1972 126.007 48.8526 126.088 48.4639 126.088C48.1596 126.088 47.8901 126.039 47.6554 125.939C47.4244 125.837 47.2301 125.694 47.0724 125.51C46.9147 125.327 46.7956 125.105 46.7149 124.845C46.6379 124.585 46.5994 124.297 46.5994 123.981V120.428H47.5784V123.981C47.5784 124.403 47.6737 124.729 47.8644 124.96C48.0587 125.191 48.3539 125.307 48.7499 125.307C49.0396 125.307 49.3091 125.239 49.5584 125.103C49.8114 124.964 50.0442 124.773 50.2569 124.531V120.428H51.2359ZM55.9616 121.347C55.9176 121.428 55.8498 121.468 55.7581 121.468C55.7031 121.468 55.6408 121.448 55.5711 121.407C55.5015 121.367 55.4153 121.323 55.3126 121.275C55.2136 121.224 55.0945 121.178 54.9551 121.138C54.8158 121.094 54.6508 121.072 54.4601 121.072C54.2951 121.072 54.1466 121.094 54.0146 121.138C53.8826 121.178 53.769 121.235 53.6736 121.308C53.582 121.382 53.5105 121.468 53.4591 121.567C53.4115 121.662 53.3876 121.767 53.3876 121.88C53.3876 122.023 53.428 122.143 53.5086 122.238C53.593 122.333 53.703 122.416 53.8386 122.485C53.9743 122.555 54.1283 122.617 54.3006 122.672C54.473 122.724 54.649 122.781 54.8286 122.843C55.012 122.902 55.1898 122.968 55.3621 123.041C55.5345 123.114 55.6885 123.206 55.8241 123.316C55.9598 123.426 56.068 123.562 56.1486 123.723C56.233 123.881 56.2751 124.071 56.2751 124.295C56.2751 124.552 56.2293 124.79 56.1376 125.01C56.046 125.226 55.9103 125.415 55.7306 125.576C55.551 125.734 55.331 125.859 55.0706 125.95C54.8103 126.042 54.5096 126.088 54.1686 126.088C53.78 126.088 53.428 126.026 53.1126 125.901C52.7973 125.773 52.5296 125.609 52.3096 125.411L52.5406 125.037C52.57 124.99 52.6048 124.953 52.6451 124.927C52.6855 124.902 52.7368 124.889 52.7991 124.889C52.8651 124.889 52.9348 124.915 53.0081 124.966C53.0815 125.017 53.1695 125.074 53.2721 125.136C53.3785 125.199 53.5068 125.256 53.6571 125.307C53.8075 125.358 53.9945 125.384 54.2181 125.384C54.4088 125.384 54.5756 125.36 54.7186 125.312C54.8616 125.261 54.9808 125.193 55.0761 125.109C55.1715 125.025 55.2411 124.927 55.2851 124.817C55.3328 124.707 55.3566 124.59 55.3566 124.465C55.3566 124.311 55.3145 124.185 55.2301 124.086C55.1495 123.983 55.0413 123.897 54.9056 123.827C54.77 123.754 54.6141 123.692 54.4381 123.64C54.2658 123.585 54.088 123.529 53.9046 123.47C53.725 123.411 53.5471 123.345 53.3711 123.272C53.1988 123.195 53.0448 123.1 52.9091 122.986C52.7735 122.872 52.6635 122.733 52.5791 122.568C52.4985 122.399 52.4581 122.196 52.4581 121.957C52.4581 121.745 52.5021 121.541 52.5901 121.347C52.6781 121.149 52.8065 120.977 52.9751 120.83C53.1438 120.68 53.351 120.56 53.5966 120.473C53.8423 120.384 54.1228 120.34 54.4381 120.34C54.8048 120.34 55.133 120.399 55.4226 120.516C55.716 120.63 55.969 120.788 56.1816 120.989L55.9616 121.347Z" fill="black"/>
<path d="M151.112 121.351C151.523 121.263 151.9 121.219 152.245 121.219C152.656 121.219 153.019 121.279 153.334 121.4C153.649 121.521 153.911 121.688 154.12 121.901C154.333 122.114 154.493 122.365 154.599 122.654C154.709 122.944 154.764 123.259 154.764 123.6C154.764 124.018 154.691 124.396 154.544 124.733C154.401 125.071 154.201 125.36 153.944 125.602C153.691 125.841 153.393 126.024 153.048 126.152C152.703 126.281 152.331 126.345 151.931 126.345C151.7 126.345 151.479 126.321 151.266 126.273C151.053 126.229 150.853 126.169 150.666 126.092C150.483 126.015 150.313 125.927 150.155 125.828C149.997 125.729 149.858 125.624 149.737 125.514L150.039 125.096C150.105 125.001 150.192 124.953 150.298 124.953C150.371 124.953 150.454 124.983 150.545 125.041C150.637 125.096 150.749 125.159 150.881 125.228C151.013 125.298 151.167 125.362 151.343 125.421C151.523 125.476 151.735 125.503 151.981 125.503C152.256 125.503 152.503 125.459 152.723 125.371C152.943 125.283 153.132 125.159 153.29 124.997C153.448 124.832 153.569 124.636 153.653 124.409C153.737 124.182 153.779 123.927 153.779 123.644C153.779 123.399 153.743 123.177 153.669 122.979C153.6 122.781 153.492 122.612 153.345 122.473C153.202 122.334 153.022 122.225 152.806 122.148C152.59 122.071 152.337 122.033 152.047 122.033C151.849 122.033 151.642 122.049 151.425 122.082C151.213 122.115 150.995 122.169 150.771 122.242L150.155 122.06L150.787 118.375H154.522V118.804C154.522 118.944 154.478 119.059 154.39 119.151C154.306 119.239 154.159 119.283 153.95 119.283H151.475L151.112 121.351ZM161.48 122.319C161.48 123.008 161.405 123.606 161.255 124.112C161.108 124.614 160.906 125.03 160.65 125.36C160.393 125.69 160.089 125.936 159.737 126.097C159.388 126.259 159.014 126.339 158.615 126.339C158.211 126.339 157.835 126.259 157.487 126.097C157.142 125.936 156.842 125.69 156.585 125.36C156.328 125.03 156.127 124.614 155.98 124.112C155.833 123.606 155.76 123.008 155.76 122.319C155.76 121.63 155.833 121.032 155.98 120.526C156.127 120.02 156.328 119.602 156.585 119.272C156.842 118.938 157.142 118.691 157.487 118.529C157.835 118.368 158.211 118.287 158.615 118.287C159.014 118.287 159.388 118.368 159.737 118.529C160.089 118.691 160.393 118.938 160.65 119.272C160.906 119.602 161.108 120.02 161.255 120.526C161.405 121.032 161.48 121.63 161.48 122.319ZM160.463 122.319C160.463 121.718 160.411 121.213 160.309 120.806C160.21 120.396 160.074 120.066 159.902 119.816C159.733 119.567 159.537 119.389 159.313 119.283C159.089 119.173 158.857 119.118 158.615 119.118C158.373 119.118 158.14 119.173 157.916 119.283C157.692 119.389 157.496 119.567 157.328 119.816C157.159 120.066 157.023 120.396 156.921 120.806C156.822 121.213 156.772 121.718 156.772 122.319C156.772 122.92 156.822 123.424 156.921 123.831C157.023 124.238 157.159 124.567 157.328 124.816C157.496 125.065 157.692 125.245 157.916 125.355C158.14 125.461 158.373 125.514 158.615 125.514C158.857 125.514 159.089 125.461 159.313 125.355C159.537 125.245 159.733 125.065 159.902 124.816C160.074 124.567 160.21 124.238 160.309 123.831C160.411 123.424 160.463 122.92 160.463 122.319ZM167.789 122.319C167.789 123.008 167.714 123.606 167.564 124.112C167.417 124.614 167.216 125.03 166.959 125.36C166.702 125.69 166.398 125.936 166.046 126.097C165.698 126.259 165.324 126.339 164.924 126.339C164.521 126.339 164.145 126.259 163.796 126.097C163.452 125.936 163.151 125.69 162.894 125.36C162.638 125.03 162.436 124.614 162.289 124.112C162.143 123.606 162.069 123.008 162.069 122.319C162.069 121.63 162.143 121.032 162.289 120.526C162.436 120.02 162.638 119.602 162.894 119.272C163.151 118.938 163.452 118.691 163.796 118.529C164.145 118.368 164.521 118.287 164.924 118.287C165.324 118.287 165.698 118.368 166.046 118.529C166.398 118.691 166.702 118.938 166.959 119.272C167.216 119.602 167.417 120.02 167.564 120.526C167.714 121.032 167.789 121.63 167.789 122.319ZM166.772 122.319C166.772 121.718 166.721 121.213 166.618 120.806C166.519 120.396 166.383 120.066 166.211 119.816C166.042 119.567 165.846 119.389 165.622 119.283C165.399 119.173 165.166 119.118 164.924 119.118C164.682 119.118 164.449 119.173 164.225 119.283C164.002 119.389 163.806 119.567 163.637 119.816C163.468 120.066 163.333 120.396 163.23 120.806C163.131 121.213 163.081 121.718 163.081 122.319C163.081 122.92 163.131 123.424 163.23 123.831C163.333 124.238 163.468 124.567 163.637 124.816C163.806 125.065 164.002 125.245 164.225 125.355C164.449 125.461 164.682 125.514 164.924 125.514C165.166 125.514 165.399 125.461 165.622 125.355C165.846 125.245 166.042 125.065 166.211 124.816C166.383 124.567 166.519 124.238 166.618 123.831C166.721 123.424 166.772 122.92 166.772 122.319ZM171.567 126.257V120.685H172.156C172.295 120.685 172.381 120.753 172.414 120.889L172.486 121.461C172.691 121.208 172.922 121.001 173.179 120.839C173.435 120.678 173.732 120.597 174.07 120.597C174.444 120.597 174.746 120.702 174.977 120.911C175.212 121.12 175.38 121.402 175.483 121.758C175.564 121.556 175.666 121.382 175.791 121.235C175.919 121.089 176.062 120.968 176.22 120.872C176.378 120.777 176.545 120.707 176.721 120.663C176.9 120.619 177.082 120.597 177.265 120.597C177.558 120.597 177.819 120.645 178.046 120.74C178.277 120.832 178.471 120.968 178.629 121.147C178.79 121.327 178.913 121.549 178.998 121.813C179.082 122.073 179.124 122.372 179.124 122.709V126.257H178.14V122.709C178.14 122.273 178.044 121.943 177.854 121.719C177.663 121.492 177.388 121.378 177.029 121.378C176.867 121.378 176.713 121.408 176.567 121.466C176.424 121.521 176.297 121.604 176.187 121.714C176.077 121.824 175.989 121.963 175.923 122.132C175.861 122.297 175.83 122.489 175.83 122.709V126.257H174.845V122.709C174.845 122.262 174.755 121.928 174.576 121.708C174.396 121.488 174.134 121.378 173.789 121.378C173.547 121.378 173.323 121.444 173.118 121.576C172.913 121.705 172.724 121.881 172.552 122.104V126.257H171.567ZM185.136 125.36V126.257H180.664V118.375H181.726V125.36H185.136Z" fill="#626262"/>
</g>
<path d="M326.575 117.818C326.575 125.755 320.141 132.105 312.287 132.105C304.434 132.105 298 125.755 298 117.818C298 109.88 312.287 92 312.287 92C312.287 92 326.575 109.964 326.575 117.818Z" fill="#BDDBF2"/>
<path d="M312.287 128.345C306.522 128.345 301.76 123.666 301.76 117.818C301.76 117.149 302.345 116.564 303.013 116.564C303.681 116.564 304.266 117.149 304.266 117.818C304.266 122.246 307.859 125.839 312.287 125.839C312.956 125.839 313.541 126.424 313.541 127.092C313.541 127.76 312.956 128.345 312.287 128.345Z" fill="white"/>
<defs>
<filter id="filter0_d" x="0" y="69" width="357" height="99.6934" filterUnits="userSpaceOnUse" color-interpolation-filters="sRGB">
<feFlood flood-opacity="0" result="BackgroundImageFix"/>
<feColorMatrix in="SourceAlpha" type="matrix" values="0 0 0 0 0 0 0 0 0 0 0 0 0 0 0 0 0 0 127 0"/>
<feOffset dy="8"/>
<feGaussianBlur stdDeviation="8"/>
<feColorMatrix type="matrix" values="0 0 0 0 0.189583 0 0 0 0 0.24057 0 0 0 0 0.5 0 0 0 0.25 0"/>
<feBlend mode="normal" in2="BackgroundImageFix" result="effect1_dropShadow"/>
<feBlend mode="normal" in="SourceGraphic" in2="effect1_dropShadow" result="shape"/>
</filter>
<linearGradient id="paint0_linear" x1="309.81" y1="15.4257" x2="177.268" y2="84.8985" gradientUnits="userSpaceOnUse">
<stop stop-color="#56B19A"/>
<stop offset="1" stop-color="#1F9E96"/>
</linearGradient>
<linearGradient id="paint1_linear" x1="309.81" y1="15.4257" x2="177.268" y2="84.8985" gradientUnits="userSpaceOnUse">
<stop stop-color="#56B19A"/>
<stop offset="1" stop-color="#1F9E96"/>
</linearGradient>
</defs>
</svg>
