<svg width="54" height="60" viewBox="0 0 54 60" fill="none" xmlns="http://www.w3.org/2000/svg">
<path d="M13.7956 14.5013L5.67212 8.63818C5.67212 8.63818 10.1398 18.571 14.3102 20.4599C18.4807 22.3488 14.3102 14.549 14.3102 14.549L13.7956 14.5013Z" fill="#248E63"/>
<path d="M13.7106 23.739C13.7106 23.739 5.46516 25.1292 0 17.2816C0 17.2816 3.57624 25.8242 6.85533 27.7132C10.1344 29.6021 16.9844 29.8992 16.9844 29.8992L13.7106 23.739Z" fill="#248E63"/>
<path d="M36.5529 23.1447C36.5529 23.1447 45.4775 26.0258 51.5953 23.1447C51.5953 23.1447 36.9508 31.2893 32.7803 31.1036C28.6098 30.9179 36.5529 23.1447 36.5529 23.1447Z" fill="#194733"/>
<path d="M29.4376 21.7121C29.4376 21.7121 37.8051 17.4673 40.1185 11.1001C40.1185 11.1001 35.4492 27.1931 32.3505 29.9894C29.2518 32.7856 29.4376 21.7121 29.4376 21.7121Z" fill="#194733"/>
<path d="M53.2189 16.6873C53.2189 16.6873 48.4436 24.4605 41.9225 26.1213C35.4015 27.7821 33.5497 26.4609 33.5497 26.4609L42.6813 19.8921C42.6813 19.8921 51.1284 19.5206 53.2189 16.6873Z" fill="#194733"/>
<path d="M42.6813 46.9632V33.8893H9.0414V46.9632C9.03838 49.2288 9.49426 51.4716 10.3816 53.5562C11.2689 55.6409 12.5692 57.5242 14.2041 59.0927H37.508C39.1446 57.5249 40.4467 55.642 41.3358 53.5573C42.2249 51.4727 42.6826 49.2295 42.6813 46.9632V46.9632Z" fill="#E6EFB9"/>
<path d="M42.6813 46.9632V33.8893H9.0414V46.9632C9.03838 49.2288 9.49426 51.4716 10.3816 53.5562C11.2689 55.6409 12.5692 57.5242 14.2041 59.0927H37.508C39.1446 57.5249 40.4467 55.642 41.3358 53.5573C42.2249 51.4727 42.6826 49.2295 42.6813 46.9632V46.9632Z" fill="#75324F" fill-opacity="0.93"/>
<path d="M25.1875 33.8893H9.0414V46.9632C9.03838 49.2288 9.49426 51.4716 10.3816 53.5562C11.2689 55.6409 12.5692 57.5242 14.2041 59.0927H28.8698C26.5989 56.0311 25.1875 51.728 25.1875 46.9632V33.8893Z" fill="#CF7770"/>
<path d="M9.04138 33.8893V35.306L30.6102 36.6855C33.22 36.854 35.6678 38.0096 37.4565 39.9175C39.2452 41.8254 40.2406 44.3427 40.2405 46.9579V46.9579C40.2435 49.2235 39.7877 51.4663 38.9004 53.5509C38.0131 55.6356 36.7128 57.5189 35.0778 59.0874H37.5079C39.1436 57.5192 40.4447 55.636 41.3329 53.5514C42.2211 51.4668 42.678 49.2239 42.676 46.9579V33.8893H9.04138Z" fill="#75324F"/>
<path d="M12.4159 19.6693C10.0335 13.3605 11.689 5.25292 14.9999 0C14.2942 5.20516 15.695 10.0442 18.47 14.3739C21.0013 18.2101 24.2803 21.4964 28.111 24.0361L24.6356 26.1213L12.4159 19.6693Z" fill="#094F32"/>
<path d="M15.3554 7.21083C15.0952 7.13549 14.8215 7.11918 14.5542 7.16308C13.8856 7.24798 12.5804 7.78918 12.5432 6.59003C12.5432 6.01699 12.8244 5.52884 12.7077 4.99824C12.782 4.786 12.8563 4.57907 12.9305 4.37744C13.046 4.53919 13.1264 4.72327 13.1666 4.91788C13.2068 5.11249 13.2059 5.31336 13.164 5.50762C13.1056 5.89495 12.8616 6.37249 13.0207 6.75982C13.286 7.41246 14.1403 7.06227 14.6125 6.93492C14.8237 6.87838 15.0413 6.84984 15.2599 6.85003C15.2952 6.98091 15.3271 7.10118 15.3554 7.21083Z" fill="#1C724B"/>
<path d="M17.5575 12.8404C16.4379 12.9306 15.3078 12.9572 14.2094 12.9943C12.936 13.0367 12.087 12.607 11.8323 11.2858C11.7843 10.7465 11.683 10.2133 11.5299 9.69398C11.5617 9.48174 11.5989 9.2748 11.636 9.06787C11.9838 9.64835 12.1893 10.3029 12.2356 10.978C12.3736 11.896 12.7078 12.6229 13.7425 12.7343C14.7152 12.773 15.6894 12.7322 16.6555 12.6123L17.4142 12.5698L17.5575 12.8404Z" fill="#1C724B"/>
<path d="M18.5973 14.5702L18.4541 14.7082C18.1676 15.0159 17.9235 15.3608 17.621 15.6632C16.4803 16.8199 14.9256 16.6979 13.5673 15.9763C12.7926 15.5624 12.1081 15.0053 11.3176 14.6286C11.3176 14.5065 11.3175 14.3845 11.291 14.2625C12.8828 14.862 14.0926 16.3848 15.8913 16.2946C17.0798 16.2257 17.6476 15.1114 18.47 14.3739L18.5973 14.5702Z" fill="#1C724B"/>
<path d="M22.2692 19.144C21.9475 19.4242 21.5908 19.6614 21.208 19.8497C19.7489 20.5235 18.1305 20.1044 16.6449 19.786C15.5571 19.5579 14.3315 19.3562 13.2809 19.8444C13.1851 19.8866 13.0929 19.9362 13.005 19.993L12.7131 19.8338C12.8696 19.7326 13.0347 19.6456 13.2066 19.5738C14.6127 18.9848 16.1302 19.3615 17.5522 19.664C18.6134 19.8921 19.7754 20.1044 20.826 19.7011C21.2682 19.5103 21.6754 19.2466 22.0304 18.9211L22.2692 19.144Z" fill="#1C724B"/>
<path d="M26.1478 22.6353C25.7017 22.9262 25.2225 23.163 24.7205 23.341C23.2349 23.8716 22.0676 22.9855 20.5819 22.9271C20.0727 22.9059 19.5652 22.9984 19.0962 23.1977L18.868 23.0757C19.7004 22.7036 20.6299 22.607 21.521 22.7998C22.5557 23.0226 23.4949 23.5214 24.572 23.1659C25.0501 22.9981 25.5007 22.7602 25.9091 22.4602L26.1478 22.6353Z" fill="#1C724B"/>
<path d="M19.6479 23.1181C19.5917 23.2543 19.5456 23.3944 19.51 23.5373C19.2022 24.7524 19.4675 26.1903 18.7619 27.3045C18.6077 27.5518 18.3989 27.7605 18.1516 27.9147C17.2443 28.4878 16.0293 28.0898 15.0105 27.6919C13.9918 27.2939 12.92 26.9968 11.8269 27.5964L11.6306 27.3417C12.0188 27.1221 12.4458 26.9797 12.8881 26.9225C13.7368 26.8909 14.5798 27.0734 15.3395 27.4531C16.1301 27.7609 17.117 28.1217 17.8439 27.7078C18.0624 27.5781 18.2448 27.3957 18.3745 27.1772C19.112 25.9993 18.7035 24.4181 19.181 23.1447C19.2104 23.0634 19.2441 22.9837 19.2818 22.9059L19.6479 23.1181Z" fill="#28847B"/>
<path d="M24.0201 25.4475C23.7548 26.1585 23.8662 26.9438 23.6912 27.676C23.4046 28.8805 22.3328 29.5119 21.1761 29.6923H21.0753C19.2501 29.9364 17.2709 29.3527 15.5783 30.3131C15.5027 30.3541 15.43 30.4002 15.3608 30.4511C15.1485 30.398 14.9522 30.3396 14.7665 30.276C13.9441 29.9735 12.9359 28.976 11.8535 27.5805C12.9147 26.981 13.9441 27.2622 15.0371 27.676C16.1301 28.0899 17.2709 28.4719 18.1782 27.8989C18.4255 27.7447 18.6342 27.536 18.7884 27.2887C19.4941 26.1904 19.2288 24.7365 19.5366 23.5215C19.5722 23.3785 19.6183 23.2384 19.6745 23.1023C21.1814 23.9513 22.6512 24.7471 24.0201 25.4475Z" fill="#116040"/>
<path d="M11.1797 18.0616C11.0258 18.5778 10.9524 19.1147 10.9622 19.6534C10.9626 20.0741 10.9091 20.4931 10.803 20.9003C10.769 21.0472 10.7041 21.1852 10.6126 21.305C10.5211 21.4249 10.4052 21.5238 10.2724 21.5954H9.33324C9.2101 21.499 9.10424 21.3824 9.02019 21.2505C8.91807 21.0974 8.82591 20.9379 8.74428 20.7729C8.42593 20.184 8.09695 19.6428 7.39125 19.4995C7.18418 19.4626 6.97222 19.4626 6.76515 19.4995C6.277 18.6134 5.81008 17.7379 5.36438 16.8996C5.62474 17.1595 5.95141 17.343 6.30884 17.4302C6.52401 17.4883 6.74997 17.4941 6.96783 17.4471C7.18569 17.4 7.3891 17.3014 7.56105 17.1596C7.89409 16.861 8.1553 16.491 8.32511 16.0771C9.22182 16.7404 10.1822 17.4036 11.1797 18.0616Z" fill="#14704D"/>
<path d="M14.8726 20.3802C14.273 21.0435 14.0714 22.094 13.9706 23.0703C13.9437 23.4055 13.8958 23.7387 13.8273 24.0679C13.7617 24.4192 13.6284 24.7544 13.4347 25.0548C13.33 25.2333 13.1854 25.3852 13.0123 25.4986C12.8392 25.612 12.6422 25.6839 12.4367 25.7085C12.2312 25.7332 12.0228 25.71 11.8277 25.6408C11.6327 25.5715 11.4563 25.4582 11.3123 25.3095C10.718 24.7258 10.283 23.9671 9.35971 23.9299C8.53198 22.6034 7.70954 21.1814 6.92957 19.77C7.46016 19.7117 7.9271 20.1998 8.18178 20.6402C8.48953 21.1708 8.71238 21.8287 9.3544 22.0251C9.60471 22.089 9.86758 22.0849 10.1157 22.013C10.3639 21.9412 10.5883 21.8043 10.7658 21.6165C10.8955 21.4911 11.0047 21.346 11.0894 21.1867C11.3501 20.5109 11.4658 19.7878 11.429 19.0643C11.4381 18.7955 11.4773 18.5285 11.5458 18.2684C12.6229 19.0007 13.7424 19.7064 14.8726 20.3802Z" fill="#14704D"/>
<path d="M8.00676 15.8595L7.97493 15.9391C7.9039 16.1232 7.81691 16.3008 7.71494 16.4697C7.62487 16.6389 7.50226 16.7885 7.35414 16.9101C7.24663 16.9811 7.12561 17.029 6.99868 17.0509C6.87176 17.0728 6.74167 17.0683 6.6166 17.0375C5.85785 16.9473 5.55541 16.5069 5.11502 15.9126C4.92767 15.6495 4.71629 15.4044 4.4836 15.1804C3.27915 12.8139 2.31345 10.787 2.12244 10.3732L2.49916 10.8666C4.12272 12.7511 5.97256 14.4281 8.00676 15.8595V15.8595Z" fill="#14704D"/>
<path d="M19.2925 22.9219C19.2548 22.9996 19.2211 23.0793 19.1917 23.1606C18.7142 24.4341 19.1227 26.0152 18.3852 27.1932C18.2555 27.4117 18.0731 27.5941 17.8546 27.7238C17.1277 28.1376 16.1407 27.7768 15.3502 27.4691C14.5905 27.0894 13.7475 26.9069 12.8988 26.9385C12.4565 26.9957 12.0295 27.1381 11.6413 27.3577C10.9409 26.4344 10.214 25.352 9.48706 24.1741C9.60436 24.2248 9.71633 24.287 9.82134 24.3598C10.4899 24.8161 10.8348 25.7075 11.6625 25.9516C11.9669 26.0126 12.2813 26.0027 12.5813 25.9227C12.8812 25.8426 13.1587 25.6946 13.3923 25.4899C13.7545 25.2017 14.0224 24.8119 14.1616 24.3704C14.3143 23.8682 14.4087 23.3501 14.4428 22.8263C14.4711 22.0104 14.7047 21.2147 15.122 20.5129C16.5016 21.3513 17.9183 22.1631 19.2925 22.9219Z" fill="#116040"/>
<path d="M31.0505 28.9069C31.0505 28.9069 27.0764 29.8408 22.9059 30.3661C20.2847 30.7003 17.5999 30.8967 15.7428 30.5412C16.7403 29.9363 18.0031 30.0106 19.1333 30.0106C19.9539 30.0581 20.7772 30.0047 21.5847 29.8514C22.3231 29.7071 22.9982 29.3361 23.5161 28.7902C23.9738 28.2391 24.2302 27.5486 24.243 26.8323C24.2643 26.4353 24.3301 26.042 24.4393 25.6597C28.2808 27.6653 31.0505 28.9069 31.0505 28.9069Z" fill="#116040"/>
<path d="M8.32512 16.0771C8.16132 16.4932 7.90556 16.8668 7.57697 17.1701C7.40503 17.312 7.20162 17.4105 6.98376 17.4576C6.7659 17.5047 6.53993 17.4989 6.32477 17.4407C5.96734 17.3536 5.64066 17.1701 5.38031 16.9101C5.07256 16.3212 4.78073 15.7481 4.49951 15.2069C4.73513 15.4254 4.95004 15.6652 5.14153 15.9232C5.56601 16.5016 5.88436 16.9579 6.64311 17.0481C6.76819 17.0789 6.89829 17.0834 7.02521 17.0615C7.15214 17.0396 7.27315 16.9917 7.38065 16.9207C7.52877 16.7992 7.65139 16.6495 7.74146 16.4803C7.84342 16.3114 7.93043 16.1339 8.00146 15.9497L8.03329 15.8702L8.32512 16.0771Z" fill="#28847B"/>
<path d="M11.5352 18.295C11.4667 18.5551 11.4276 18.8221 11.4185 19.0909C11.4553 19.8143 11.3396 20.5374 11.0789 21.2133C10.9942 21.3726 10.8849 21.5176 10.7552 21.6431C10.5778 21.8309 10.3534 21.9678 10.1052 22.0396C9.85703 22.1114 9.59416 22.1156 9.34385 22.0516C8.71244 21.8553 8.47896 21.1921 8.17122 20.6668C7.91653 20.2264 7.47614 19.7382 6.91901 19.7966L6.76514 19.5207C6.9722 19.4837 7.18417 19.4837 7.39124 19.5207C8.09693 19.6639 8.42591 20.2052 8.74427 20.7941C8.8259 20.9591 8.91805 21.1186 9.02018 21.2717C9.10423 21.4035 9.21008 21.5202 9.33323 21.6165H10.2724C10.4051 21.545 10.5211 21.446 10.6126 21.3262C10.7041 21.2063 10.769 21.0684 10.803 20.9215C10.909 20.5143 10.9625 20.0953 10.9622 19.6746C10.9524 19.1359 11.0258 18.599 11.1797 18.0828L11.5352 18.295Z" fill="#28847B"/>
<path d="M15.0955 20.5129C14.6782 21.2147 14.4446 22.0104 14.4163 22.8264C14.3822 23.3501 14.2878 23.8682 14.1351 24.3704C14.0056 24.8028 13.753 25.1881 13.4082 25.4793C13.1747 25.6839 12.8972 25.832 12.5972 25.9121C12.2972 25.9921 11.9829 26.002 11.6785 25.941C10.8507 25.7128 10.5058 24.8214 9.83728 24.3492C9.73227 24.2764 9.62029 24.2142 9.503 24.1635V24.1635C9.44994 24.0839 9.40218 23.999 9.34912 23.9141C10.2724 23.9512 10.7074 24.71 11.3017 25.2936C11.4457 25.4423 11.6221 25.5557 11.8171 25.6249C12.0122 25.6942 12.2206 25.7174 12.4261 25.6927C12.6316 25.668 12.8286 25.5962 13.0017 25.4828C13.1749 25.3694 13.3194 25.2175 13.4241 25.0389C13.6178 24.7386 13.7512 24.4034 13.8168 24.052C13.8853 23.7228 13.9331 23.3897 13.96 23.0545C14.0608 22.0782 14.2625 21.0276 14.862 20.3644L15.0955 20.5129Z" fill="#28847B"/>
<path d="M24.4234 25.6598C24.3143 26.0421 24.2484 26.4354 24.2271 26.8324C24.2249 27.5559 23.9739 28.2566 23.5161 28.8168C22.9983 29.3628 22.3232 29.7337 21.5847 29.878C20.7772 30.0313 19.9539 30.0848 19.1334 30.0372C18.0032 30.0372 16.7404 29.9523 15.7429 30.5678L15.3608 30.4935C15.4301 30.4426 15.5028 30.3965 15.5784 30.3556C17.271 29.3952 19.2501 29.9788 21.0754 29.7348H21.1762C22.3329 29.5544 23.4047 28.923 23.6912 27.7185C23.8663 26.9863 23.7549 26.201 24.0202 25.49L24.4234 25.6598Z" fill="#28847B"/>
<path opacity="0.54" d="M31.0506 28.9069C31.0506 28.9069 27.0764 29.8408 22.9059 30.3661C21.1805 29.8407 19.5632 29.0104 18.1306 27.9147C15.7641 26.1531 13.0421 23.3516 11.0577 21.1867C7.9749 17.7219 5.61905 14.931 2.48853 10.8772C5.26355 14.3473 11.0418 18.0827 14.8621 20.3802C20.2636 23.5956 26.8323 26.9755 31.0506 28.9069Z" fill="#0B422A"/>
<path d="M42.6176 8.29321C42.6176 8.29321 42.8139 20.1468 38.7655 23.4206C34.717 26.6943 30.8967 25.7233 30.8967 25.7233C30.8967 25.7233 40.8773 16.1991 42.6176 8.29321Z" fill="#0F5E3E"/>
<path d="M27.5328 3.11987C27.5328 3.11987 18.5444 11.116 21.5264 21.1973C24.5083 31.2787 29.9204 33.0191 29.9204 33.0191L33.9424 33.3958C33.9424 33.3958 23.6116 11.3707 27.5328 3.11987Z" fill="#248E63"/>
<path d="M28.4187 2.62646C28.4187 2.62646 31.6713 10.3785 31.9897 14.8939C32.308 19.4093 27.3841 29.6551 27.3841 29.6551H22.8528C22.8528 29.6551 30.7003 7.14716 28.4187 2.62646Z" fill="#14704D"/>
<path d="M30.5359 23.1978C30.5937 23.3315 30.6399 23.47 30.6738 23.6116C30.9604 24.8373 30.6738 26.2646 31.3689 27.3895C31.5157 27.6415 31.7192 27.8559 31.9632 28.0156C32.8652 28.594 34.0856 28.2119 35.1149 27.8352C36.1443 27.4585 37.2108 27.1666 38.2667 27.7821L38.463 27.5275C38.0784 27.3023 37.6527 27.1562 37.2108 27.0977C36.3644 27.0504 35.5197 27.2164 34.7541 27.5805C33.9583 27.883 32.9713 28.2278 32.2497 27.8034C32.0295 27.676 31.8465 27.493 31.7191 27.2728C30.9975 26.0895 31.4273 24.5137 30.9657 23.2296C30.938 23.1484 30.9061 23.0687 30.8702 22.9908L30.5359 23.1978Z" fill="#28847B"/>
<path d="M26.1372 25.4633C26.3866 26.1796 26.2699 26.9596 26.4343 27.6918C26.6996 28.9016 27.7661 29.5489 28.9175 29.7453H29.0183C30.8383 30.0212 32.828 29.4587 34.51 30.4456L34.7223 30.5836C34.924 30.5428 35.1226 30.4878 35.3165 30.4191C36.1443 30.1273 37.163 29.1457 38.272 27.7661C37.2108 27.1506 36.1867 27.4159 35.1202 27.8192C34.0537 28.2224 32.8705 28.5779 31.9685 27.9996C31.7245 27.8399 31.521 27.6255 31.3742 27.3735C30.6844 26.2698 30.9656 24.8213 30.6791 23.5956C30.6452 23.454 30.599 23.3155 30.5412 23.1818C29.0183 24.0201 27.5008 24.7789 26.1372 25.4633Z" fill="#116040"/>
<path d="M39.0997 18.2578C39.2439 18.7757 39.31 19.3122 39.2961 19.8496C39.2908 20.2676 39.3371 20.6846 39.434 21.0912C39.4659 21.241 39.5298 21.3821 39.6214 21.5048C39.713 21.6276 39.8301 21.729 39.9646 21.8022L40.9038 21.8341C41.0259 21.7371 41.1332 21.6227 41.2221 21.4945C41.3242 21.3432 41.4164 21.1855 41.498 21.0223C41.827 20.4386 42.1613 19.8974 42.8723 19.7647C43.0775 19.7275 43.2878 19.7275 43.4931 19.7647C43.9971 18.884 44.48 18.0138 44.931 17.1807C44.6716 17.442 44.3446 17.6257 43.9865 17.7113C43.7698 17.7685 43.5424 17.7718 43.3242 17.7209C43.1059 17.67 42.9034 17.5666 42.7343 17.4195C42.4106 17.1133 42.1602 16.7378 42.0021 16.3212C41.0576 16.9685 40.0813 17.6158 39.0997 18.2578Z" fill="#14704D"/>
<path d="M35.3484 20.5236C35.9374 21.1974 36.1284 22.248 36.2133 23.2296C36.2451 23.5586 36.2769 23.8982 36.3406 24.2271C36.4058 24.5786 36.5353 24.915 36.7226 25.2194C36.8242 25.4006 36.9667 25.5557 37.1387 25.6724C37.3106 25.789 37.5074 25.8639 37.7134 25.8912C37.9194 25.9185 38.129 25.8974 38.3254 25.8296C38.5218 25.7618 38.6997 25.6491 38.845 25.5006C39.4499 24.9275 39.9062 24.1741 40.8189 24.1528C41.6625 22.837 42.5115 21.4256 43.3074 20.0301C42.7768 19.9611 42.3045 20.444 42.0445 20.8791C41.7315 21.4097 41.4874 22.0623 40.8507 22.248C40.5993 22.3089 40.3362 22.3012 40.0888 22.2256C39.8414 22.15 39.619 22.0093 39.4446 21.8182C39.3168 21.6904 39.2094 21.5436 39.1262 21.3831C38.8762 20.705 38.7714 19.9819 38.8185 19.2607C38.8129 18.9923 38.7773 18.7254 38.7124 18.4648C37.6193 19.1758 36.4892 19.8603 35.3484 20.5236Z" fill="#14704D"/>
<path d="M42.2833 16.0984L42.3152 16.1833C42.3877 16.3658 42.4728 16.5431 42.5699 16.7139C42.6581 16.8842 42.7789 17.0356 42.9253 17.1596C43.0326 17.2311 43.1534 17.2798 43.2803 17.3026C43.4072 17.3255 43.5374 17.3219 43.6629 17.2922C44.4216 17.2179 44.7241 16.7616 45.1751 16.1886C45.3659 15.9283 45.5789 15.685 45.8118 15.4617C47.0109 13.1907 47.8864 11.4132 48.157 10.8614C48.2048 10.7606 48.2313 10.7022 48.2419 10.6863V10.7128C48.2242 10.7388 48.2047 10.7637 48.1836 10.7871C48.1093 10.8826 48.035 10.9834 47.9501 11.0789L47.8811 11.1744C46.2264 13.0414 44.3461 14.6954 42.2833 16.0984Z" fill="#14704D"/>
<path d="M30.8967 23.0014C30.9327 23.0793 30.9645 23.159 30.9922 23.2402C31.4539 24.5242 31.0241 26.1001 31.7457 27.2834C31.8731 27.5036 32.056 27.6866 32.2763 27.8139C32.9979 28.2384 33.9848 27.8935 34.7807 27.5911C35.5462 27.227 36.391 27.061 37.2374 27.1083C37.6792 27.1667 38.1049 27.3129 38.4896 27.538C39.1794 26.6042 39.9222 25.543 40.6916 24.4022C40.575 24.4501 40.463 24.5087 40.3573 24.5773C39.6781 25.0283 39.3226 25.9144 38.4896 26.132C38.1848 26.1886 37.871 26.174 37.5728 26.0893C37.2746 26.0047 37 25.8522 36.7704 25.6438C36.432 25.3478 36.1853 24.9612 36.0594 24.5295C35.9171 24.024 35.8299 23.5045 35.7994 22.9802C35.7828 22.1617 35.5602 21.3606 35.1521 20.6509C33.7089 21.4733 32.2816 22.2639 30.8967 23.0014Z" fill="#116040"/>
<path d="M19.0591 28.8221C19.0591 28.8221 23.0173 29.8143 27.1772 30.4138C29.7984 30.78 32.4832 30.9922 34.3403 30.6898C33.3481 30.069 32.0852 30.1114 30.9551 30.122C30.1348 30.1546 29.3136 30.0886 28.509 29.9257C27.7754 29.7806 27.1056 29.4095 26.5936 28.8645C26.1399 28.2995 25.8978 27.5939 25.9091 26.8695C25.8923 26.4714 25.8318 26.0764 25.7287 25.6915C21.8447 27.5964 19.0591 28.8221 19.0591 28.8221Z" fill="#116040"/>
<path d="M41.9756 16.3159C42.1337 16.7325 42.384 17.108 42.7078 17.4142C42.8769 17.5613 43.0794 17.6648 43.2977 17.7156C43.5159 17.7665 43.7433 17.7632 43.96 17.7061C44.3181 17.6205 44.6451 17.4367 44.9045 17.1755C45.2228 16.5918 45.5253 16.0241 45.8118 15.4882C45.5773 15.7096 45.3625 15.9511 45.1698 16.2098C44.7347 16.7828 44.4163 17.2391 43.6576 17.3134C43.5321 17.3431 43.4019 17.3467 43.275 17.3238C43.1481 17.301 43.0273 17.2523 42.92 17.1808C42.7736 17.0568 42.6528 16.9054 42.5645 16.7351C42.4675 16.5643 42.3824 16.387 42.3098 16.2045L42.2833 16.0983L41.9756 16.3159Z" fill="#28847B"/>
<path d="M38.7177 18.486C38.7826 18.7465 38.8182 19.0134 38.8238 19.2819C38.7767 20.0031 38.8815 20.7261 39.1315 21.4043C39.2147 21.5648 39.3221 21.7115 39.4499 21.8394C39.6242 22.0304 39.8467 22.1711 40.0941 22.2467C40.3414 22.3223 40.6046 22.3301 40.856 22.2691C41.4927 22.0834 41.7368 21.4202 42.0498 20.9002C42.3098 20.4651 42.7608 19.9823 43.3126 20.0512L43.4665 19.7753C43.2612 19.7381 43.051 19.7381 42.8457 19.7753C42.1347 19.908 41.7845 20.4492 41.4715 21.0328C41.3898 21.1961 41.2977 21.3538 41.1955 21.5051C41.1066 21.6333 40.9994 21.7477 40.8772 21.8447L39.938 21.8128C39.8035 21.7396 39.6865 21.6382 39.5949 21.5154C39.5033 21.3927 39.4393 21.2516 39.4074 21.1018C39.3105 20.6952 39.2642 20.2782 39.2695 19.8602C39.2835 19.3228 39.2173 18.7863 39.0732 18.2684L38.7177 18.486Z" fill="#28847B"/>
<path d="M35.1255 20.6509C35.5336 21.3606 35.7562 22.1617 35.7728 22.9802C35.8033 23.5045 35.8905 24.024 36.0328 24.5296C36.1586 24.9612 36.4053 25.3479 36.7438 25.6438C36.9733 25.8522 37.2479 26.0047 37.5462 26.0894C37.8444 26.174 38.1581 26.1886 38.4629 26.132C39.296 25.9144 39.6515 25.0283 40.3307 24.5773C40.4364 24.5087 40.5483 24.4501 40.6649 24.4022C40.7127 24.3173 40.7657 24.2377 40.8188 24.1528C39.8956 24.1528 39.4498 24.9275 38.845 25.5006C38.6997 25.6491 38.5218 25.7618 38.3253 25.8296C38.1289 25.8974 37.9194 25.9185 37.7134 25.8912C37.5074 25.8639 37.3106 25.789 37.1386 25.6724C36.9666 25.5557 36.8242 25.4006 36.7226 25.2193C36.5352 24.915 36.4057 24.5786 36.3405 24.2271C36.2769 23.8982 36.245 23.5586 36.2132 23.2296C36.1283 22.248 35.9373 21.1974 35.3483 20.5236L35.1255 20.6509Z" fill="#28847B"/>
<path d="M25.7286 25.6651C25.8317 26.0499 25.8922 26.4449 25.9091 26.843C25.8978 27.5674 26.1399 28.2731 26.5935 28.838C27.1056 29.3831 27.7754 29.7542 28.509 29.8992C29.3136 30.0622 30.1348 30.1281 30.955 30.0956C32.0852 30.0956 33.348 30.0425 34.3402 30.6633L34.7223 30.589L34.51 30.4511C32.828 29.4642 30.8383 30.0266 29.0184 29.7507H28.9175C27.7661 29.5544 26.6996 28.907 26.4343 27.6973C26.2699 26.965 26.3866 26.1851 26.1372 25.4688L25.7286 25.6651Z" fill="#28847B"/>
<path opacity="0.54" d="M19.0591 28.8221C19.0591 28.8221 23.0173 29.8143 27.1772 30.4139C27.607 30.2706 28.0474 30.1114 28.509 29.9257C28.6417 29.878 28.7796 29.8196 28.9176 29.7612L29.48 29.5278C30.3588 29.1192 31.1913 28.6176 31.9632 28.0315L32.255 27.8193C33.5747 26.7997 34.836 25.7067 36.0329 24.5455L36.3406 24.243C37.2745 23.3357 38.2137 22.3753 39.1316 21.399L39.4128 21.0966C40.5642 19.8656 41.6785 18.6187 42.7078 17.4302L42.9201 17.1914C45.2388 14.5013 47.0906 12.1825 47.8599 11.2115C46.2096 13.0641 44.3365 14.7055 42.2833 16.0984L41.9809 16.3159C41.063 16.9685 40.0867 17.6159 39.0838 18.2579L38.723 18.486C37.6247 19.1811 36.4945 19.8603 35.3537 20.5235L35.1309 20.6509C33.7142 21.4733 32.2869 22.2427 30.8861 23.0014L30.5253 23.1978C28.9813 24.0202 27.4903 24.7895 26.1266 25.4634L25.7181 25.665C21.8447 27.5964 19.0591 28.8221 19.0591 28.8221Z" fill="#0B422A"/>
<path d="M30.5305 23.1924C30.5891 23.3258 30.6353 23.4644 30.6685 23.6063C30.955 24.8319 30.6685 26.2593 31.3529 27.3841C31.5017 27.6364 31.7069 27.8507 31.9525 28.0102C32.8492 28.5939 34.0749 28.2172 35.099 27.8404C36.123 27.4637 37.2213 27.1719 38.2825 27.7874L38.4842 27.5327C38.0998 27.3059 37.6741 27.158 37.232 27.0976C36.3839 27.0508 35.5376 27.2167 34.77 27.5804C33.9794 27.8776 32.9872 28.2225 32.2656 27.7927C32.0541 27.6628 31.8804 27.4799 31.7615 27.2621C31.0399 26.0735 31.475 24.4977 31.0134 23.2136C30.988 23.1316 30.9561 23.0517 30.9178 22.9749L30.5305 23.1924Z" fill="#28847B"/>
<path d="M26.1266 25.4475C26.376 26.1638 26.2592 26.9438 26.4184 27.6813C26.6837 28.8911 27.7502 29.5384 28.9016 29.7348H29.0024C30.8224 30.0107 32.8121 29.4535 34.4888 30.4458C34.5627 30.4867 34.6336 30.5328 34.701 30.5837C34.9039 30.5404 35.1041 30.4855 35.3006 30.4192C36.1231 30.1274 37.1471 29.1511 38.2561 27.7662C37.1949 27.1507 36.1708 27.416 35.0725 27.8193C33.9741 28.2226 32.8227 28.5728 31.926 27.9891C31.6805 27.8295 31.4752 27.6152 31.3265 27.363C30.642 26.2593 30.9285 24.8108 30.642 23.5851C30.6088 23.4432 30.5626 23.3047 30.504 23.1713C28.9865 24.0096 27.4955 24.7684 26.1266 25.4475Z" fill="#116040"/>
<path d="M39.0997 18.2685C39.2445 18.7862 39.3089 19.3231 39.2907 19.8603C39.2857 20.28 39.332 20.6988 39.4287 21.1072C39.4613 21.2561 39.5256 21.3961 39.6171 21.5179C39.7087 21.6397 39.8254 21.7403 39.9593 21.8129L40.8985 21.8501C41.0232 21.7538 41.1308 21.6372 41.2168 21.5052C41.3225 21.357 41.4165 21.2009 41.498 21.0383C41.827 20.4546 42.1666 19.9134 42.8723 19.7807C43.0791 19.7408 43.2916 19.7408 43.4984 19.7807C44.0025 18.8999 44.4853 18.0298 44.9416 17.1967C44.682 17.4605 44.3525 17.6446 43.9918 17.7273C43.7755 17.7838 43.5486 17.7872 43.3307 17.7374C43.1127 17.6875 42.9099 17.5858 42.7396 17.4408C42.417 17.1326 42.1684 16.7553 42.0127 16.3372C41.0629 16.9792 40.0866 17.6265 39.0997 18.2685Z" fill="#14704D"/>
<path d="M35.3536 20.5236C35.9373 21.1974 36.1283 22.2533 36.2132 23.2349C36.2329 23.5697 36.2737 23.9028 36.3352 24.2324C36.398 24.5846 36.5276 24.9214 36.7173 25.2247C36.8176 25.4072 36.9593 25.5636 37.1311 25.6815C37.3028 25.7993 37.4998 25.8752 37.7062 25.903C37.9126 25.9309 38.1227 25.91 38.3195 25.8419C38.5164 25.7738 38.6945 25.6606 38.8397 25.5112C39.4499 24.9381 39.9009 24.1847 40.8188 24.1688C41.6677 22.8529 42.5114 21.4415 43.3126 20.046C42.782 19.9771 42.3098 20.4599 42.0498 20.895C41.7314 21.4256 41.4926 22.0782 40.8506 22.2639C40.5995 22.3221 40.3375 22.3124 40.0914 22.236C39.8452 22.1595 39.6238 22.019 39.4499 21.8288C39.322 21.701 39.2147 21.5543 39.1315 21.3938C38.8806 20.7159 38.7775 19.9923 38.829 19.2714C38.8209 19.0031 38.7853 18.7365 38.7229 18.4755C37.6246 19.1759 36.4891 19.8656 35.3536 20.5236Z" fill="#14704D"/>
<path d="M42.2833 16.1196L42.3152 16.1992C42.3835 16.3836 42.4688 16.5612 42.5699 16.7298C42.6582 16.8986 42.7769 17.0497 42.92 17.1755C43.0276 17.2466 43.1482 17.2954 43.2749 17.3191C43.4015 17.3427 43.5317 17.3408 43.6576 17.3135C44.4163 17.2392 44.7188 16.7829 45.1751 16.2098C45.3662 15.9499 45.5812 15.7083 45.8171 15.4882C47.0216 13.2173 47.897 11.4451 48.1677 10.8932L48.2525 10.7181L48.1995 10.7924L47.966 11.0896L47.8917 11.1798C46.233 13.0512 44.3492 14.7104 42.2833 16.1196V16.1196Z" fill="#14704D"/>
<path d="M30.8914 22.9961C30.9296 23.073 30.9615 23.1529 30.9869 23.2349C31.4485 24.519 31.0134 26.0948 31.735 27.2834C31.8539 27.5012 32.0276 27.6841 32.2391 27.814C32.9607 28.2437 33.9529 27.8989 34.7435 27.6017C35.5111 27.238 36.3574 27.072 37.2055 27.1189C37.6476 27.1793 38.0733 27.3272 38.4577 27.554C39.1687 26.6413 39.9115 25.5748 40.6597 24.4288C40.5412 24.4785 40.4276 24.5389 40.3201 24.6092C39.6462 25.0549 39.2854 25.941 38.4524 26.1585C38.148 26.2144 37.8348 26.199 37.5374 26.1133C37.24 26.0277 36.9666 25.8743 36.7385 25.665C36.3973 25.3683 36.1486 24.9797 36.0222 24.5455C35.88 24.0403 35.7963 23.5204 35.7729 22.9961C35.757 22.1792 35.5343 21.3796 35.1255 20.6721C33.7088 21.4733 32.2815 22.2586 30.8914 22.9961Z" fill="#116040"/>
<path d="M19.0431 28.7902C19.0431 28.7902 23.0013 29.793 27.1612 30.382C29.7771 30.7587 32.4672 30.971 34.319 30.6738C33.3321 30.053 32.064 30.0902 30.9391 30.1008C30.1188 30.1333 29.2976 30.0674 28.493 29.9045C27.7602 29.7574 27.0909 29.3866 26.5776 28.8433C26.1254 28.2778 25.8852 27.5721 25.8984 26.8482C25.8816 26.4502 25.8211 26.0551 25.718 25.6703C21.8287 27.5698 19.0431 28.7902 19.0431 28.7902Z" fill="#116040"/>
<path d="M41.9861 16.3318C42.1418 16.7499 42.3904 17.1272 42.713 17.4354C42.8833 17.5804 43.086 17.6821 43.304 17.732C43.522 17.7819 43.7488 17.7784 43.9652 17.7219C44.3259 17.6392 44.6554 17.4551 44.915 17.1913L45.8223 15.504C45.5864 15.7241 45.3714 15.9657 45.1803 16.2256C44.7452 16.7987 44.4215 17.255 43.6628 17.3293C43.5369 17.3567 43.4067 17.3586 43.2801 17.3349C43.1534 17.3112 43.0327 17.2624 42.9252 17.1913C42.7821 17.0656 42.6634 16.9145 42.575 16.7456C42.4739 16.577 42.3887 16.3994 42.3204 16.215L42.2885 16.1354L41.9861 16.3318Z" fill="#28847B"/>
<path d="M38.723 18.4967C38.7854 18.7577 38.821 19.0243 38.8291 19.2926C38.7776 20.0135 38.8807 20.7371 39.1316 21.415C39.2147 21.5755 39.3221 21.7222 39.4499 21.85C39.6239 22.0402 39.8453 22.1807 40.0914 22.2572C40.3376 22.3336 40.5996 22.3433 40.8507 22.2851C41.4927 22.0994 41.7315 21.4362 42.0499 20.9162C42.3099 20.4811 42.7609 19.9983 43.3127 20.0672L43.4719 19.7966C43.2651 19.7567 43.0526 19.7567 42.8458 19.7966C42.1401 19.9293 41.7846 20.4705 41.4715 21.0541C41.39 21.2168 41.296 21.3729 41.1903 21.5211C41.1043 21.6531 40.9967 21.7697 40.8719 21.866L39.9328 21.8288C39.7989 21.7562 39.6822 21.6555 39.5906 21.5338C39.499 21.412 39.4348 21.2719 39.4022 21.1231C39.3055 20.7147 39.2592 20.2959 39.2642 19.8762C39.2824 19.339 39.218 18.8021 39.0732 18.2844L38.723 18.4967Z" fill="#28847B"/>
<path d="M35.1255 20.6562C35.5342 21.3637 35.7569 22.1633 35.7728 22.9802C35.7963 23.5045 35.8799 24.0244 36.0222 24.5296C36.1486 24.9638 36.3972 25.3524 36.7385 25.6491C36.9665 25.8583 37.24 26.0118 37.5374 26.0974C37.8348 26.1831 38.148 26.1985 38.4523 26.1426C39.2854 25.925 39.6462 25.0389 40.32 24.5932C40.4275 24.523 40.5412 24.4626 40.6596 24.4128L40.8188 24.1688C39.8956 24.1688 39.4499 24.9381 38.8397 25.5112C38.6945 25.6606 38.5164 25.7738 38.3196 25.8419C38.1227 25.9099 37.9126 25.9309 37.7062 25.903C37.4998 25.8751 37.3028 25.7993 37.1311 25.6814C36.9593 25.5636 36.8176 25.4072 36.7173 25.2247C36.5277 24.9214 36.398 24.5846 36.3353 24.2324C36.2737 23.9028 36.2329 23.5697 36.2132 23.2349C36.1283 22.2533 35.9373 21.1974 35.3536 20.5236L35.1255 20.6562Z" fill="#28847B"/>
<path d="M25.718 25.6491C25.8211 26.034 25.8816 26.429 25.8984 26.8271C25.8852 27.5509 26.1255 28.2567 26.5776 28.8221C27.0909 29.3655 27.7602 29.7362 28.493 29.8833C29.2976 30.0463 30.1188 30.1122 30.9391 30.0796C32.064 30.0796 33.3321 30.0319 34.319 30.6527L34.701 30.5837C34.6336 30.5328 34.5627 30.4867 34.4888 30.4457C32.8121 29.4535 30.8224 30.0107 29.0024 29.7347H28.9016C27.7502 29.5384 26.6837 28.8911 26.4184 27.6813C26.2592 26.9438 26.376 26.1638 26.1266 25.4475L25.718 25.6491Z" fill="#28847B"/>
<path opacity="0.54" d="M19.0431 28.7902C19.0431 28.7902 23.0013 29.793 27.1612 30.382C29.671 29.549 31.597 28.7637 36.0222 24.5454C40.2543 20.3605 44.2136 15.9085 47.8758 11.2168C45.6632 13.8963 41.6625 16.6448 38.723 18.4913C32.3965 22.3531 25.8223 25.7935 19.0431 28.7902V28.7902Z" fill="#0B422A"/>
<path d="M25.3519 21.4362C25.2235 21.509 25.1027 21.5943 24.9911 21.6908C24.0201 22.4867 23.3728 23.8132 22.1524 24.2749C21.8814 24.3832 21.5893 24.4286 21.2981 24.4075C20.237 24.3226 19.4729 23.272 18.8998 22.3594C18.3268 21.4468 17.637 20.5554 16.4272 20.4015C16.4272 20.3007 16.4272 20.1892 16.4272 20.0831C16.87 20.1352 17.2977 20.2759 17.6848 20.497C18.3836 20.9681 18.9514 21.6089 19.3349 22.3594C19.7859 23.0757 20.3643 23.9512 21.1973 24.0467C21.4408 24.0737 21.6871 24.0391 21.9136 23.9459C23.2083 23.4153 23.8185 21.919 24.9646 21.1815C25.0365 21.135 25.1109 21.0925 25.1874 21.0541L25.3519 21.4362Z" fill="#28847B"/>
<path d="M27.4849 25.9091C26.8482 26.323 26.4715 27.0181 25.8932 27.5009C24.9487 28.3021 23.7124 28.196 22.6512 27.6336L22.5663 27.5858C20.948 26.6997 19.7064 25.0495 17.7909 24.8161H17.5362C17.4024 24.6594 17.2784 24.4946 17.1648 24.3226C16.682 23.5957 16.4644 22.2002 16.422 20.4227C17.6318 20.5766 18.2897 21.4096 18.8946 22.3806C19.4995 23.3516 20.2264 24.3438 21.2929 24.4287C21.584 24.4498 21.8761 24.4045 22.1471 24.2961C23.3675 23.8345 24.0148 22.508 24.9858 21.7121C25.0974 21.6155 25.2183 21.5302 25.3466 21.4574C26.0842 23.028 26.8111 24.5349 27.4849 25.9091Z" fill="#116040"/>
<path d="M21.5476 12.3364C21.122 12.6577 20.7465 13.0404 20.4333 13.4719C20.188 13.8189 19.8971 14.1312 19.5685 14.4005C19.4538 14.4999 19.3192 14.5737 19.1737 14.6167C19.0281 14.6597 18.8751 14.671 18.7248 14.6498C18.4701 14.4694 18.1942 14.2837 17.9554 14.1193C17.9177 13.9667 17.9034 13.8092 17.913 13.6523C17.9225 13.4745 17.942 13.2974 17.9713 13.1217C18.0669 12.4585 18.1252 11.8271 17.6424 11.2965C17.5037 11.1389 17.3362 11.0092 17.1489 10.9144C17.2816 9.91161 17.4248 8.9247 17.5681 7.99084C17.6164 8.3567 17.7651 8.70201 17.9979 8.98837C18.1364 9.16444 18.3153 9.30458 18.5194 9.39693C18.7235 9.48929 18.9468 9.53114 19.1705 9.51897C19.6133 9.47182 20.0396 9.32488 20.4174 9.08918C20.757 10.1132 21.139 11.2169 21.5476 12.3364Z" fill="#14704D"/>
<path d="M23.1394 16.3955C22.2639 16.5759 21.4787 17.2975 20.8154 18.0244C20.5951 18.2774 20.3594 18.5167 20.1097 18.7407C19.8466 18.9853 19.5384 19.1763 19.2024 19.3032C19.0116 19.3865 18.8041 19.4242 18.5962 19.4131C18.3883 19.4021 18.1859 19.3427 18.005 19.2397C17.8242 19.1366 17.6699 18.9927 17.5544 18.8195C17.439 18.6463 17.3655 18.4486 17.34 18.242C17.2073 17.4195 17.3082 16.5494 16.5865 15.9763C16.7086 14.4164 16.8943 12.7927 17.1171 11.2009C17.6 11.4821 17.6477 12.1401 17.6053 12.6442C17.5416 13.2437 17.3347 13.9229 17.7273 14.4588C17.8892 14.6621 18.1024 14.8184 18.3449 14.9117C18.5875 15.005 18.8505 15.0318 19.1069 14.9894C19.2906 14.9655 19.4695 14.9136 19.6375 14.8355C20.2402 14.4522 20.7569 13.9482 21.155 13.3552C21.3237 13.1449 21.514 12.9528 21.7227 12.7821C22.1472 13.9494 22.6513 15.1804 23.1394 16.3955Z" fill="#14704D"/>
<path d="M20.306 8.68063L20.2317 8.72838C20.0622 8.83391 19.8848 8.92616 19.7011 9.00429C19.5339 9.08245 19.3544 9.13093 19.1705 9.14755C19.0419 9.13898 18.9164 9.10448 18.8015 9.04612C18.6866 8.98776 18.5847 8.90675 18.502 8.80797C17.9448 8.27737 17.9714 7.74678 17.9714 7.00925C17.9731 6.68762 17.9483 6.3664 17.8971 6.04886C18.3163 3.51261 18.6983 1.57062 18.815 0.965738C18.815 0.859618 18.8522 0.795947 18.8575 0.780029V0.811864C18.8548 0.843644 18.8548 0.875591 18.8575 0.907372C18.8575 1.0241 18.8575 1.15145 18.8575 1.27879V1.39552C19.0395 3.87413 19.526 6.3209 20.306 8.68063V8.68063Z" fill="#14704D"/>
<path d="M25.1874 21.07C25.1109 21.1084 25.0365 21.151 24.9645 21.1974C23.8185 21.9349 23.2083 23.4524 21.9136 23.9618C21.6871 24.055 21.4408 24.0897 21.1973 24.0626C20.3643 23.9671 19.7859 23.0916 19.3349 22.3753C18.9507 21.6177 18.3789 20.9711 17.6741 20.497C17.287 20.2759 16.8594 20.1352 16.4166 20.0831C16.4166 18.9264 16.4591 17.6265 16.5652 16.2628C16.6276 16.3732 16.6808 16.4886 16.7244 16.6077C16.9897 17.3718 16.7244 18.295 17.255 18.9742C17.4659 19.2054 17.7275 19.3847 18.0193 19.498C18.3112 19.6112 18.6252 19.6553 18.937 19.6268C19.3878 19.5974 19.8206 19.439 20.1839 19.1705C20.6026 18.8586 20.9868 18.5028 21.33 18.1093C21.8365 17.4682 22.4973 16.9662 23.2507 16.6502C23.8715 18.1464 24.5295 19.6374 25.1874 21.07Z" fill="#116040"/>
<path d="M31.0824 32.8652C31.0824 32.8652 27.3311 31.2734 23.654 29.2041C21.3459 27.9095 19.0696 26.4397 17.7909 25.0867C18.9529 25.1928 19.9133 25.9887 20.8259 26.6785C21.4573 27.203 22.1505 27.6485 22.8899 28.005C23.5659 28.3298 24.3259 28.4374 25.0654 28.3127C25.7652 28.1319 26.3828 27.7184 26.8164 27.1401C27.0701 26.832 27.3585 26.5543 27.6759 26.3123C29.6073 30.2016 31.0824 32.8652 31.0824 32.8652Z" fill="#116040"/>
<path d="M20.4174 9.03603C20.0396 9.27172 19.6133 9.41867 19.1705 9.46581C18.9468 9.47799 18.7235 9.43613 18.5194 9.34378C18.3153 9.25142 18.1364 9.11129 17.9979 8.93522C17.7651 8.64886 17.6164 8.30355 17.5681 7.93769C17.6689 7.27975 17.7697 6.64303 17.8705 6.04346C17.9217 6.36099 17.9466 6.68221 17.9448 7.00384C17.9448 7.72545 17.9448 8.28258 18.4754 8.80257C18.5582 8.90134 18.6601 8.98235 18.775 9.04071C18.8899 9.09907 19.0154 9.13358 19.144 9.14215C19.3278 9.12552 19.5074 9.07704 19.6746 8.99889C19.8583 8.92075 20.0357 8.8285 20.2052 8.72298L20.2795 8.67522L20.4174 9.03603Z" fill="#28847B"/>
<path d="M21.6962 12.7343C21.4875 12.905 21.2972 13.0971 21.1284 13.3074C20.7303 13.9004 20.2136 14.4044 19.6109 14.7877C19.4429 14.8658 19.264 14.9177 19.0803 14.9416C18.824 14.984 18.5609 14.9572 18.3184 14.8639C18.0759 14.7706 17.8627 14.6143 17.7008 14.411C17.3081 13.8804 17.5151 13.1959 17.5787 12.5964C17.6318 12.0923 17.5787 11.4344 17.0906 11.1531C17.0906 11.047 17.1171 10.9462 17.133 10.8401C17.3203 10.9349 17.4878 11.0645 17.6265 11.2221C18.1093 11.7527 18.051 12.3841 17.9555 13.0474C17.9261 13.223 17.9066 13.4002 17.8971 13.578C17.8875 13.7349 17.9018 13.8923 17.9395 14.0449C18.1995 14.22 18.4701 14.4057 18.7089 14.5755C18.8592 14.5967 19.0122 14.5854 19.1578 14.5423C19.3033 14.4993 19.4379 14.4256 19.5526 14.3261C19.8798 14.0634 20.1706 13.7582 20.4174 13.4188C20.7306 12.9872 21.1061 12.6046 21.5317 12.2833L21.6962 12.7343Z" fill="#28847B"/>
<path d="M23.2402 16.6343C22.4845 16.9563 21.8234 17.4658 21.3195 18.1146C20.9763 18.5082 20.5921 18.8639 20.1734 19.1758C19.8101 19.4443 19.3773 19.6027 18.9265 19.6321C18.6182 19.6573 18.3083 19.6115 18.0204 19.4984C17.7326 19.3853 17.4744 19.2078 17.2657 18.9795C16.7351 18.3003 16.9898 17.3877 16.7351 16.613C16.6916 16.4939 16.6383 16.3786 16.5759 16.2681V16.2681C16.5759 16.1673 16.5759 16.0718 16.6025 15.9763C17.3241 16.5494 17.2233 17.4195 17.3559 18.242C17.3814 18.4486 17.4549 18.6463 17.5703 18.8195C17.6858 18.9928 17.8401 19.1366 18.021 19.2397C18.2018 19.3427 18.4042 19.4021 18.6121 19.4132C18.82 19.4242 19.0276 19.3865 19.2183 19.3032C19.5544 19.1763 19.8625 18.9853 20.1256 18.7407C20.3753 18.5167 20.611 18.2775 20.8313 18.0244C21.4946 17.2975 22.2799 16.5759 23.1554 16.3955C23.1819 16.4751 23.2084 16.5547 23.2402 16.6343Z" fill="#28847B"/>
<path d="M27.6866 26.3177C27.3698 26.5563 27.0814 26.8305 26.827 27.1348C26.3934 27.7131 25.7759 28.1266 25.0761 28.3074C24.3365 28.4321 23.5765 28.3246 22.9006 27.9997C22.1612 27.6432 21.468 27.1977 20.8366 26.6732C19.9452 25.9781 18.9636 25.1822 17.8016 25.0814C17.706 24.9859 17.6212 24.8851 17.5363 24.7896H17.7909C19.7276 25.023 20.9745 26.6732 22.5663 27.5593L22.6512 27.607C23.7124 28.1376 24.9275 28.2756 25.872 27.4744C26.4503 26.9915 26.827 26.2964 27.4638 25.8826L27.6866 26.3177Z" fill="#28847B"/>
<path opacity="0.54" d="M31.0824 32.8653C31.0824 32.8653 27.331 31.2735 23.654 29.2041C22.1312 26.965 21.0488 25.0814 20.099 18.7407C19.3243 12.9901 18.8991 7.19768 18.8256 1.39551C19.006 6.17089 21.6696 12.7821 23.2295 16.6343C25.649 22.4019 29.0183 29.1511 31.0824 32.8653Z" fill="#0B422A"/>
<path d="M26.0099 20.6986C26.1271 20.787 26.2372 20.8845 26.3389 20.9904C27.2144 21.8924 27.7078 23.2826 28.8645 23.8822C29.1199 24.0238 29.4056 24.102 29.6975 24.1103C30.7587 24.1528 31.6395 23.1924 32.3134 22.354C32.9873 21.5157 33.7778 20.7039 34.9982 20.6933C34.9982 20.5925 35.0248 20.481 35.0407 20.3749C34.596 20.3784 34.1562 20.4685 33.746 20.6402C32.9926 21.0335 32.3503 21.6101 31.8783 22.3169C31.3477 22.9748 30.6739 23.7814 29.8355 23.7814C29.5905 23.7821 29.3493 23.72 29.1351 23.601C27.9094 22.9483 27.4743 21.3724 26.4238 20.5023L26.2168 20.3484L26.0099 20.6986Z" fill="#28847B"/>
<path d="M23.3781 24.8957C23.9617 25.3785 24.2588 26.1108 24.7735 26.6626C25.6225 27.5646 26.8694 27.5752 27.9571 27.156L28.0473 27.1189C29.7558 26.4238 31.1778 24.9328 33.1251 24.9222C33.2099 24.9168 33.295 24.9168 33.3798 24.9222C33.5281 24.7855 33.6665 24.6383 33.7937 24.4818C34.3561 23.8133 34.7329 22.4496 34.9769 20.6934C33.7566 20.6934 33.0084 21.4627 32.2921 22.3541C31.5758 23.2455 30.7427 24.1529 29.6762 24.1104C29.3843 24.1021 29.0986 24.0239 28.8432 23.8823C27.6865 23.2827 27.1931 21.8925 26.3176 20.9905C26.2159 20.8846 26.1058 20.787 25.9886 20.6987C25.1025 22.195 24.2058 23.6116 23.3781 24.8957Z" fill="#116040"/>
<path d="M30.833 12.0923C31.2179 12.4577 31.5469 12.8779 31.8093 13.3392C32.0165 13.7044 32.2697 14.0414 32.5627 14.3421C32.6659 14.4534 32.7918 14.5414 32.9318 14.6C33.0719 14.6586 33.2228 14.6864 33.3746 14.6816L34.197 14.2306C34.2543 14.0848 34.2883 13.9308 34.2978 13.7743C34.3103 13.5977 34.3103 13.4204 34.2978 13.2437C34.2978 12.5699 34.2978 11.9385 34.8284 11.4609C34.9857 11.3251 35.1652 11.2174 35.359 11.1426C35.359 10.1291 35.3165 9.1369 35.2794 8.18713C35.1933 8.54497 35.0096 8.87191 34.7488 9.1316C34.5913 9.28945 34.3984 9.40743 34.1862 9.47572C33.9739 9.54401 33.7484 9.56065 33.5284 9.52424C33.094 9.42279 32.6878 9.22516 32.3399 8.94589C31.873 9.97525 31.3689 11.0258 30.833 12.0923Z" fill="#14704D"/>
<path d="M28.7849 15.9444C29.6339 16.2203 30.3343 17.0056 30.9073 17.828C31.0968 18.1132 31.3042 18.3861 31.5281 18.6452C31.7609 18.9174 32.0437 19.1425 32.3611 19.3084C32.5428 19.4112 32.7459 19.4701 32.9544 19.4803C33.1629 19.4905 33.3709 19.4518 33.5617 19.3672C33.7525 19.2826 33.9208 19.1546 34.0533 18.9933C34.1857 18.8319 34.2786 18.6419 34.3244 18.4382C34.5525 17.6317 34.5472 16.7615 35.3325 16.2681C35.3909 14.7081 35.3909 13.0845 35.3696 11.4556C35.1477 11.5997 34.9698 11.8023 34.8556 12.041C34.7414 12.2797 34.6952 12.5453 34.7223 12.8086C34.7223 13.4135 34.8497 14.1086 34.3986 14.5967C34.2128 14.7757 33.9826 14.902 33.7317 14.9626C33.4809 15.0232 33.2184 15.016 32.9713 14.9416C32.7955 14.8959 32.6274 14.8244 32.4726 14.7294C31.9188 14.2799 31.4652 13.7196 31.1408 13.0845C30.9952 12.8569 30.8281 12.6437 30.642 12.4478C30.0477 13.631 29.4269 14.793 28.7849 15.9444Z" fill="#14704D"/>
<path d="M32.4832 8.60097L32.5521 8.65933C32.7099 8.78456 32.8766 8.89806 33.0509 8.99892C33.2139 9.09801 33.3938 9.16635 33.5815 9.20054C33.7098 9.2068 33.8379 9.18699 33.9583 9.1423C34.0787 9.09762 34.1888 9.02898 34.2819 8.94055C34.8974 8.48424 34.9398 7.92711 35.0247 7.21611C35.0556 6.89465 35.116 6.57672 35.2051 6.26634C35.0778 3.70355 34.9239 1.72973 34.8708 1.11423C34.8751 1.05063 34.8751 0.986819 34.8708 0.923218C34.8726 0.933755 34.8726 0.944517 34.8708 0.955054C34.8735 0.986837 34.8735 1.01878 34.8708 1.05056C34.8708 1.16729 34.8443 1.29464 34.8231 1.42198V1.53871C34.3406 3.98115 33.5545 6.35365 32.4832 8.60097V8.60097Z" fill="#14704D"/>
<path d="M26.2168 20.3485L26.4237 20.5023C27.4849 21.3725 27.9094 22.9484 29.1351 23.601C29.3493 23.7201 29.5904 23.7822 29.8355 23.7814C30.6738 23.7814 31.3477 22.9749 31.8783 22.317C32.3502 21.6102 32.9925 21.0335 33.746 20.6403C34.1562 20.4686 34.5959 20.3785 35.0406 20.375C35.1892 19.2289 35.2794 17.9289 35.3325 16.5653C35.2581 16.6675 35.1924 16.7758 35.1361 16.889C34.7806 17.6212 34.9292 18.5657 34.3243 19.1758C34.0916 19.38 33.815 19.5278 33.516 19.6079C33.2169 19.688 32.9035 19.6981 32.5999 19.6375C32.155 19.554 31.7428 19.3461 31.4114 19.0379C31.0319 18.6768 30.6937 18.2746 30.4032 17.8387C29.9701 17.1445 29.3699 16.5699 28.6575 16.1674C27.8563 17.5841 27.0339 19.0061 26.2168 20.3485Z" fill="#116040"/>
<path d="M19.0114 31.3795C19.0114 31.3795 22.9218 30.2122 26.7952 28.5886C29.236 27.5698 31.6661 26.3707 33.0934 25.1715C31.9261 25.1715 30.8596 25.8241 29.9098 26.4078C29.2195 26.8492 28.4784 27.2055 27.7025 27.469C26.9932 27.7122 26.2261 27.7307 25.5059 27.5221C24.8335 27.2626 24.2713 26.7791 23.9141 26.1531C23.6938 25.8216 23.4395 25.5139 23.1553 25.2352C20.7782 28.9228 19.0114 31.3795 19.0114 31.3795Z" fill="#116040"/>
<path d="M32.3346 8.94057C32.6825 9.21984 33.0887 9.41748 33.5231 9.51892C33.7431 9.55533 33.9686 9.5387 34.1809 9.4704C34.3931 9.40211 34.586 9.28413 34.7435 9.12628C35.0043 8.86659 35.188 8.53965 35.2741 8.18182C35.2476 7.51857 35.2157 6.87654 35.1892 6.26636C35.1001 6.57674 35.0397 6.89467 35.0088 7.21613C34.9239 7.92713 34.8815 8.48426 34.266 8.94057C34.1729 9.029 34.0628 9.09764 33.9424 9.14232C33.822 9.18701 33.6938 9.20682 33.5656 9.20056C33.3779 9.16637 33.198 9.09803 33.035 8.99894C32.8607 8.89808 32.694 8.78458 32.5362 8.65935L32.4672 8.60099L32.3346 8.94057Z" fill="#28847B"/>
<path d="M30.642 12.469C30.8281 12.6649 30.9951 12.8781 31.1407 13.1057C31.4651 13.7409 31.9188 14.3011 32.4725 14.7506C32.6274 14.8456 32.7955 14.9171 32.9713 14.9628C33.2184 15.0372 33.4808 15.0444 33.7317 14.9838C33.9825 14.9232 34.2127 14.7969 34.3986 14.6179C34.8496 14.1298 34.7223 13.4347 34.7223 12.8298C34.6927 12.5616 34.7393 12.2905 34.8566 12.0475C34.9739 11.8044 35.1572 11.5993 35.3855 11.4556C35.3855 11.3494 35.3855 11.2433 35.3855 11.1372C35.1917 11.2121 35.0122 11.3198 34.8549 11.4556C34.3243 11.9331 34.3243 12.5645 34.3243 13.2384C34.3368 13.415 34.3368 13.5923 34.3243 13.769C34.3148 13.9254 34.2808 14.0794 34.2235 14.2253L33.4011 14.6763C33.2494 14.6811 33.0984 14.6532 32.9583 14.5946C32.8183 14.536 32.6924 14.4481 32.5893 14.3367C32.2872 14.0393 32.0251 13.704 31.8093 13.3392C31.5478 12.8741 31.2188 12.4503 30.833 12.0817L30.642 12.469Z" fill="#28847B"/>
<path d="M28.6576 16.1674C29.37 16.5699 29.9701 17.1446 30.4032 17.8388C30.6938 18.2746 31.0319 18.6768 31.4114 19.0379C31.7429 19.3462 32.155 19.5541 32.5999 19.6375C32.9035 19.6981 33.217 19.688 33.516 19.6079C33.8151 19.5279 34.0917 19.38 34.3244 19.1759C34.9293 18.5657 34.7807 17.6212 35.1362 16.889C35.1925 16.7758 35.2582 16.6676 35.3325 16.5653V16.5653C35.3325 16.4698 35.3325 16.3743 35.3325 16.2735C34.5472 16.767 34.5525 17.6371 34.3244 18.4437C34.2758 18.6465 34.1804 18.8352 34.0459 18.9946C33.9113 19.154 33.7414 19.2797 33.5496 19.3617C33.3578 19.4437 33.1494 19.4797 32.9412 19.4667C32.733 19.4538 32.5307 19.3924 32.3505 19.2873C32.0387 19.1266 31.7597 18.9088 31.5281 18.6453C31.3051 18.3948 31.0978 18.1308 30.9073 17.8547C30.3343 17.0588 29.6339 16.2629 28.7849 15.9711L28.6576 16.1674Z" fill="#28847B"/>
<path d="M23.134 25.2776C23.4182 25.5564 23.6725 25.8641 23.8928 26.1956C24.25 26.8215 24.8122 27.305 25.4846 27.5645C26.2048 27.7732 26.9719 27.7547 27.6813 27.5115C28.4571 27.248 29.1982 26.8917 29.8885 26.4503C30.8489 25.8666 31.9154 25.1874 33.0721 25.214C33.1783 25.1291 33.2738 25.0442 33.364 24.9593C33.2791 24.9539 33.1941 24.9539 33.1093 24.9593C31.162 24.9593 29.74 26.4609 28.0315 27.156L27.9572 27.1347C26.8641 27.5539 25.6172 27.5433 24.7736 26.6413C24.243 26.1107 23.9618 25.3572 23.3781 24.8744L23.134 25.2776Z" fill="#28847B"/>
<path opacity="0.54" d="M19.0114 31.3795C19.0114 31.3795 22.9218 30.2122 26.7952 28.5886C28.5303 26.5882 29.7772 24.9221 31.4114 19.0378C32.9002 13.2779 34.0238 7.42965 34.7754 1.52808C34.0644 6.1655 30.7323 12.3629 28.6576 16.1567C25.6491 21.5422 21.5317 27.8669 19.0114 31.3795Z" fill="#0B422A"/>
<path d="M43.875 33.8893H7.58215C7.58215 33.2346 7.7112 32.5863 7.96192 31.9814C8.21263 31.3766 8.58009 30.8271 9.04331 30.3644C9.50652 29.9017 10.0564 29.5348 10.6615 29.2847C11.2666 29.0346 11.915 28.9063 12.5698 28.907H38.8927C39.5474 28.9063 40.1959 29.0346 40.801 29.2847C41.4061 29.5348 41.956 29.9017 42.4192 30.3644C42.8824 30.8271 43.2499 31.3766 43.5006 31.9814C43.7513 32.5863 43.8803 33.2346 43.8803 33.8893H43.875Z" fill="#7D3F56"/>
<path opacity="0.46" d="M28.8167 28.976H39.7152C39.4383 28.9287 39.1578 28.9056 38.8769 28.907H12.5698C11.2485 28.907 9.98118 29.432 9.04681 30.3663C8.11245 31.3007 7.58752 32.568 7.58752 33.8894H23.8504C23.8684 32.5827 24.3992 31.3355 25.3281 30.4164C26.2571 29.4974 27.51 28.9801 28.8167 28.976V28.976Z" fill="#97304B"/>
<path d="M38.8769 28.907H32.4196C33.074 28.9063 33.7222 29.0347 34.327 29.2848C34.9318 29.535 35.4814 29.9019 35.9441 30.3647C36.4069 30.8275 36.7739 31.3771 37.024 31.9818C37.2742 32.5866 37.4026 33.2348 37.4019 33.8893H43.8752C43.8752 33.2337 43.7458 32.5845 43.4944 31.979C43.243 31.3735 42.8746 30.8235 42.4103 30.3607C41.9459 29.8978 41.3948 29.5311 40.7885 29.2817C40.1821 29.0322 39.5325 28.9049 38.8769 28.907V28.907Z" fill="#75324F"/>
<path d="M3.417 55.0177H47.2868C47.2875 55.6722 47.1591 56.3204 46.909 56.9252C46.6588 57.53 46.2919 58.0795 45.8291 58.5423C45.3663 59.0051 44.8168 59.372 44.212 59.6222C43.6072 59.8723 42.959 60.0007 42.3045 60H8.39932C7.74483 60.0007 7.09663 59.8723 6.49183 59.6222C5.88704 59.372 5.33752 59.0051 4.87473 58.5423C4.41194 58.0795 4.04497 57.53 3.79483 56.9252C3.54469 56.3204 3.4163 55.6722 3.417 55.0177V55.0177Z" fill="#B180B2"/>
<path d="M3.417 55.0177H47.2868C47.2875 55.6722 47.1591 56.3204 46.909 56.9252C46.6588 57.53 46.2919 58.0795 45.8291 58.5423C45.3663 59.0051 44.8168 59.372 44.212 59.6222C43.6072 59.8723 42.959 60.0007 42.3045 60H8.39932C7.74483 60.0007 7.09663 59.8723 6.49183 59.6222C5.88704 59.372 5.33752 59.0051 4.87473 58.5423C4.41194 58.0795 4.04497 57.53 3.79483 56.9252C3.54469 56.3204 3.4163 55.6722 3.417 55.0177V55.0177Z" fill="#97304B"/>
<path d="M33.4701 55.0177C33.4686 56.3396 32.9425 57.6068 32.0073 58.541C31.0721 59.4753 29.8043 60 28.4824 60H42.2833C43.6047 60 44.8719 59.4751 45.8063 58.5407C46.7407 57.6064 47.2656 56.3391 47.2656 55.0177H33.4701Z" fill="#75324F"/>
</svg>
