<svg width="36" height="60" viewBox="0 0 36 60" fill="none" xmlns="http://www.w3.org/2000/svg">
<path d="M29.1374 15.4377L33.5606 14.7363C32.2457 14.7398 30.9319 14.8114 29.6244 14.9508C30.6273 13.9189 32.2331 12.0986 32.1171 12.203L29.4505 14.7421C29.9432 13.3392 30.6099 11.0261 30.6099 11.0899L29.0273 15.1479C28.9809 15.2812 29.0273 15.3682 29.0736 15.3914C29.0783 15.4046 29.0869 15.4162 29.0983 15.4245C29.1097 15.4327 29.1233 15.4374 29.1374 15.4377V15.4377Z" fill="#A4AD66"/>
<path d="M33.6245 33.2754V47.2812C33.625 49.5262 33.0557 51.7347 31.9698 53.6996C30.8839 55.6646 29.317 57.3218 27.4158 58.516C26.4029 59.1612 25.3042 59.6608 24.1521 60H14.0535C12.9 59.6598 11.7995 59.1603 10.784 58.516C8.88353 57.3215 7.31748 55.6641 6.23256 53.6991C5.14765 51.7341 4.5794 49.5258 4.58106 47.2812V33.2754H33.6245Z" fill="#75324F"/>
<path d="M33.6302 35.5361H4.54614V37.4666H33.6302V35.5361Z" fill="#F2F7F3"/>
<g style="mix-blend-mode:overlay" opacity="0.46">
<path d="M18.5521 33.2754V46.5044C18.5521 50.9739 17.1724 54.8986 15.1028 57.1131C14.5844 57.6854 13.968 58.1605 13.2825 58.516H10.784C8.88353 57.3215 7.31748 55.6641 6.23256 53.6991C5.14765 51.7341 4.5794 49.5258 4.58106 47.2812V33.2754H18.5521Z" fill="#CF7770"/>
</g>
<g style="mix-blend-mode:overlay">
<path d="M30.1983 33.2754V47.2812C30.2 49.5258 29.6317 51.7341 28.5468 53.6991C27.4619 55.6641 25.8958 57.3215 23.9954 58.516C22.9798 59.1603 21.8794 59.6598 20.7258 60H24.1635C25.3156 59.6608 26.4143 59.1612 27.4273 58.516C29.3262 57.3204 30.8909 55.6626 31.9747 53.6978C33.0585 51.7329 33.6261 49.5251 33.6244 47.2812V33.2754H30.1983Z" fill="#CF7770"/>
</g>
<path d="M33.6825 27.2868C33.2652 28.9206 32.6825 30.5075 31.9433 32.0231C31.7578 32.4405 31.5723 32.8579 31.3636 33.2636H7.01583C5.33581 31.4 4.31705 29.0344 4.11728 26.5332C3.868 23.8318 4.11728 20.9506 5.57815 18.6666C8.82452 13.5361 12.4013 12.3535 18.3318 12.4695C18.9115 12.4695 20.4303 12.5622 22.1289 12.7013L23.868 12.8579C26.239 13.0955 28.5752 13.4376 29.1955 13.8492C31.2129 15.1767 31.6013 16.5796 32.2564 17.9593C32.9718 19.4308 33.4903 20.9901 33.7984 22.597C34.0673 24.1528 34.0279 25.7462 33.6825 27.2868Z" fill="#28A359"/>
<path d="M27.6766 59.9999H10.5404C10.3436 59.9999 10.1548 59.9217 10.0157 59.7826C9.87652 59.6434 9.79834 59.4547 9.79834 59.2579V59.2579C9.79986 59.0616 9.87852 58.8737 10.0174 58.7349C10.1562 58.596 10.344 58.5174 10.5404 58.5159H27.6766C27.8709 58.5204 28.0558 58.6004 28.1922 58.7389C28.3285 58.8774 28.4056 59.0635 28.407 59.2579C28.407 59.4527 28.3305 59.6397 28.1938 59.7785C28.0571 59.9174 27.8714 59.9969 27.6766 59.9999Z" fill="#B180B2"/>
<path d="M27.6766 59.9999H10.5404C10.3436 59.9999 10.1548 59.9217 10.0157 59.7826C9.87652 59.6434 9.79834 59.4547 9.79834 59.2579V59.2579C9.79986 59.0616 9.87852 58.8737 10.0174 58.7349C10.1562 58.596 10.344 58.5174 10.5404 58.5159H27.6766C27.8709 58.5204 28.0558 58.6004 28.1922 58.7389C28.3285 58.8774 28.4056 59.0635 28.407 59.2579C28.407 59.4527 28.3305 59.6397 28.1938 59.7785C28.0571 59.9174 27.8714 59.9969 27.6766 59.9999Z" fill="#97304B"/>
<g style="mix-blend-mode:overlay">
<path d="M27.6767 58.5159H24.0129C24.2097 58.5159 24.3985 58.594 24.5376 58.7332C24.6768 58.8724 24.755 59.0611 24.755 59.2579C24.755 59.4547 24.6768 59.6434 24.5376 59.7826C24.3985 59.9217 24.2097 59.9999 24.0129 59.9999H27.6767C27.8735 59.9999 28.0622 59.9217 28.2014 59.7826C28.3406 59.6434 28.4187 59.4547 28.4187 59.2579C28.4187 59.0611 28.3406 58.8724 28.2014 58.7332C28.0622 58.594 27.8735 58.5159 27.6767 58.5159V58.5159Z" fill="#75324F"/>
</g>
<path d="M4.57515 21.397L2.83602 17.2637C3.15833 18.5424 3.5453 19.8039 3.99544 21.0434C2.75486 20.3071 0.580949 19.1767 0.731674 19.2579L3.82732 21.2579C2.34906 21.1071 -0.0625286 20.9854 0.00123944 20.9912L4.34327 21.5709C4.4824 21.5709 4.55776 21.5361 4.56935 21.4724C4.57748 21.4617 4.58235 21.4489 4.58338 21.4355C4.58441 21.4222 4.58155 21.4088 4.57515 21.397V21.397Z" fill="#E6EFB9"/>
<path d="M14.5868 8.00011L16.0303 7.4204C15.5861 7.51395 15.1468 7.63004 14.7144 7.76822C14.981 7.35083 15.3984 6.60881 15.3637 6.66678L14.6448 7.71025C14.7144 7.20591 14.7839 6.37692 14.7781 6.39431L14.5347 7.88996C14.5347 7.93634 14.5347 7.95953 14.5637 7.96533L14.5868 8.00011Z" fill="#A4AD66"/>
<path d="M16.9578 11.6754C16.9326 12.2623 16.8471 12.8451 16.7027 13.4146C16.7027 13.5711 16.639 13.7276 16.5984 13.8783L8.37809 15.5711C7.67351 15.0602 7.15781 14.3304 6.91143 13.4957C6.59165 12.6069 6.5713 11.6378 6.85346 10.7363C7.58969 8.77688 8.71433 8.12181 10.7143 7.75079C10.9172 7.71021 11.4332 7.62905 12.0129 7.55949L12.5926 7.48992C13.2215 7.38614 13.8623 7.37637 14.494 7.46094C15.0492 7.69296 15.5134 8.10011 15.8158 8.62036C16.1586 9.06537 16.443 9.55242 16.6621 10.0696C16.865 10.5803 16.9655 11.126 16.9578 11.6754V11.6754Z" fill="#28A359"/>
<path d="M16.9578 11.6753C16.9326 12.2622 16.8471 12.845 16.7027 13.4144C16.7027 13.5709 16.639 13.7274 16.5984 13.8782L8.37809 15.5709C7.67351 15.06 7.15781 14.3303 6.91143 13.4956C6.59165 12.6067 6.5713 11.6377 6.85346 10.7361C7.58969 8.77673 8.71433 8.12165 10.7143 7.75064C10.9172 7.71006 11.4332 7.6289 12.0129 7.55933H12.0766L12.61 7.49557C13.0332 7.44919 13.4506 7.41441 13.7694 7.40861C14.0003 7.38656 14.2333 7.40222 14.4593 7.45499V7.45499C15.0145 7.68701 15.4786 8.09416 15.781 8.61441C16.1238 9.05943 16.4082 9.54647 16.6274 10.0637C16.8429 10.5738 16.9552 11.1215 16.9578 11.6753V11.6753Z" fill="#28A359"/>
<g style="mix-blend-mode:overlay" opacity="0.36">
<path d="M8.40128 12.5391C8.1752 10.1913 8.15781 9.24639 9.87375 8.15074C9.98389 8.08697 10.8187 7.73915 10.7143 7.76234C8.71433 8.13335 7.58969 8.78842 6.85346 10.7478C6.5713 11.6494 6.59165 12.6184 6.91143 13.5073C7.16009 14.3377 7.67558 15.0631 8.37809 15.571L9.63607 15.3102C8.97813 14.5172 8.55095 13.5586 8.40128 12.5391V12.5391Z" fill="#53EA89"/>
</g>
<path d="M12.5809 12.5856C12.5809 12.203 12.9751 11.5885 12.5519 10.9393C12.1287 10.29 11.7287 10.4291 11.7345 9.77985C11.651 9.01234 11.2878 8.30245 10.7142 7.78564H10.6505C10.6003 8.12987 10.5286 8.47063 10.436 8.80593C10.1577 10.0465 10.6968 11.3335 10.3548 12.5335C10.3052 12.7431 10.3052 12.9615 10.3548 13.1711C10.5096 13.809 10.7311 14.4289 11.0157 15.0204L12.3142 14.7538C12.5309 14.4378 12.7008 14.0922 12.8186 13.7277C13.0157 12.9682 12.5925 12.9625 12.5809 12.5856Z" fill="#56C162"/>
<path d="M10.4013 13.1711C10.3517 12.9614 10.3517 12.7431 10.4013 12.5334C10.7433 11.3334 10.2042 10.0465 10.4825 8.80587C10.5675 8.46816 10.6314 8.12546 10.6738 7.77979C10.4535 7.84355 9.74622 8.09283 9.62449 8.56239C9.47376 9.1421 9.29985 8.91022 9.10854 9.47254C8.89464 9.97283 8.87398 10.5347 9.05057 11.0493C9.24767 11.4667 9.10275 11.6291 9.05057 11.9943C9.06012 12.5966 9.2455 13.1829 9.58391 13.6812C9.90854 14.0464 9.64767 14.0001 9.72883 14.3769C9.76362 14.545 10.1578 14.8407 10.5752 15.1189L11.0216 15.0204C10.751 14.4272 10.5431 13.8074 10.4013 13.1711V13.1711Z" fill="#227744"/>
<path opacity="0.39" d="M16.9578 11.6754C16.9326 12.2623 16.8471 12.8451 16.7027 13.4145C16.7027 13.5711 16.639 13.7276 16.5984 13.8783L12.4941 14.7131C13.2535 14.1334 15.2071 12.2667 14.1636 10.116C13.7294 9.08176 13.0044 8.19571 12.0767 7.56528L12.61 7.50151C13.0332 7.45513 13.4506 7.42035 13.7694 7.41455L14.4593 7.46093C15.0145 7.69295 15.4786 8.1001 15.781 8.62035C16.1238 9.06537 16.4082 9.55241 16.6274 10.0696C16.8422 10.5779 16.9545 11.1236 16.9578 11.6754V11.6754Z" fill="#11602E"/>
<path d="M16.1462 13.0318C15.9987 13.405 15.8038 13.7576 15.5664 14.0811L15.3404 14.1275C15.3431 14.0908 15.3431 14.054 15.3404 14.0173C15.4798 13.5364 15.4798 13.0258 15.3404 12.5449C15.0389 12.1565 14.5404 11.6173 14.6041 11.3159C14.6204 10.8076 14.515 10.3028 14.2969 9.84341C14.0998 9.51877 13.6128 9.43181 13.5143 8.95645C13.4157 8.48109 12.3548 7.79703 12.0244 7.57095L12.3375 7.53037L12.6215 7.50138C13.0703 7.49044 13.5115 7.61796 13.8853 7.8666C14.3896 8.34776 14.5404 8.88109 14.9056 9.09558C15.1197 9.18635 15.3092 9.32672 15.4583 9.50513C15.6075 9.68354 15.7121 9.89487 15.7635 10.1217C15.8111 10.5986 15.9102 11.069 16.0592 11.5246C16.24 12.0066 16.2703 12.5322 16.1462 13.0318V13.0318Z" fill="#56C162"/>
<path d="M15.81 13.2638C15.6881 13.5338 15.5323 13.787 15.3462 14.0175C15.4857 13.5366 15.4857 13.0259 15.3462 12.545C15.0448 12.1566 14.5462 11.6175 14.61 11.316C14.6262 10.8077 14.5209 10.3029 14.3027 9.84356C14.1056 9.51892 13.6187 9.43197 13.5201 8.9566C13.4216 8.48124 12.3607 7.79718 12.0303 7.5711L12.3433 7.53052C12.6539 7.55636 12.953 7.66004 13.2129 7.83197C13.7926 8.32472 13.9839 8.89284 14.4303 9.10733C14.8766 9.32182 15.3752 9.60008 15.4506 10.174C15.4914 10.6781 15.5967 11.1749 15.7636 11.6523C15.9713 12.1666 15.9878 12.7384 15.81 13.2638Z" fill="#227744"/>
<path d="M15.7924 9.19423L16.6446 7.83191C16.691 7.75655 15.8098 8.99133 15.4562 9.53046C15.3808 9.60583 15.5142 9.61162 15.5606 9.56525L16.7663 8.27829C16.8127 8.23191 16.233 8.75365 15.7924 9.19423Z" fill="#E6EFB9"/>
<path d="M9.53743 13.5942L8.24467 12.7537C8.1983 12.7537 8.85917 13.2928 9.29975 13.6058C8.80699 13.6348 7.97801 13.7334 8.03018 13.7334L9.27656 13.6986C8.82438 13.9421 8.11714 14.3768 8.11714 14.3711L9.46786 13.687C9.50844 13.687 9.52004 13.6348 9.50844 13.6116C9.49685 13.5884 9.54902 13.6 9.53743 13.5942Z" fill="#E6EFB9"/>
<path d="M8.29701 10.0173C8.00716 9.59412 7.7173 9.16513 7.42165 8.74194C7.61596 9.15164 7.83272 9.55031 8.07092 9.93615C7.60136 9.77962 6.79556 9.54774 6.84774 9.56513L8.00716 10.0231C7.49701 10.0753 6.67382 10.2028 6.69701 10.2028L8.19846 10.0869C8.25064 10.0869 8.27382 10.0869 8.26803 10.0405C8.26223 9.99412 8.30281 10.0173 8.29701 10.0173Z" fill="#E6EFB9"/>
<path d="M6.71432 11.7566L5.84475 10.4812C6.0334 10.8927 6.24834 11.2916 6.48823 11.6754C6.02446 11.5189 5.21866 11.287 5.26504 11.3044L6.45345 11.7624C5.9433 11.8145 5.12011 11.9421 5.1433 11.9421L6.65055 11.8319C6.69692 11.8319 6.72011 11.8029 6.71432 11.7798V11.7566Z" fill="#E6EFB9"/>
<path d="M10.436 9.73912L11.0157 8.30724C10.7842 8.69788 10.5732 9.10036 10.3838 9.51304C10.2563 9.03188 10.0012 8.23188 10.0128 8.28985L10.291 9.52463C9.9664 9.13043 9.39828 8.52173 9.41567 8.53913L10.349 9.69854C10.378 9.73333 10.407 9.73912 10.4244 9.69854L10.436 9.73912Z" fill="#E6EFB9"/>
<path d="M12.5519 11.0145L14.094 10.9043C14.1461 10.9043 13.2766 10.8464 12.7374 10.8638C13.1085 10.5391 13.7172 9.95941 13.6766 9.99419L12.6853 10.7884C12.894 10.3188 13.2012 9.54202 13.1896 9.5652L12.5229 10.9217C12.5229 10.9623 12.5229 10.9971 12.5229 11.0029C12.5229 11.0087 12.5403 11.0145 12.5519 11.0145Z" fill="#E6EFB9"/>
<path d="M33.6825 27.2868C33.2652 28.9206 32.6825 30.5075 31.9433 32.0231C31.7578 32.4405 31.5723 32.8579 31.3636 33.2636H7.01583C5.33581 31.4 4.31705 29.0344 4.11728 26.5332C3.868 23.8318 4.11728 20.9506 5.57815 18.6666C8.82452 13.5361 12.4013 12.3535 18.3318 12.4695C18.9115 12.4695 20.4303 12.5622 22.1289 12.7013H22.3144L23.8564 12.8405C25.0796 12.968 26.2854 13.1129 27.2593 13.2868C27.9261 13.3631 28.5761 13.5471 29.1839 13.8318V13.8318C31.1955 15.1535 31.5839 16.5564 32.239 17.9361C32.9544 19.4076 33.4729 20.9669 33.781 22.5738C34.0587 24.136 34.0252 25.7376 33.6825 27.2868Z" fill="#28A359"/>
<g style="mix-blend-mode:overlay" opacity="0.36">
<path d="M8.88237 24.661C9.63599 17.8668 10.1403 15.1769 15.6708 13.0668C16.0128 12.9393 18.5693 12.4523 18.2911 12.4465C12.378 12.3306 8.80121 13.5132 5.53744 18.6436C4.09397 20.9277 3.8273 23.8088 4.07657 26.5103C4.28428 29.0252 5.31995 31.4003 7.0215 33.2639H10.749C9.45628 30.545 8.56932 27.5132 8.88237 24.661Z" fill="#53EA89"/>
</g>
<path d="M20.7258 27.2637C20.9171 26.1738 22.4649 24.6782 21.6244 22.5796C20.7838 20.4811 19.5896 20.655 20.0012 18.713C20.4128 16.7709 19.2244 13.2927 18.291 12.4463H18.0881C17.7608 13.4049 17.3736 14.342 16.9287 15.2521C15.4215 18.6492 16.1867 22.6144 14.4939 25.8202C14.2435 26.3966 14.138 27.0255 14.1867 27.6521C14.0592 29.5709 14.5751 31.3796 14.836 33.2637H18.6736C19.4789 32.4996 20.1666 31.6205 20.7142 30.655C21.7287 28.6202 20.5403 28.3535 20.7258 27.2637Z" fill="#56C162"/>
<path d="M14.1983 27.6523C14.146 27.0267 14.2475 26.3978 14.4939 25.8204C16.1751 22.6146 15.4099 18.6494 16.9345 15.2929C17.3794 14.3828 17.7666 13.4457 18.0939 12.4871C17.4331 12.545 15.2765 12.8233 14.6505 14.0929C13.9142 15.5943 13.5258 14.8929 12.6447 16.3943C11.7635 17.8958 11.2418 19.5305 11.549 20.8349C11.8563 22.1392 11.3519 22.5044 11.0447 23.5421C10.7374 24.5798 10.836 27.3914 11.549 28.6262C12.2621 29.861 11.549 29.5711 11.549 30.6842C11.549 31.1943 12.4939 32.2726 13.5142 33.2928H14.8476C14.5867 31.3798 14.0708 29.5711 14.1983 27.6523Z" fill="#227744"/>
<path opacity="0.39" d="M31.9491 32.0463C32.6883 30.5307 33.271 28.9438 33.6882 27.31C34.0214 25.7589 34.0451 24.1573 33.7578 22.597C33.4497 20.9901 32.9312 19.4308 32.2158 17.9593C31.5607 16.5796 31.1723 15.1767 29.1607 13.855C28.5569 13.5695 27.9109 13.3835 27.2477 13.3043C26.2738 13.1303 25.068 12.9854 23.8448 12.8579L22.3027 12.7188C23.6825 14.0753 25.5375 16.597 26.668 21.1941C28.3491 27.9187 21.7114 31.9941 19.2129 33.2637H31.3694C31.5781 32.8579 31.7636 32.4405 31.9491 32.0463Z" fill="#11602E"/>
<path d="M30.5811 30.655C29.9264 31.6229 29.1467 32.5001 28.2622 33.2637H27.6072C27.6458 33.171 27.6864 33.0724 27.7289 32.9681C28.2622 31.6347 28.9347 29.6116 28.5463 28.7826C27.9318 27.5014 26.8072 25.6753 27.184 24.8579C27.5353 23.426 27.5353 21.9304 27.184 20.4985C26.813 19.4608 25.5086 18.9217 25.5086 17.513C25.5086 16.3188 22.8999 13.5246 22.1057 12.7014L23.0159 12.7826L23.8332 12.8579C25.0796 13.1884 26.5695 13.7449 27.1956 14.6434C28.355 16.3072 28.4535 17.9072 29.3695 18.7362C30.2854 19.5652 31.3057 20.5855 31.1898 22.1913C31.0384 23.5688 31.0384 24.9587 31.1898 26.3362C31.4274 27.8042 31.2152 29.3098 30.5811 30.655V30.655Z" fill="#56C162"/>
<path d="M29.497 31.113C28.9864 31.8019 28.3925 32.425 27.7289 32.9681C28.2622 31.6347 28.9347 29.6116 28.5463 28.7826C27.9318 27.5014 26.8072 25.6753 27.184 24.8579C27.5353 23.426 27.5353 21.9304 27.184 20.4985C26.813 19.4608 25.5086 18.9217 25.5086 17.513C25.5086 16.3188 22.8999 13.5246 22.1057 12.7014L23.0159 12.7826C23.8836 13.0323 24.6722 13.5015 25.3057 14.1449C26.7434 15.884 26.8651 17.6232 28.0014 18.4811C29.1376 19.3391 30.3782 20.4521 30.2506 22.1101C30.0614 23.5687 30.0614 25.0457 30.2506 26.5043C30.5524 28.0813 30.2853 29.7142 29.497 31.113V31.113Z" fill="#227744"/>
<path d="M31.8446 19.5478C32.9229 18.429 33.9953 17.3044 35.0678 16.1855C35.2475 15.9942 32.0359 18.8986 30.691 20.3015L30.6272 20.342C30.3838 20.516 30.7548 20.6029 30.9113 20.4986L35.1548 17.5536C35.3635 17.4319 33.3982 18.5739 31.8446 19.5478Z" fill="#E6EFB9"/>
<path d="M11.4969 28.3304L8.31426 25.1826C8.20991 25.0783 9.74614 27.0841 10.8186 28.2261C9.39832 28.029 6.97513 27.8145 7.12585 27.8377L10.7548 28.487C9.33455 28.9218 7.05629 29.7276 7.12585 29.7276L11.3519 28.5681C11.4853 28.5333 11.5374 28.4522 11.5201 28.3942C11.522 28.3825 11.5208 28.3705 11.5168 28.3593C11.5127 28.3482 11.5059 28.3382 11.4969 28.3304Z" fill="#E6EFB9"/>
<path d="M10.0881 17.4319L8.34902 13.2986C8.66001 14.5753 9.03733 15.835 9.47945 17.0725C8.24467 16.3421 6.09395 15.2116 6.22728 15.2928L9.32293 17.287C7.84467 17.1421 5.43308 17.0145 5.49684 17.0261L9.83887 17.6058C9.978 17.6058 10.0534 17.571 10.065 17.5073C10.076 17.4985 10.0841 17.4867 10.0883 17.4732C10.0924 17.4597 10.0924 17.4453 10.0881 17.4319V17.4319Z" fill="#E6EFB9"/>
<path d="M16.3954 17.9421L18.865 14.2088C17.9796 15.1805 17.1437 16.1963 16.3606 17.2522C16.2795 15.8204 16.0244 13.403 16.0244 13.5595L16.094 17.2406C15.3925 15.9305 14.1519 13.8609 14.1809 13.9189L16.1287 17.8435C16.1867 17.9711 16.2737 18.0059 16.3316 17.9769C16.3444 17.9775 16.3572 17.9746 16.3684 17.9685C16.3797 17.9623 16.389 17.9532 16.3954 17.9421V17.9421Z" fill="#E6EFB9"/>
<path d="M21.5782 22.7999L26.0188 23.3796C24.7586 23.0019 23.4796 22.6903 22.1869 22.4463C23.4448 21.7565 25.5086 20.4695 25.3695 20.5391L22.0825 22.2028C22.9579 21.0028 24.2854 18.9854 24.239 19.0376L21.5492 22.5159C21.468 22.626 21.4738 22.7188 21.5492 22.7594C21.5511 22.7677 21.5546 22.7756 21.5596 22.7826C21.5645 22.7896 21.5709 22.7955 21.5782 22.7999V22.7999Z" fill="#E6EFB9"/>
<path d="M7.53743 3.91877C7.74033 3.84921 9.05047 2.44631 10.3722 3.14776C11.694 3.84921 13.1084 7.55355 13.1084 7.55355C13.1084 7.55355 10.8882 4.12747 9.13743 3.98834C7.38671 3.8492 7.53743 3.91877 7.53743 3.91877Z" fill="#EF7B9C"/>
<path d="M18.3142 6.68406C17.578 6.41739 15.7519 6.68406 15.7519 6.68406C16.5766 6.28686 17.3544 5.79881 18.0707 5.22899C18.3712 4.97424 18.5604 4.61237 18.5983 4.22029C18.5983 4.22029 16.8128 5.17101 15.8388 5.62898C15.4542 5.79867 15.0805 5.99229 14.72 6.20869C15.3925 5.73333 17.0794 4.46956 17.3055 3.85507C17.4548 3.48441 17.5486 3.09372 17.5838 2.69565C17.0778 3.31781 16.4556 3.83564 15.7519 4.22029C14.5577 4.87536 13.1954 6.8 13.1954 6.8C13.1954 6.8 15.0446 3.93623 14.9867 3.32174C14.8894 2.67965 14.7361 2.04729 14.5287 1.43188C14.5287 1.53623 13.9026 2.82899 13.2939 4.23768C13.2359 4.38261 13.1838 4.51594 13.1374 4.64928C13.2203 4.08889 13.1604 3.51665 12.9635 2.98551C12.6227 2.47831 12.2345 2.00468 11.8041 1.57102C11.8041 1.57102 11.6649 2.73043 11.607 3.46087C11.549 4.1913 13.1954 7.86667 13.1954 7.86667C13.1954 7.86667 16.9229 7.71594 17.7925 7.5884C18.4015 7.53063 19.0154 7.62629 19.578 7.86667C19.2819 7.35697 18.8424 6.94568 18.3142 6.68406V6.68406Z" fill="#EF7B9C"/>
<path d="M7.92585 5.84337C8.05339 5.71584 8.84179 4.17381 10.094 4.2028C11.3461 4.23178 13.1954 7.83178 13.1954 7.83178C13.1954 7.83178 10.5114 4.74772 9.13744 5.29265C7.76353 5.83758 7.92585 5.84337 7.92585 5.84337Z" fill="#EF7B9C"/>
<path d="M7.14331 2.39429C8.68124 2.43486 10.1611 2.99007 11.3462 3.9711C11.9175 4.4192 12.3697 5.00105 12.6629 5.66529C12.9561 6.32953 13.0813 7.05573 13.0274 7.77979C13.0274 7.77979 12.1752 5.47255 10.8361 4.80008C9.55444 4.07882 8.32093 3.2752 7.14331 2.39429V2.39429Z" fill="#FFCCDE"/>
<path d="M8.72583 1.00293C10.1974 1.44962 11.4757 2.37875 12.3548 3.64061C12.788 4.22426 13.0707 4.90567 13.1779 5.62458C13.2851 6.34348 13.2134 7.07772 12.9693 7.76235C12.9693 7.76235 12.7664 5.31597 11.6418 4.31887C10.5998 3.27714 9.62579 2.16955 8.72583 1.00293V1.00293Z" fill="#F8C5FF"/>
<path d="M8.72583 1.00293C10.1974 1.44962 11.4757 2.37875 12.3548 3.64061C12.788 4.22426 13.0707 4.90567 13.1779 5.62458C13.2851 6.34348 13.2134 7.07772 12.9693 7.76235C12.9693 7.76235 12.7664 5.31597 11.6418 4.31887C10.5998 3.27714 9.62579 2.16955 8.72583 1.00293V1.00293Z" fill="#F9B2C9"/>
<path d="M12.355 3.64062C11.4999 2.42966 10.2817 1.52213 8.87671 1.04932C10.1185 1.85123 11.2128 2.86119 12.1115 4.03482C12.811 4.99997 13.1044 6.20078 12.9289 7.37975C12.9637 7.61163 12.9753 7.76236 12.9753 7.76236C13.2186 7.07726 13.2892 6.34276 13.1811 5.62384C13.0729 4.90493 12.7891 4.22376 12.355 3.64062V3.64062Z" fill="#FFE9F1"/>
<path d="M12.0767 1.43188C12.0985 1.48558 12.1122 1.54225 12.1172 1.6C12.2969 2.60869 12.9694 7.75652 12.9694 7.75652C12.9694 7.75652 13.2245 5.77391 13.3056 4.02318C13.3868 2.27246 12.3375 0 12.3375 0L12.0767 1.43188Z" fill="#F9B2C9"/>
<path d="M13.1956 7.83183C13.1956 7.83183 17.2187 7.64632 18.3144 8.284L19.4042 8.92168C19.4042 8.92168 19.0158 7.31588 18.0883 7.03183C17.1608 6.74777 13.1956 7.83183 13.1956 7.83183Z" fill="#F9B2C9"/>
<path d="M18.6332 4.6842C18.6332 4.6842 12.7897 7.93637 13.1955 7.83202C13.6013 7.72768 17.3346 6.70159 18.0882 6.15087C18.7649 5.60309 19.4041 5.01045 20.0013 4.37695L18.6332 4.6842Z" fill="#F9B2C9"/>
<path d="M12.9695 7.75655C13.1242 6.51647 13.3801 5.29112 13.7347 4.09278C14.1521 3.04351 15.926 1.00293 15.926 1.00293C15.926 1.00293 16.2332 3.42612 12.9695 7.75655Z" fill="#F8C5FF"/>
<path d="M15.6534 2.84067C15.0575 4.62267 14.1507 6.28505 12.9751 7.75081C12.9751 7.75081 12.9751 7.68124 13.0041 7.55371C13.1527 6.3754 13.4009 5.21181 13.7461 4.07545C14.1635 3.02618 15.9374 0.985596 15.9374 0.985596C15.9588 1.61623 15.8625 2.24533 15.6534 2.84067V2.84067Z" fill="#F9B2C9"/>
<path d="M15.926 1.00293C15.926 1.00293 14.1521 3.0609 13.7347 4.09278C13.3801 5.29112 13.1242 6.51647 12.9695 7.75655C12.9695 7.75655 13.6999 5.6638 14.1289 4.61452C14.5579 3.56525 15.926 1.00293 15.926 1.00293Z" fill="#FFE9F1"/>
<path d="M16.7724 1.71606C16.7724 1.82041 13.1956 7.832 13.1956 7.832C14.0948 7.21634 14.9421 6.52805 15.7289 5.77403C16.4999 4.93345 16.7724 1.71606 16.7724 1.71606Z" fill="#F9B2C9"/>
<path d="M18.3144 3.42603L13.1956 7.83182C14.2456 7.44779 15.2617 6.97658 16.2332 6.42312C17.0622 5.84341 18.3144 3.42603 18.3144 3.42603Z" fill="#F9B2C9"/>
<path opacity="0.46" d="M15.6533 2.84058C15.0575 4.62258 14.1507 6.28496 12.9751 7.75072C12.9733 7.68384 12.9831 7.61715 13.004 7.55362C13.2417 6.67826 14.9519 3.92463 15.6533 2.84058Z" fill="#EF7B9C"/>
<path d="M12.2563 6.9855C12.4145 7.09276 12.5603 7.21719 12.6911 7.35651C12.7781 7.48405 12.6911 7.73912 12.8708 7.87245C12.9196 7.92422 12.9785 7.96546 13.0438 7.99365C13.1091 8.02184 13.1794 8.03638 13.2506 8.03638C13.3217 8.03638 13.392 8.02184 13.4573 7.99365C13.5226 7.96546 13.5815 7.92422 13.6303 7.87245C13.7694 7.75072 14.21 7.90144 14.21 7.90144L13.9723 7.69854L14.3375 7.43767L13.7172 7.62318L14.181 7.14202L13.6013 7.45506L13.7926 6.95651L13.3926 7.35072L13.3346 6.81738L13.1143 7.29274L12.9346 6.81738V7.31593C12.9346 7.31593 12.552 6.91593 12.2563 6.9855Z" fill="#62773C"/>
</svg>
