<svg width="44" height="60" viewBox="0 0 44 60" fill="none" xmlns="http://www.w3.org/2000/svg">
<path d="M25.0357 33.6094C24.3661 33.3268 23.6189 33.715 23.1601 34.2145C22.9065 34.4885 22.7194 34.8172 22.6132 35.1751C22.507 35.533 22.4846 35.9105 22.5477 36.2785C22.5759 36.4452 22.8414 36.4362 22.8123 36.2666C22.7603 35.9812 22.7655 35.6882 22.8277 35.4048C22.8899 35.1214 23.0077 34.8532 23.1745 34.6158C23.5314 34.1075 24.3338 33.4843 24.9805 33.755C25.1471 33.8259 25.1929 33.6705 25.0357 33.6094Z" fill="#8AB186"/>
<path d="M27.3912 32.3218C27.108 32.1758 26.7974 32.0908 26.4793 32.0723C26.1612 32.0538 25.8428 32.1023 25.5446 32.2145C24.8629 32.4888 24.9829 33.0094 24.9256 33.5647C24.9183 33.6557 24.9036 33.746 24.8816 33.8346C24.8576 33.9286 24.6108 34.4908 24.6735 34.7646C24.8127 35.394 25.406 35.8066 25.9989 35.9701C26.6061 36.1035 27.2315 36.1329 27.8486 36.0572C28.3065 36.0136 28.7667 36.0007 29.2263 36.0185C29.1899 35.9057 29.1544 35.7957 29.118 35.6828C28.957 35.1243 28.7979 34.562 28.6215 34.0053C28.408 33.304 28.0746 32.667 27.3912 32.3218Z" fill="#295B22"/>
<path d="M28.6348 34.0077C28.8142 34.5634 28.9703 35.1266 29.1313 35.6851C28.5161 35.1453 27.1951 34.0919 25.9323 33.7834C25.4804 33.6704 25.155 33.6028 24.9245 33.5621C24.9818 33.0067 24.8618 32.4862 25.5435 32.2119C25.8417 32.0996 26.1601 32.0512 26.4782 32.0697C26.7963 32.0881 27.107 32.1731 27.3902 32.3192C28.0745 32.6672 28.4079 33.3043 28.6348 34.0077Z" fill="#1C4917"/>
<path d="M10.7869 32.2301C11.4162 31.8524 12.2185 32.1342 12.7483 32.5685C13.0407 32.8064 13.2746 33.1084 13.4316 33.4511C13.5887 33.7939 13.6648 34.1682 13.654 34.545C13.6495 34.7157 13.3827 34.7444 13.3877 34.5708C13.3991 34.278 13.3522 33.9858 13.2498 33.7113C13.1473 33.4368 12.9913 33.1854 12.7909 32.9717C12.3618 32.5143 11.4709 32.0052 10.8629 32.3679C10.7063 32.4624 10.6385 32.3136 10.7869 32.2301Z" fill="#8AB186"/>
<path d="M8.24884 31.2776C8.51122 31.0914 8.80975 30.9622 9.12515 30.8985C9.44056 30.8348 9.76582 30.838 10.0799 30.9078C10.8005 31.0851 10.7545 31.6227 10.8907 32.1698C10.9109 32.2598 10.9385 32.3479 10.9731 32.4334C11.0104 32.524 11.3371 33.051 11.3133 33.3336C11.2637 33.9827 10.7291 34.4796 10.1596 34.7273C9.57147 34.947 8.95032 35.0653 8.3226 35.0773C7.85862 35.0989 7.39659 35.1514 6.93963 35.2346C6.95999 35.1165 6.97984 35.0015 7.0002 34.8835C7.08179 34.3022 7.16087 33.7174 7.25812 33.1358C7.37187 32.4042 7.61461 31.7199 8.24884 31.2776Z" fill="#295B22"/>
<path d="M7.24496 33.1399C7.14469 33.721 7.06864 34.3064 6.98705 34.8876C7.52538 34.2605 8.69639 33.0194 9.91512 32.5315C10.3509 32.3542 10.6666 32.2404 10.8913 32.167C10.755 31.6198 10.801 31.0823 10.0804 30.905C9.76633 30.8351 9.44107 30.832 9.12567 30.8957C8.81027 30.9594 8.51173 31.0885 8.24936 31.2748C7.61461 31.7201 7.37186 32.4044 7.24496 33.1399Z" fill="#1C4917"/>
<path d="M22.9206 35.8558C22.5951 32.9968 21.6249 30.2595 21.3177 27.3975C21.2995 27.2302 21.0318 27.2272 21.0501 27.3975C21.3542 30.2017 22.0933 32.8021 22.4279 35.6094C22.7503 38.3102 22.4735 41.2848 22.069 43.9704C22.0112 43.9704 22.3366 43.8609 22.3397 43.9399L22.3579 44.3962C22.3579 44.5391 22.5951 44.5878 22.6195 44.4327C23.1156 41.6013 23.2169 38.7149 22.9206 35.8558V35.8558Z" fill="#295B22"/>
<path d="M19.7241 32.5831C19.1676 29.3014 18.5866 26.114 17.437 22.9661C16.9108 21.5214 16.3816 19.365 14.8882 18.6107C14.7331 18.5316 14.4411 18.7749 14.5841 18.854C15.6973 19.4167 16.193 20.6789 16.6431 21.7647C17.2503 23.1961 17.7584 24.6676 18.1639 26.1687C19.0997 29.8816 19.7475 33.6612 20.1013 37.4738C20.304 39.469 20.4409 41.4703 20.5119 43.4776C20.5119 43.648 21.1536 43.6267 21.1475 43.4533C21.0228 39.8948 20.3416 36.3485 19.7454 32.8386C19.7546 32.7535 19.7546 32.6683 19.7241 32.5831Z" fill="#8AB186"/>
<path d="M18.033 11.7673C17.7096 11.7582 17.3878 11.7185 17.0719 11.6487C17.0332 11.6384 16.992 11.6439 16.9573 11.6638C16.9225 11.6837 16.8971 11.7165 16.8864 11.7551C16.7495 12.7497 16.4363 14.1001 15.6333 14.7966C15.3292 15.0582 14.9733 15.0642 14.8669 14.7753C14.8355 14.6877 14.8241 14.5942 14.8334 14.5016C14.8668 14.226 14.9558 13.9601 15.095 13.7199C15.095 13.6956 15.1223 13.6713 15.1345 13.6469C15.3601 13.2668 15.5632 12.8738 15.7428 12.4699C16.1199 11.4662 15.9314 10.1797 15.1801 9.48926C14.8465 9.18606 14.4143 9.01423 13.9636 9.00566H13.8297C13.7901 9.00785 13.7527 9.02457 13.7246 9.05263C13.6966 9.08069 13.6798 9.11812 13.6777 9.15774C13.6472 10.0702 13.5834 10.9552 13.48 11.8494C13.4488 12.3058 13.3837 12.7592 13.2853 13.2059C13.1819 13.5922 12.8352 13.8142 12.4854 13.5101C12.1813 13.2515 12.2816 12.7984 12.3455 12.4577C12.6496 10.9127 13.0389 9.39801 12.4094 7.8712C12.4002 7.83961 12.3809 7.81187 12.3546 7.79212C12.3283 7.77238 12.2963 7.76171 12.2634 7.76171L11.8467 7.79821C11.6733 7.79821 11.4969 7.82558 11.3236 7.83166C10.7731 7.84725 10.2223 7.81264 9.67814 7.72825L9.44699 7.68871C9.42123 7.6823 9.39426 7.68261 9.36865 7.68961C9.34304 7.6966 9.31967 7.71005 9.30074 7.72867C9.28182 7.74728 9.26799 7.77044 9.26058 7.79593C9.25317 7.82142 9.25243 7.84838 9.25842 7.87424C9.40799 8.4111 9.48571 8.96542 9.48957 9.52271C9.49377 9.73947 9.47952 9.9562 9.44699 10.1705C9.41049 10.3682 9.17326 11.1438 8.74137 10.5659C8.51022 10.2618 8.57105 9.55617 8.55888 9.17903C8.54561 8.65288 8.56898 8.12645 8.62884 7.60355C8.62869 7.57989 8.62313 7.55658 8.61259 7.5354C8.60205 7.51422 8.58681 7.49573 8.56802 7.48135C8.54924 7.46697 8.52741 7.45707 8.50421 7.45242C8.48102 7.44777 8.45706 7.44849 8.43418 7.45452C8.35815 7.48494 8.27907 7.50927 8.19999 7.53664C7.59105 7.72861 6.9558 7.82405 6.31733 7.8195C5.6143 7.81017 4.91837 7.67737 4.26131 7.42715C3.93753 7.3032 3.62596 7.14946 3.33062 6.96789C3.09039 6.77975 2.83846 6.60705 2.57634 6.45084C2.32086 6.33527 1.99238 6.35047 1.96805 6.68199C1.96558 6.70175 1.96766 6.72182 1.97412 6.74065C1.98058 6.75949 1.99126 6.7766 2.00534 6.79069C2.01943 6.80477 2.03654 6.81545 2.05538 6.82191C2.07422 6.82838 2.09428 6.83045 2.11404 6.82798C2.18399 7.01351 2.2509 7.20208 2.31173 7.39065C2.68875 8.53437 2.88575 9.72973 2.8957 10.9339C2.8957 11.3202 2.89569 11.7095 2.85007 12.0988C2.85007 12.1444 2.85007 12.187 2.83486 12.2326C2.83486 12.3482 2.81053 12.4608 2.79533 12.5763C2.79551 12.6096 2.80663 12.6419 2.82695 12.6683C2.84728 12.6947 2.87571 12.7137 2.90786 12.7223C3.66274 12.9974 4.44634 13.1862 5.24369 13.285C5.66547 13.3372 6.09004 13.3636 6.51503 13.3641C6.91954 13.3641 7.69207 13.1664 8.03575 13.4188C8.22128 13.5587 8.26691 13.6804 8.22737 13.7838C8.11483 14.0879 7.33317 14.2278 7.11115 14.2765C6.69505 14.3685 6.27343 14.4335 5.84895 14.4712C4.99522 14.5719 4.13114 14.4084 3.3732 14.0028C3.34723 13.9881 3.31752 13.9814 3.28778 13.9835C3.25803 13.9856 3.22955 13.9964 3.20589 14.0146C3.18223 14.0327 3.16443 14.0574 3.1547 14.0856C3.14497 14.1138 3.14375 14.1442 3.15118 14.1731C3.2485 14.5229 3.35495 14.8726 3.47965 15.2133C3.56076 15.4485 3.64896 15.6796 3.74426 15.9067C3.87808 16.2109 4.02407 16.515 4.18223 16.8192L4.2826 16.9956C4.39318 17.1819 4.53759 17.3459 4.7084 17.4792C4.73582 17.5022 4.76536 17.5225 4.7966 17.54C5.0488 17.6938 5.35116 17.743 5.63908 17.6769C6.26129 17.5147 6.84875 17.2405 7.37271 16.8678C7.54303 16.7614 7.71032 16.658 7.8776 16.5637C8.68662 16.1166 9.52302 15.7455 10.4567 15.7668C10.4612 15.8011 10.4612 15.8359 10.4567 15.8702C10.4355 16.3721 9.68726 16.7066 9.32837 16.9317L8.15437 17.6556C7.3423 18.1604 6.40857 18.8174 5.41706 18.4676C5.26803 18.4129 5.17679 18.6167 5.27107 18.7201L5.57522 19.0455C6.23521 19.739 7.01078 20.4385 7.90801 20.7001C8.32349 20.8254 8.7638 20.8442 9.18846 20.7548H9.20976C9.93398 20.5704 10.5813 20.1616 11.059 19.5869C11.1441 19.4896 11.4118 19.0911 11.5578 19.0729C11.5578 19.0729 11.5578 19.0729 11.576 19.0729L11.9258 19.4926C11.8731 19.5938 11.793 19.6781 11.6946 19.7359C11.6111 19.7954 11.5237 19.8492 11.4331 19.8971C11.1611 20.0258 10.9289 20.2254 10.7609 20.475C10.7439 20.5037 10.7371 20.5374 10.7415 20.5704C10.7459 20.6035 10.7613 20.6342 10.7852 20.6575C11.5152 21.2658 12.4185 20.7943 13.0481 20.2712C13.2685 20.0734 13.5011 19.8895 13.7446 19.7207C14.0089 19.5808 14.2914 19.4784 14.584 19.4166C15.025 19.2797 15.0433 18.79 15.2197 18.422C15.7489 17.324 16.6279 16.4359 17.1723 15.338C17.4874 14.7015 17.7351 14.0338 17.9114 13.3458C18.0333 12.8716 18.1247 12.3901 18.1851 11.9042C18.1813 11.8665 18.1636 11.8316 18.1355 11.8063C18.1074 11.781 18.0708 11.7671 18.033 11.7673Z" fill="#1C4917"/>
<path d="M17.0354 14.2735C16.5549 15.4566 15.5481 17.6525 14.8882 17.3484C14.4867 17.1659 14.6023 15.9858 14.8577 14.7571C14.9368 14.3738 15.0281 13.9906 15.1254 13.6287C15.2227 13.2667 15.3261 12.9048 15.4295 12.6128C15.7639 11.5758 15.6787 10.449 15.1923 9.47405C14.8587 9.17085 14.4264 8.99902 13.9757 8.99046C14.1772 9.42103 14.3086 9.88101 14.365 10.353C14.4228 11.4784 14.1673 11.5696 13.851 12.1475C13.5347 12.7254 14.1856 13.0782 13.5955 14.2765C13.0055 15.4748 12.0201 15.7516 12.4824 13.504C12.1782 13.2455 12.2786 12.7923 12.3425 12.4516C12.6466 10.9066 13.0359 9.39193 12.4063 7.86512C12.3971 7.83353 12.3779 7.80578 12.3516 7.78604C12.3253 7.7663 12.2932 7.75563 12.2603 7.75563L11.8467 7.79821C12.032 8.39997 12.1223 9.02694 12.1143 9.65654C12.0566 11.7856 11.5213 14.4499 10.8126 14.2187C10.256 14.0332 11.4756 9.96068 11.3236 7.83166C10.7731 7.84725 10.2223 7.81264 9.67814 7.72825C9.74667 8.34358 9.87918 8.95008 10.0735 9.53792C10.6332 11.3141 8.68054 12.3786 8.32469 11.1955C8.07225 10.35 8.4798 8.69544 8.19999 7.54577C7.90181 7.64023 7.59675 7.71141 7.28755 7.75867C7.43316 8.13919 7.48532 8.5491 7.43963 8.95396C7.26018 9.95156 7.28756 9.06649 6.32037 7.82862C5.61734 7.8193 4.92141 7.68649 4.26435 7.43627C3.93919 7.30958 3.62659 7.15277 3.33062 6.96789C3.09039 6.77975 2.83846 6.60705 2.57634 6.45084C2.32086 6.33527 1.99238 6.35047 1.96805 6.68199C1.96558 6.70175 1.96766 6.72182 1.97412 6.74065C1.98058 6.75949 1.99126 6.7766 2.00534 6.79069C2.01943 6.80477 2.03654 6.81545 2.05538 6.82191C2.07422 6.82838 2.09428 6.83045 2.11404 6.82798C2.18399 7.01351 2.2509 7.20208 2.31173 7.39065C3.74426 7.95028 5.38665 8.5829 5.78508 9.4193C6.30821 10.5142 4.34647 10.5355 2.8957 10.94C2.8957 11.3263 2.89569 11.7156 2.85007 12.1049C3.79292 12.2661 5.10683 12.3847 5.96452 12.622C7.1811 12.9535 4.36776 12.2935 2.83486 12.2387C2.83486 12.3543 2.81053 12.4668 2.79533 12.5824C2.79551 12.6157 2.80663 12.648 2.82695 12.6744C2.84728 12.7008 2.87571 12.7197 2.90786 12.7284C3.66274 13.0035 4.44634 13.1923 5.24369 13.2911C5.66547 13.3433 6.09004 13.3697 6.51503 13.3702C6.91954 13.3702 7.69207 13.1725 8.03575 13.4249C8.22128 13.5648 8.26691 13.6865 8.22737 13.7899C8.64709 13.9054 8.8539 14.0575 8.69575 14.2795C8.19695 14.9791 5.1555 14.9852 3.47965 15.2194C3.56076 15.4546 3.64896 15.6857 3.74426 15.9128C5.43835 15.7486 8.09962 15.0825 8.38552 15.3593C8.67142 15.636 5.85807 16.4177 4.2826 17.0169C4.39318 17.2032 4.53759 17.3672 4.7084 17.5004C4.73582 17.5235 4.76536 17.5438 4.7966 17.5613C5.0488 17.7151 5.35116 17.7643 5.63908 17.6981C6.26129 17.536 6.84875 17.2618 7.37271 16.8891C6.9317 16.9743 6.48157 17.0655 6.05577 17.1568C8.09963 16.366 10.2073 15.0582 10.4567 15.7912C10.4673 15.8248 10.4673 15.8609 10.4567 15.8946C10.4355 16.3964 9.68726 16.731 9.32837 16.956L8.15437 17.6799C7.3423 18.1848 6.40857 18.8417 5.41706 18.492C5.26803 18.4372 5.17679 18.641 5.27107 18.7444L5.57522 19.0698C7.36359 18.9877 9.3162 17.7468 9.14588 18.6197C9.05464 19.085 8.44635 19.9549 7.90801 20.7244C8.32349 20.8497 8.7638 20.8685 9.18846 20.7791V20.7791C11.0559 18.9178 12.309 16.3903 12.8108 17.099C13.0298 17.4031 12.3637 18.2091 11.5578 19.0911C11.5578 19.0911 11.5578 19.0911 11.576 19.0911L11.9258 19.5109C11.8731 19.612 11.793 19.6963 11.6946 19.7542C11.6111 19.8136 11.5237 19.8675 11.4331 19.9154C11.1611 20.044 10.9289 20.2437 10.7609 20.4932C10.7439 20.522 10.7371 20.5556 10.7415 20.5887C10.7459 20.6218 10.7613 20.6524 10.7852 20.6757C11.5152 21.284 12.4185 20.8126 13.0481 20.2895C13.2685 20.0916 13.5011 19.9077 13.7446 19.739C14.0089 19.599 14.2914 19.4967 14.584 19.4348C15.025 19.2979 15.0433 18.8083 15.2197 18.4403C15.7489 17.3423 16.6279 16.4542 17.1723 15.3562C17.4874 14.7197 17.7351 14.0521 17.9114 13.3641C17.668 13.1481 17.3213 13.5405 17.0354 14.2735Z" fill="#12380D"/>
<path d="M21.7856 41.8937C22.8147 39.3638 23.8465 36.9138 25.3268 34.5966C26.0051 33.5329 26.8122 31.8996 28.1425 31.5608C28.2808 31.525 28.4714 31.7718 28.3429 31.8097C27.3512 32.0626 26.7297 32.9856 26.1762 33.7753C25.4355 34.8141 24.767 35.9025 24.1754 37.0328C22.7659 39.8406 21.5753 42.7531 20.6144 45.7442C20.0974 47.3064 19.6321 48.8851 19.2185 50.4805C19.1882 50.6169 18.6779 50.4858 18.7136 50.348C19.4459 47.5197 20.6219 44.8001 21.7232 42.0945C21.731 42.0247 21.7461 41.9565 21.7856 41.8937Z" fill="#8AB186"/>
<path d="M26.8397 25.5202C27.1003 25.5704 27.3652 25.5958 27.6306 25.596C27.6634 25.5947 27.6955 25.6063 27.7198 25.6285C27.744 25.6506 27.7586 25.6814 27.7603 25.7143C27.6932 26.5352 27.7041 27.6726 28.2235 28.3732C28.4207 28.6368 28.7047 28.7049 28.8413 28.4924C28.882 28.4278 28.9077 28.3549 28.9167 28.2791C28.939 28.0524 28.9149 27.8236 28.8461 27.6065C28.8504 27.587 28.8328 27.5626 28.8274 27.541C28.7143 27.1964 28.6214 26.8455 28.5493 26.49C28.4256 25.619 28.8053 24.622 29.5298 24.2024C29.8509 24.0189 30.2277 23.958 30.5902 24.0313L30.6974 24.0551C30.7288 24.0639 30.7558 24.0839 30.7733 24.1114C30.7907 24.1388 30.7975 24.1718 30.7922 24.2039C30.6544 24.9402 30.5483 25.6605 30.4722 26.3952C30.4161 26.7663 30.3876 27.141 30.3871 27.5163C30.4012 27.8441 30.6395 28.0836 30.9737 27.9021C31.2633 27.7491 31.2635 27.3682 31.2728 27.084C31.3038 25.7923 31.2611 24.5099 32.0368 23.3988C32.0498 23.3751 32.0701 23.3563 32.0947 23.3451C32.1193 23.334 32.1468 23.3311 32.1732 23.337L32.5005 23.4403C32.6393 23.4711 32.7758 23.5244 32.9136 23.5601C33.3517 23.6704 33.7991 23.7405 34.25 23.7696L34.4422 23.779C34.4639 23.7785 34.4855 23.7835 34.5047 23.7937C34.524 23.8038 34.5404 23.8188 34.5522 23.837C34.564 23.8553 34.571 23.8763 34.5724 23.8981C34.5738 23.9198 34.5696 23.9415 34.5602 23.9612C34.345 24.3646 34.1842 24.7948 34.0821 25.2406C34.0402 25.4134 34.0131 25.5896 34.0011 25.7671C33.9952 25.9319 34.0474 26.5953 34.496 26.2092C34.7353 26.0066 34.8119 25.4306 34.8887 25.1307C34.9928 24.7116 35.0677 24.2857 35.1127 23.8562C35.117 23.8373 35.1256 23.8196 35.1378 23.8045C35.15 23.7894 35.1655 23.7773 35.1831 23.7692C35.2007 23.761 35.2199 23.7569 35.2393 23.7573C35.2587 23.7577 35.2778 23.7625 35.2951 23.7714C35.3506 23.8093 35.4096 23.8429 35.4681 23.8788C35.9217 24.1408 36.4136 24.3302 36.9259 24.44C37.4907 24.5575 38.0717 24.5748 38.6425 24.4911C38.9239 24.4494 39.2008 24.3816 39.4696 24.2886C39.6955 24.1806 39.928 24.0871 40.1657 24.0085C40.3909 23.9613 40.6513 24.0319 40.6119 24.3018C40.6104 24.318 40.6051 24.3337 40.5966 24.3477C40.5881 24.3616 40.5765 24.3734 40.5627 24.3822C40.5489 24.391 40.5333 24.3965 40.5171 24.3983C40.5008 24.4002 40.4844 24.3983 40.469 24.3928C40.38 24.529 40.2929 24.6681 40.2107 24.8084C39.7054 25.6575 39.3352 26.58 39.1132 27.5428C39.0445 27.8523 38.9754 28.1641 38.9427 28.4841C38.9346 28.5206 38.927 28.5547 38.9311 28.594C38.9106 28.6865 38.9101 28.781 38.9017 28.8763C38.8956 28.9029 38.881 28.9268 38.86 28.9443C38.8391 28.9619 38.8129 28.972 38.7856 28.9732C38.132 29.0594 37.4708 29.0714 36.8146 29.0088C36.4674 28.9757 36.1226 28.9214 35.7821 28.8462C35.4581 28.7743 34.8744 28.4787 34.5543 28.6198C34.3808 28.6989 34.3226 28.7883 34.3359 28.8781C34.372 29.1417 34.9733 29.3927 35.1425 29.4712C35.4594 29.6188 35.7856 29.7458 36.1189 29.8514C36.7849 30.0838 37.5061 30.1064 38.1853 29.9162C38.2087 29.9091 38.2337 29.909 38.2572 29.916C38.2806 29.9229 38.3015 29.9366 38.3172 29.9554C38.333 29.9741 38.3428 29.9971 38.3456 30.0214C38.3484 30.0457 38.344 30.0703 38.3329 30.0921C38.1928 30.355 38.0453 30.6162 37.8849 30.8669C37.7781 31.0409 37.6664 31.2104 37.5497 31.3754C37.3885 31.5952 37.2175 31.8129 37.0367 32.0284L36.925 32.1519C36.8033 32.2815 36.6585 32.3872 36.498 32.4636C36.4719 32.4772 36.4446 32.4882 36.4165 32.4966C36.1871 32.5751 35.9362 32.5607 35.7173 32.4566C35.2477 32.2161 34.8259 31.8921 34.4724 31.5004C34.3549 31.3849 34.2393 31.2723 34.122 31.1671C33.5534 30.6651 32.9494 30.2193 32.1977 30.0704C32.188 30.0971 32.1818 30.1249 32.1793 30.1532C32.1072 30.559 32.647 30.9599 32.8945 31.204L33.7063 31.9925C34.2671 32.5412 34.8982 33.2334 35.7546 33.1295C35.8837 33.1121 35.9206 33.2915 35.8267 33.3576L35.5252 33.5642C34.8733 34.0024 34.1278 34.4249 33.3626 34.475C33.0075 34.5015 32.6514 34.4384 32.3272 34.2913L32.3101 34.2875C31.7628 34.0111 31.3169 33.5686 31.0364 33.0233C30.9855 32.9302 30.8419 32.5635 30.7282 32.523C30.7282 32.523 30.7282 32.523 30.7136 32.5197L30.3588 32.7938C30.3831 32.8842 30.4322 32.966 30.5007 33.0298C30.5571 33.0922 30.6175 33.1509 30.6816 33.2054C30.8766 33.3568 31.0271 33.5579 31.1173 33.7877C31.1258 33.8138 31.1253 33.8419 31.1159 33.8676C31.1065 33.8933 31.0887 33.9151 31.0654 33.9296C30.3726 34.2871 29.7328 33.7489 29.3215 33.218C29.18 33.0203 29.0264 32.8317 28.8614 32.6533C28.6745 32.4942 28.4664 32.362 28.243 32.2604C27.9141 32.0724 27.9865 31.677 27.9106 31.3508C27.6818 30.3773 27.1355 29.5097 26.8946 28.5334C26.7553 27.9676 26.6755 27.3887 26.6566 26.8063C26.6432 26.4048 26.6556 26.0028 26.6935 25.6028C26.7032 25.5734 26.7236 25.5486 26.7506 25.5333C26.7777 25.518 26.8094 25.5133 26.8397 25.5202Z" fill="#1C4917"/>
<path d="M27.1934 27.705C27.3681 28.7381 27.7842 30.6761 28.3669 30.5497C28.721 30.4749 28.8381 29.5091 28.8518 28.4794C28.8566 28.1584 28.8516 27.8352 28.838 27.528C28.8243 27.2208 28.8058 26.9125 28.7749 26.6602C28.6913 25.7701 28.9598 24.8827 29.5227 24.1881C29.8438 24.0045 30.2206 23.9437 30.5832 24.0169C30.3453 24.326 30.1582 24.6711 30.0292 25.0392C29.7829 25.9304 29.9713 26.0489 30.122 26.568C30.2727 27.0871 29.6886 27.254 29.9483 28.3188C30.208 29.3835 30.9481 29.7804 30.9773 27.8978C31.2668 27.7448 31.267 27.3639 31.2763 27.0797C31.3073 25.788 31.2646 24.5056 32.0403 23.3944C32.0533 23.3708 32.0736 23.3519 32.0982 23.3408C32.1228 23.3297 32.1503 23.3268 32.1767 23.3327L32.5005 23.4403C32.2451 23.8894 32.0613 24.3756 31.9558 24.8813C31.6237 26.597 31.579 28.8263 32.1878 28.7671C32.6666 28.7174 32.4134 25.2384 32.9136 23.5601C33.3517 23.6704 33.7991 23.7405 34.25 23.7696C34.0857 24.2504 33.8718 24.7126 33.6116 25.149C32.8477 26.4723 34.2226 27.672 34.7179 26.7875C35.0704 26.1551 35.038 24.7573 35.4664 23.8862C35.6885 24.0148 35.9202 24.126 36.1595 24.2189C35.9752 24.4978 35.8606 24.8169 35.8253 25.1493C35.7917 25.9803 35.9271 25.2665 36.9218 24.4468C37.4866 24.5642 38.0677 24.5815 38.6385 24.4979C38.9214 24.4542 39.1997 24.3841 39.4696 24.2886C39.6955 24.1806 39.928 24.0871 40.1657 24.0085C40.3909 23.9613 40.6513 24.0319 40.6119 24.3018C40.6104 24.318 40.6051 24.3337 40.5966 24.3477C40.5881 24.3616 40.5765 24.3734 40.5627 24.3822C40.5489 24.391 40.5333 24.3965 40.5171 24.3983C40.5008 24.4002 40.4844 24.3983 40.469 24.3928C40.38 24.529 40.2929 24.6681 40.2107 24.8084C38.9637 25.002 37.5357 25.2169 37.0679 25.8161C36.4543 26.6002 38.0219 26.9659 39.1121 27.5477C39.0435 27.8571 38.9743 28.169 38.9416 28.4889C38.1577 28.4505 37.0842 28.312 36.355 28.3496C35.3215 28.399 37.6924 28.3703 38.93 28.5988C38.9095 28.6914 38.909 28.7859 38.9006 28.8812C38.8946 28.9078 38.8799 28.9317 38.8589 28.9492C38.838 28.9667 38.8118 28.9769 38.7845 28.9781C38.131 29.0643 37.4697 29.0763 36.8135 29.0137C36.4663 28.9805 36.1216 28.9262 35.781 28.8511C35.457 28.7792 34.8733 28.4836 34.5532 28.6247C34.3797 28.7038 34.3215 28.7931 34.3348 28.883C33.9781 28.901 33.7854 28.986 33.8726 29.192C34.1478 29.841 36.5831 30.3864 37.8838 30.8718C37.7771 31.0458 37.6653 31.2153 37.5486 31.3803C36.2208 30.9476 34.2074 29.9411 33.9292 30.112C33.651 30.2829 35.7657 31.409 36.9212 32.169C36.7995 32.2985 36.6547 32.4042 36.4942 32.4807C36.4681 32.4942 36.4408 32.5053 36.4127 32.5137C36.1834 32.5921 35.9324 32.5777 35.7135 32.4736C35.244 32.2331 34.8221 31.9091 34.4686 31.5175C34.8068 31.6641 35.1511 31.8171 35.476 31.9659C33.9793 30.9692 32.5234 29.5471 32.1934 30.0899C32.179 30.115 32.1725 30.1439 32.175 30.1727C32.1029 30.5785 32.6427 30.9794 32.8902 31.2235L33.702 32.012C34.2627 32.5607 34.8939 33.2529 35.7503 33.1489C35.8794 33.1316 35.9163 33.311 35.8224 33.3771L35.5209 33.5837C34.103 33.2001 32.7594 31.8591 32.7407 32.5886C32.7311 32.9776 33.0638 33.7824 33.3582 34.4945C33.0032 34.521 32.6471 34.4579 32.3228 34.3108V34.3108C31.1578 32.4879 30.6032 30.2406 30.0752 30.7191C29.8458 30.9238 30.2361 31.6878 30.725 32.5376C30.725 32.5376 30.725 32.5376 30.7103 32.5343L30.3556 32.8084C30.3798 32.8988 30.429 32.9806 30.4975 33.0444C30.5538 33.1068 30.6143 33.1655 30.6784 33.22C30.8733 33.3714 31.0239 33.5726 31.1141 33.8023C31.1226 33.8284 31.1221 33.8565 31.1126 33.8822C31.1032 33.908 31.0855 33.9298 31.0622 33.9442C30.3694 34.3017 29.7296 33.7636 29.3182 33.2326C29.1768 33.035 29.0231 32.8463 28.8581 32.6679C28.6713 32.5088 28.4632 32.3766 28.2398 32.2751C27.9108 32.0871 27.9832 31.6916 27.9073 31.3654C27.6785 30.3919 27.1323 29.5243 26.8913 28.548C26.752 27.9822 26.6723 27.4033 26.6533 26.8209C26.8866 26.6912 27.0946 27.0671 27.1934 27.705Z" fill="#12380D"/>
<path d="M28.6571 41.5857L28.6355 41.6073C28.6355 41.6073 28.6262 41.5888 28.6571 41.5857Z" fill="#1C4917"/>
<path d="M38.6388 11.3902C36.984 11.6251 35.2981 11.3042 33.8454 10.4778C33.2584 10.1311 33.2888 9.45284 33.9306 9.36768C34.3361 9.32715 34.7451 9.34044 35.1472 9.40722C36.0065 9.53416 36.8282 9.84542 37.556 10.3197C37.5878 10.3378 37.6248 10.3449 37.6611 10.34C37.6974 10.3351 37.7311 10.3184 37.757 10.2925C37.7829 10.2666 37.7996 10.2329 37.8045 10.1966C37.8094 10.1603 37.8022 10.1234 37.7841 10.0915C37.4638 9.60314 37.1899 9.08587 36.9659 8.54649C36.8352 8.24234 36.823 7.79829 36.4976 7.6523C36.0809 7.46677 35.5608 7.58234 35.1259 7.5276C34.9734 7.52245 34.8241 7.48184 34.69 7.40898C34.5559 7.33613 34.4407 7.23304 34.3533 7.10788C34.2876 7.00012 34.2629 6.87234 34.2835 6.74783C34.3042 6.62333 34.3689 6.5104 34.4659 6.42963C34.5516 6.3568 34.6558 6.30914 34.7669 6.29196C34.8781 6.27478 34.9918 6.28875 35.0955 6.33231C35.1209 6.342 35.1454 6.35423 35.1684 6.3688C35.1883 6.37976 35.2102 6.38657 35.2327 6.38882C35.2553 6.39107 35.2781 6.38871 35.2997 6.38188C35.3213 6.37505 35.3413 6.3639 35.3585 6.34911C35.3757 6.33431 35.3896 6.31618 35.3996 6.29581C35.4178 6.26613 35.425 6.23102 35.42 6.19658C35.415 6.16214 35.3981 6.13053 35.3722 6.10724L35.3114 6.05249C34.7174 5.50689 33.9778 5.14553 33.1824 5.01232C32.1577 4.82374 31.0993 5.01744 30.2078 5.55674C30.2078 5.55674 28.4195 5.33471 28.2583 5.3195C28.4438 3.58891 27.2607 1.85224 25.0252 1.31391C24.724 1.24827 24.4194 1.19954 24.1128 1.16792C23.6443 1.10068 23.1954 0.934814 22.7958 0.681283C21.5933 0.00648819 20.1759 -0.175589 18.8419 0.17336C18.4616 0.257893 18.0877 0.368664 17.7227 0.504878C17.5561 0.582668 17.3855 0.651702 17.2117 0.711697C16.88 0.782642 16.5337 0.720379 16.2476 0.538334C15.6019 0.238641 14.8879 0.116841 14.1794 0.185526C12.9902 0.301101 11.2596 1.174 11.6823 2.63998C11.6944 2.68209 11.7225 2.71778 11.7606 2.7394C11.7987 2.76101 11.8438 2.76681 11.8861 2.75556C12.8674 2.41502 13.8908 2.21036 14.9276 2.14726C14.9276 2.75556 13.6654 3.0232 13.2213 3.27869C12.7188 3.57483 12.2695 3.95317 11.8922 4.39794C11.8101 4.49527 11.6763 4.70209 12.0412 4.94236C12.8651 5.46124 13.5734 6.14398 14.1223 6.94816C14.6711 7.75235 15.0488 8.6608 15.2317 9.61708C15.2408 9.64836 15.2588 9.67632 15.2835 9.69753C15.3082 9.71873 15.3385 9.73227 15.3708 9.73646C15.4031 9.74066 15.4359 9.73534 15.4653 9.72116C15.4946 9.70698 15.5191 9.68454 15.5359 9.65662C15.7046 9.34701 15.9497 9.08562 16.2477 8.8972C16.5458 8.70878 16.887 8.59958 17.2391 8.57994C17.8474 8.55561 18.4557 8.79893 19.0883 8.67423C19.5223 8.55968 19.9122 8.31814 20.2081 7.98055C20.504 7.64296 20.6923 7.22471 20.7489 6.7794C20.8123 6.26419 20.7454 5.74131 20.5543 5.25867C20.403 4.87207 20.1983 4.50862 19.946 4.17896C19.7513 3.95693 19.9216 3.77444 20.4539 3.63149L20.6759 3.82615C21.5884 4.80245 21.5184 6.38705 21.4758 7.62797C21.4762 7.66351 21.4879 7.698 21.5093 7.72644C21.5306 7.75488 21.5604 7.77578 21.5944 7.78612L21.8621 7.83783C21.8495 7.92041 21.8424 8.00372 21.8408 8.08723C21.7313 9.30381 21.199 10.4048 20.8341 11.6457C20.4718 12.8938 20.2474 14.1779 20.165 15.4749C20.165 15.6665 20.1406 15.8581 20.1345 16.0528C19.4849 16.155 18.8477 16.3253 18.2336 16.5607C17.823 16.7201 17.4245 16.9092 17.0414 17.1264C16.8731 17.2197 16.7088 17.3211 16.5487 17.4306C16.4057 17.5249 16.2658 17.6222 16.132 17.7347C15.4 18.2767 14.7496 18.921 14.2007 19.6478C13.5117 20.563 12.9897 21.5926 12.6586 22.6893C12.6474 22.7316 12.6532 22.7766 12.6748 22.8148C12.6964 22.8529 12.7321 22.881 12.7742 22.893C12.8617 22.9079 12.9501 22.917 13.0388 22.9204C14.0486 22.9843 14.9215 22.4703 15.7974 22.008C16.1036 21.8148 16.4299 21.6557 16.7707 21.5335L16.9288 21.4757C17.4124 21.4757 17.5371 21.6187 17.3364 21.8833C17.2634 22.1083 17.0809 22.1874 16.8893 22.3091C16.2262 22.6625 15.5318 22.9537 14.815 23.1789C13.8904 23.4686 12.9976 23.8517 12.1507 24.3225V24.3225C11.0588 24.9947 10.192 25.9193 10.046 27.3123C10.0457 27.3417 10.0531 27.3706 10.0675 27.3963C10.0819 27.4219 10.1028 27.4433 10.1282 27.4583C10.2851 27.5458 10.4578 27.6013 10.6364 27.6217C10.8149 27.6421 10.9957 27.6268 11.1683 27.5769C11.2997 27.5421 11.4279 27.4963 11.5516 27.44C11.8892 27.2849 12.1933 27.0598 12.54 26.9169C12.9647 26.7617 13.409 26.6665 13.86 26.634C15.472 26.4363 15.6849 26.0044 16.1959 25.8402C16.3474 25.7802 16.5119 25.7603 16.6734 25.7824C16.7432 25.7961 16.8095 25.8241 16.868 25.8645C16.9562 25.9375 16.9319 26.0409 16.8863 26.2356C16.8745 26.3463 16.831 26.4512 16.7608 26.5376C16.6906 26.6239 16.5968 26.6881 16.4909 26.7222L16.4088 26.777C16.1713 26.8964 15.9252 26.998 15.6727 27.0811C14.3467 27.5221 12.5339 27.148 11.5516 28.3646C11.3687 28.5898 11.2491 28.8596 11.2048 29.1463C11.0862 29.8823 11.4025 30.7004 11.6185 31.4547C11.678 31.6547 11.7268 31.8578 11.7645 32.063C11.915 32.9161 11.915 33.789 11.7645 34.6422C11.6599 35.2018 11.4636 35.7403 11.1835 36.2359C10.9828 36.4477 10.8138 36.6874 10.6817 36.9476C10.5996 37.1058 10.8125 37.3004 10.9433 37.1483C11.1387 36.9215 11.3128 36.6772 11.4634 36.4184C12.0556 35.8574 12.8086 35.4958 13.6167 35.3843C13.8844 35.3356 14.155 35.2961 14.4257 35.2687C14.9215 35.214 15.4203 35.1836 15.8887 35.1471L16.1289 35.1258C16.7457 35.0699 17.3563 34.96 17.9538 34.7973C18.2428 34.7182 18.5256 34.63 18.8115 34.5266C19.0001 34.4597 19.1856 34.3867 19.3742 34.3107L19.9977 34.0552C20.2532 33.9457 20.6333 33.8453 20.7824 33.5807C21.0865 33.0485 20.3049 32.3124 20.1224 31.841C19.8234 31.0504 19.7766 30.1866 19.9885 29.3683C20.0926 28.9613 20.2643 28.5748 20.4965 28.2247C20.5756 28.0361 20.6881 27.9449 20.8341 27.951C20.9787 27.971 21.1142 28.0335 21.2234 28.1304C21.2574 28.2522 21.2748 28.3781 21.2751 28.5045C21.2933 28.7144 21.2751 28.9242 21.2751 29.1341L21.3329 32.285C21.3329 32.3286 21.3502 32.3704 21.381 32.4012C21.4118 32.432 21.4536 32.4493 21.4971 32.4493C21.9004 32.5102 22.3104 32.5102 22.7137 32.4493C23.0124 32.4051 23.2954 32.2875 23.5375 32.107C23.7795 31.9266 23.973 31.6888 24.1006 31.4152C24.6389 30.3355 24.3196 29.1584 24.1006 28.0422C23.9427 27.2946 23.9058 26.5265 23.9911 25.7672C24.0223 25.3846 24.102 25.0074 24.2283 24.6449C24.2283 24.6449 24.2283 24.6175 24.2283 24.6023C24.2283 24.5871 24.2618 24.505 24.277 24.4594C24.5599 24.0397 24.7545 24.0062 24.867 24.3529C24.9849 24.5779 25.0445 24.8289 25.0404 25.0829C25.1529 26.5702 25.1834 28.0635 25.1681 29.5538C25.1681 29.639 25.1681 29.7241 25.1681 29.8123C25.1668 29.8455 25.1765 29.8781 25.1958 29.9051C25.2151 29.9321 25.2428 29.9519 25.2746 29.9614C25.3043 29.9724 25.3364 29.9752 25.3675 29.9693C25.3986 29.9634 25.4275 29.9491 25.451 29.9279C26.4914 29.0501 27.3007 27.9306 27.8081 26.6675C27.8157 26.6392 27.8158 26.6095 27.8084 26.5812C27.8009 26.5529 27.7861 26.5271 27.7655 26.5063C27.1461 25.8377 26.7248 25.01 26.549 24.1157C26.475 23.9072 26.448 23.685 26.4699 23.4648C26.4273 23.2306 26.5824 23.1607 26.9291 23.2185C26.9899 23.3228 27.0447 23.4304 27.0934 23.5409C27.3002 23.9545 27.4857 24.3833 27.6652 24.8091C27.7291 24.9551 27.9267 24.8882 27.9693 24.7696C28.529 23.2489 29.0582 21.573 28.7388 19.9641C28.7722 19.9353 28.7939 19.8953 28.7996 19.8516C28.8857 19.2032 29.0137 18.5611 29.1829 17.9294C29.265 17.607 29.3501 17.2815 29.4596 16.9683C29.5623 16.6759 29.7497 16.4207 29.998 16.2353C30.1075 16.1866 30.2109 16.217 30.3021 16.3965C30.3278 16.4575 30.3481 16.5206 30.363 16.5851C30.5059 17.1933 30.3356 18.0358 30.2383 18.638C30.1285 19.2843 29.9647 19.9201 29.7486 20.5389C29.7426 20.5599 29.7408 20.5819 29.7434 20.6035C29.746 20.6252 29.7529 20.6461 29.7636 20.6651C29.7744 20.684 29.7888 20.7007 29.8061 20.714C29.8233 20.7273 29.8431 20.7371 29.8642 20.7427C30.5733 20.9291 31.199 21.3488 31.6404 21.9342C32.0818 22.5197 32.3132 23.2367 32.2973 23.9697C32.2973 24.0336 32.2973 24.0974 32.2973 24.1644C32.2973 24.3803 32.6015 24.3742 32.6288 24.1644C32.6288 24.0944 32.6288 24.0275 32.6288 23.9575C32.8995 20.688 38.0548 20.4142 38.1035 16.9439C38.1288 16.663 38.0817 16.3803 37.9666 16.1228C37.8054 15.9251 37.3826 15.8886 37.1545 15.7943C36.2937 15.4614 35.501 14.9738 34.8156 14.3557C34.6666 14.2127 34.3381 13.8873 34.4811 13.6318C34.624 13.3763 35.0559 13.4371 35.2779 13.4858C35.6343 13.5754 35.977 13.7125 36.2968 13.8934C37.0768 14.3044 37.7553 14.8842 38.2829 15.5905C38.3559 15.6878 38.5597 15.7061 38.5871 15.551C38.7976 14.2263 38.8993 12.8866 38.8912 11.5454C38.8922 11.5153 38.8853 11.4854 38.8711 11.4589C38.8568 11.4323 38.8358 11.4101 38.8101 11.3943C38.7845 11.3785 38.7551 11.3698 38.725 11.3691C38.6949 11.3684 38.6651 11.3757 38.6388 11.3902ZM18.5651 6.97101C18.5073 7.12529 18.3936 7.25219 18.2465 7.32655C18.0995 7.40091 17.9299 7.41731 17.7713 7.37249C17.5006 7.31166 17.6253 3.08707 18.2336 3.66191C18.5712 3.9843 18.6838 4.61084 18.7294 5.0549C18.818 5.69727 18.7651 6.35126 18.5743 6.97101H18.5651ZM24.2527 3.66191C24.4297 3.84677 24.57 4.06349 24.6663 4.30061C24.8839 4.80283 24.9597 5.35511 24.8853 5.89738C24.8827 5.91584 24.884 5.93462 24.889 5.95258C24.8939 5.97054 24.9025 5.98729 24.9142 6.00182C24.9259 6.01634 24.9404 6.02832 24.9569 6.03704C24.9733 6.04575 24.9914 6.05101 25.01 6.05249C24.8305 6.20152 24.6602 6.35664 24.4929 6.52696C24.3987 6.6182 24.3074 6.71249 24.2162 6.80982C24.2549 6.6372 24.2723 6.46049 24.2679 6.28364V6.28364C24.2566 5.88125 24.2005 5.48136 24.1006 5.09139C24.0368 4.83929 23.9545 4.59226 23.8542 4.35232C23.7964 4.20633 23.5501 3.87177 23.5744 3.7197C23.6079 3.19352 24.1128 3.51896 24.2527 3.66191ZM24.3774 16.0863C24.3716 16.1146 24.3725 16.1439 24.3799 16.1718C24.3873 16.1998 24.401 16.2256 24.4199 16.2475L24.4534 16.2748C24.5078 16.3074 24.5596 16.344 24.6085 16.3843C23.2774 15.9613 21.8704 15.8316 20.4843 16.0041C20.4843 15.8277 20.5026 15.6513 20.5117 15.4749C20.5942 14.2396 20.8063 13.0163 21.1443 11.8252C21.345 11.1287 21.6066 10.4444 21.8043 9.82998C22.2666 8.41875 22.0202 8.59211 22.1632 7.98382C22.1814 7.81045 22.2666 7.88041 22.2666 7.87433C22.5201 7.89555 22.7753 7.88739 23.027 7.84999C23.1754 7.82585 23.3204 7.78399 23.4588 7.72529C22.629 8.79083 22.1985 10.1134 22.2423 11.4632C22.2858 12.2812 22.5693 13.0682 23.0574 13.7261C23.4406 14.2188 24.0306 14.4986 24.3226 13.7565C24.4382 13.3753 24.5186 12.9844 24.5629 12.5886C24.6577 12.1066 24.793 11.6335 24.9674 11.1743C25.166 10.6438 25.4678 10.1579 25.8555 9.74482C26.0228 9.5745 26.4456 9.18519 26.7284 9.25515C26.8593 9.2941 26.9761 9.36986 27.0651 9.4734C27.1541 9.57694 27.2114 9.70389 27.2303 9.83911C27.2246 9.99481 27.1991 10.1492 27.1542 10.2984C26.9633 10.9406 26.6871 11.5544 26.333 12.1232C25.5818 13.3946 24.6359 14.5747 24.3774 16.0771V16.0863ZM27.3397 17.607C27.2832 17.5623 27.2243 17.5207 27.1633 17.4823L27.0782 17.4275C26.7089 17.2063 26.3162 17.0268 25.9072 16.8922C26.1749 16.509 26.7345 16.0528 27.1056 16.4725C27.3337 16.7219 27.358 17.1903 27.3397 17.5979V17.607ZM26.625 14.0606C26.625 13.8112 27.0508 13.2182 27.5648 12.6737C28.2522 11.9468 29.116 11.302 29.4627 11.664C29.8094 12.0259 29.5296 12.5399 29.2954 12.8806C28.9031 13.4584 28.5259 14.0789 28.0788 14.6172C27.4401 15.4019 26.5672 15.0339 26.625 14.0515V14.0606ZM35.3692 17.3302C35.7889 17.9628 35.9775 19.2402 35.3327 19.812C34.9768 20.1162 34.6818 19.9033 34.4537 19.5079C34.3838 19.5444 33.6964 18.4495 33.6112 17.8746C33.5565 17.5249 33.4713 16.9227 33.6781 16.5972C34.0948 15.9463 35.1198 16.947 35.3692 17.3211V17.3302Z" fill="#295B22"/>
<path d="M27.9846 24.7726C27.6014 25.1375 28.3831 23.2518 27.2303 21.0225C26.0776 18.7931 25.7522 17.1993 24.7972 18.0084C23.8422 18.8174 26.6221 19.672 26.4517 21.1745C26.2814 22.677 25.2352 21.4787 25.6092 24.1977C25.9156 26.1015 25.865 28.0456 25.4602 29.9309C25.4116 30.1894 25.3538 30.1742 25.2838 29.9643C25.2534 29.867 25.2169 29.7271 25.1804 29.5568C25.1956 28.0665 25.1804 26.5731 25.0527 25.0858C25.0567 24.8319 24.9971 24.5809 24.8793 24.3559C24.7668 24.0092 24.5752 24.0517 24.2893 24.4623C24.2741 24.508 24.2558 24.5566 24.2406 24.6053C24.0368 23.7689 23.8117 23.0846 23.5593 22.7409C22.5313 21.3783 22.6469 22.674 22.5313 25.0402C22.4157 27.4065 21.3968 25.8492 22.5313 28.6352C23.0291 29.8486 23.0946 31.1963 22.7168 32.4522C22.3136 32.5131 21.9035 32.5131 21.5002 32.4522C21.4567 32.4522 21.4149 32.4349 21.3841 32.4041C21.3533 32.3733 21.336 32.3316 21.336 32.288L21.2752 29.1371C21.2752 28.9272 21.2752 28.7173 21.2752 28.5075C21.2749 28.381 21.2575 28.2552 21.2235 28.1334C21.1143 28.0364 20.9788 27.974 20.8342 27.9539L20.8068 27.6315C20.5026 24.7148 19.2192 24.0365 18.9819 25.7215C18.769 27.3031 19.2861 31.8622 19.3651 34.3136C19.1766 34.3896 18.991 34.4626 18.8025 34.5296C18.5166 34.633 18.2337 34.7212 17.9448 34.8002C17.7558 34.2728 17.6382 33.7225 17.595 33.1639C17.3608 30.5088 16.9867 29.429 16.3784 32.291C16.1503 33.4012 16.0165 34.3684 15.8796 35.1439C15.4112 35.1804 14.9125 35.2108 14.4167 35.2656C14.5292 34.5782 14.6965 33.7449 14.8242 32.872C15.0949 31.0015 14.4289 33.5168 13.6077 35.3812C12.7995 35.4927 12.0466 35.8543 11.4543 36.4153C11.3038 36.6741 11.1297 36.9184 10.9342 37.1452C10.8034 37.2973 10.5905 37.1026 10.6727 36.9445C10.8047 36.6843 10.9738 36.4445 11.1745 36.2328C11.4546 35.7371 11.6508 35.1986 11.7554 34.639C13.1362 33.6658 14.3772 33.1183 13.8844 31.5124C13.3005 29.6115 12.9568 31.263 11.6094 31.4425C11.3935 30.6882 11.0772 29.87 11.1958 29.134L11.5851 29.1158C15.8279 28.9211 19.6176 28.3067 16.8012 26.8803L16.4818 26.7161C16.5878 26.6819 16.6815 26.6178 16.7517 26.5314C16.8219 26.445 16.8655 26.3401 16.8772 26.2294C16.9229 26.0348 16.9472 25.9253 16.859 25.8584C17.0073 25.828 17.1479 25.7679 17.2724 25.6816C17.3968 25.5954 17.5024 25.4848 17.5828 25.3565C18.1638 24.2768 12.6557 25.0798 11.1593 27.5707C10.9867 27.6207 10.8059 27.6359 10.6273 27.6155C10.4488 27.5952 10.2761 27.5396 10.1191 27.4521C10.0938 27.4371 10.0729 27.4157 10.0585 27.3901C10.0441 27.3645 10.0366 27.3355 10.037 27.3061C10.183 25.9131 11.0498 24.9885 12.1417 24.3163C13.9666 23.7537 16.0439 23.3613 17.3487 22.7652C19.5537 21.7615 21.7223 21.3418 19.0032 20.6362C17.1783 20.1587 14.514 22.1569 13.0207 22.9021C12.932 22.8987 12.8436 22.8895 12.7561 22.8747C12.714 22.8626 12.6783 22.8345 12.6566 22.7964C12.635 22.7583 12.6292 22.7133 12.6405 22.6709C12.9715 21.5743 13.4935 20.5446 14.1825 19.6295C14.9316 19.4308 15.7164 19.4079 16.4758 19.5626C19.1735 20.0279 16.6461 18.6501 16.1138 17.7164C16.2477 17.616 16.3876 17.5187 16.5305 17.4122C17.3852 17.6981 19.1674 18.6015 20.7885 18.4494C22.3579 18.2973 19.5568 17.3271 18.2185 16.5454C18.84 16.3042 19.4854 16.1298 20.1438 16.0253L20.4753 15.9797C21.8694 15.8089 23.284 15.9439 24.6208 16.3751C24.5719 16.3348 24.52 16.2982 24.4657 16.2656L24.4322 16.2382C25.4116 16.6975 26.7224 17.1507 27.0904 17.4183C27.1087 17.4183 27.8538 18.1361 27.8873 18.1696C28.2067 18.4737 28.3922 19.082 28.8271 19.8484C28.893 20.0202 28.9479 20.1959 28.9913 20.3746C29.2529 20.8917 28.3709 24.4076 27.9846 24.7726Z" fill="#3B7231"/>
<path d="M34.3049 7.00746C34.2724 6.90783 34.2704 6.80076 34.2991 6.69997C34.3278 6.59918 34.386 6.50927 34.4661 6.44175C34.5518 6.36891 34.656 6.32126 34.7672 6.30407C34.8783 6.28689 34.992 6.30086 35.0957 6.34442C35.1212 6.35411 35.1457 6.36634 35.1687 6.38092C35.1886 6.39188 35.2104 6.39868 35.233 6.40093C35.2555 6.40318 35.2783 6.40082 35.2999 6.39399C35.3216 6.38717 35.3416 6.37602 35.3587 6.36122C35.3759 6.34642 35.3899 6.32829 35.3999 6.30792C35.418 6.27824 35.4252 6.24313 35.4202 6.20869C35.4152 6.17425 35.3984 6.14264 35.3725 6.11935L35.3117 6.06461C34.7177 5.519 33.9781 5.15764 33.1826 5.02443C32.1579 4.83586 31.0996 5.02955 30.2081 5.56885C30.2081 5.56885 28.6722 5.37724 28.3194 5.3377C26.3059 5.56581 25.9926 5.6753 25.0102 6.05852C24.8308 6.20755 24.6605 6.36267 24.4932 6.53299C24.3989 6.62423 24.3077 6.71852 24.2164 6.81585C23.9428 7.10256 23.6887 7.4074 23.4561 7.72828V7.72828C22.6262 8.79382 22.1957 10.1164 22.2395 11.4662C22.283 12.2842 22.5665 13.0712 23.0546 13.7291C23.4378 14.2218 24.0279 14.5016 24.3198 13.7595C24.4354 13.3783 24.5158 12.9874 24.5601 12.5916C24.6549 12.1096 24.7903 11.6365 24.9646 11.1773C25.1637 10.6454 25.4667 10.1585 25.8558 9.74477C26.0231 9.57445 26.4458 9.18514 26.7287 9.25509C26.8595 9.29404 26.9764 9.36981 27.0654 9.47335C27.1544 9.57689 27.2117 9.70384 27.2305 9.83905C27.2249 9.99476 27.1993 10.1491 27.1545 10.2983C26.9706 10.9271 26.7037 11.5285 26.3607 12.0867C26.5981 12.06 26.8384 12.1009 27.0536 12.2047C27.2688 12.3086 27.4504 12.4712 27.5772 12.6737C28.2616 11.9468 29.1253 11.302 29.4721 11.6639C29.8188 12.0259 29.539 12.5399 29.3048 12.8805C28.9124 13.4584 28.5353 14.0788 28.0882 14.6172V14.6354C28.1582 15.4505 29.0219 15.7212 30.0074 16.2322C30.1169 16.1835 30.2203 16.2139 30.3115 16.3934C31.376 17.0838 29.837 20.3686 29.758 20.5359C32.5622 17.1264 31.963 17.4062 32.1911 14.6658C32.255 13.9207 32.0634 13.7929 31.7714 13.1968C31.4794 12.6007 31.6741 12.1718 31.9661 11.2016C32.258 10.2314 31.1236 7.89556 31.4156 7.3846C31.6345 6.96184 33.7788 7.20819 34.3049 7.00746Z" fill="#3B7231"/>
<path d="M35.4875 36.3933V48.765C35.488 50.7481 34.928 52.6989 33.8599 54.4346C32.7918 56.1703 31.2506 57.6341 29.3806 58.689C28.3843 59.259 27.3036 59.7003 26.1703 59.9999H16.2373C15.1027 59.6993 14.0203 59.2581 13.0214 58.689C11.1521 57.6339 9.61173 56.1699 8.5446 54.4341C7.47747 52.6984 6.91853 50.7477 6.92017 48.765V36.3933H35.4875Z" fill="#75324F"/>
<path d="M35.4925 38.3901H6.88525V40.0953H35.4925V38.3901Z" fill="#F2F7F3"/>
<g style="mix-blend-mode:overlay" opacity="0.46">
<path d="M20.6621 36.3933V48.0788C20.6621 52.0269 19.3051 55.4936 17.2694 57.4498C16.7596 57.9553 16.1532 58.375 15.479 58.689H13.0214C11.1521 57.6339 9.61173 56.1699 8.5446 54.4341C7.47747 52.6984 6.91853 50.7477 6.92017 48.765V36.3933H20.6621Z" fill="#CF7770"/>
</g>
<g style="mix-blend-mode:overlay">
<path d="M32.1169 36.3932V48.7649C32.1185 50.7476 31.5596 52.6982 30.4924 54.434C29.4253 56.1697 27.8849 57.6338 26.0156 58.6888C25.0167 59.258 23.9343 59.6992 22.7997 59.9997H26.181C27.3143 59.7001 28.3949 59.2588 29.3913 58.6888C31.2591 57.6328 32.7981 56.1684 33.8641 54.4328C34.9302 52.6972 35.4885 50.747 35.4868 48.7649V36.3932H32.1169Z" fill="#CF7770"/>
</g>
<path d="M2.78514e-06 55.0818H43.1506C43.1513 55.7255 43.025 56.3631 42.779 56.958C42.533 57.5529 42.172 58.0934 41.7168 58.5486C41.2616 59.0038 40.7211 59.3647 40.1262 59.6108C39.5313 59.8568 38.8938 59.9831 38.25 59.9824H4.90065C4.25689 59.9831 3.61932 59.8568 3.02443 59.6108C2.42955 59.3647 1.88904 59.0038 1.43384 58.5486C0.978638 58.0934 0.617683 57.5529 0.371646 56.958C0.125609 56.3631 -0.000683886 55.7255 2.78514e-06 55.0818V55.0818Z" fill="#97304B"/>
<path d="M29.5604 55.0818C29.559 56.382 29.0415 57.6285 28.1217 58.5474C27.2018 59.4663 25.9548 59.9824 24.6545 59.9824H38.2292C39.5289 59.9824 40.7754 59.4661 41.6944 58.5471C42.6135 57.628 43.1298 56.3815 43.1298 55.0818H29.5604Z" fill="#75324F"/>
</svg>
