<svg width="375" height="388" viewBox="0 0 375 388" fill="none" xmlns="http://www.w3.org/2000/svg">
<path d="M340.905 23C336.405 34 340.305 46.8 348.105 55.1C353.705 61.1 366.405 70.6 375.505 69C376.705 68.8 377.805 68.4 378.805 67.8C385.105 64.1 386.005 53.8 384.205 47.5C382.305 40.6 376.705 35 369.905 33C365.305 31.6 359.505 31.4 357.305 27.1C355.705 23.9 356.705 19.5 354.405 16.8C353.305 15.6 351.705 15 350.105 15C348.805 15 347.505 15.4 346.405 16C343.805 17.5 342.105 20.2 340.905 23Z" fill="#7175DA"/>
<path d="M340.905 23C336.405 34 340.305 46.8 348.105 55.1C353.705 61.1 366.405 70.6 375.505 69C376.705 68.8 377.805 68.4 378.805 67.8C385.105 64.1 386.005 53.8 384.205 47.5C382.305 40.6 376.705 35 369.905 33C365.305 31.6 359.505 31.4 357.305 27.1C355.705 23.9 356.705 19.5 354.405 16.8C353.305 15.6 351.705 15 350.105 15C348.805 15 347.505 15.4 346.405 16C343.805 17.5 342.105 20.2 340.905 23Z" fill="#008B8C"/>
<path opacity="0.2" d="M350.197 15C348.897 18.1 348.697 21.6 349.397 24.8C350.297 29 352.497 32.8 355.197 36C357.897 39.2 361.097 42 364.297 44.8C367.397 47.6 370.597 50.5 372.997 54C374.597 56.3 375.897 58.7 376.897 61.3C377.597 63.2 377.697 66.2 378.997 67.8C385.297 64.1 386.197 53.8 384.397 47.5C382.497 40.6 376.897 35 370.097 33C365.497 31.6 359.697 31.4 357.497 27.1C355.897 23.9 356.897 19.5 354.597 16.8C353.497 15.6 351.897 15 350.197 15Z" fill="#4EAE99"/>
<path d="M360.205 41.3C369.805 47.8 376.605 58.4 378.605 70.1" stroke="#89C6BD" stroke-miterlimit="10" stroke-linecap="round" stroke-linejoin="round"/>
<path d="M323.894 65.375C320.239 62.1806 318.047 57.8245 316 53.4684C318.924 54.9205 322.286 55.6465 325.502 56.5177C329.741 57.6793 340.558 61.1641 338.365 67.553C338.365 67.6982 338.219 67.6982 338.219 67.8434C341.435 69.7311 344.651 71.7639 347.721 73.9419C346.113 70.6023 348.159 63.923 349.329 61.5997C351.522 57.3889 355.322 54.1944 358.977 51C358.246 54.1944 358.392 57.5341 358.392 60.8737C358.392 65.2298 357.661 76.5556 350.791 75.9748C350.645 75.9748 350.644 75.9748 350.498 75.9748C354.299 78.8788 358.1 81.928 361.608 85.2677C360 81.928 361.9 75.2487 363.216 72.7803C365.409 68.5694 369.209 65.375 372.864 62.1806C372.133 65.375 372.279 68.7146 372.279 72.0543C372.279 76.4104 371.548 87.7361 364.678 87.1553C364.239 87.1553 363.801 87.0101 363.362 86.8649C366.724 90.2045 370.086 93.6894 373.156 97.3194C371.987 93.8346 373.887 87.7361 375.056 85.4129C377.249 81.202 381.05 78.0076 384.704 74.8131C383.973 78.0076 384.12 81.3472 384.12 84.6869C384.12 89.0429 383.389 100.369 376.518 99.7879C375.934 99.7879 375.495 99.6427 375.056 99.3523C377.98 102.982 380.757 106.903 383.389 110.823C382.219 107.338 384.12 101.24 385.289 99.0619C387.482 94.851 391.282 91.6566 394.937 88.4621C394.206 91.6566 394.352 94.9962 394.352 98.3359C394.352 102.692 393.621 114.018 386.751 113.437C385.874 113.437 385.143 113.146 384.704 112.711C394.791 128.828 401.515 147.124 404 165.855L402.977 166C400.638 147.559 394.06 129.7 384.12 113.872C384.12 114.163 383.973 114.453 383.973 114.889C381.927 121.423 371.11 117.938 367.017 116.341C363.947 115.179 360.877 113.872 357.515 113.292C361.754 111.114 366.14 108.79 370.963 108.355C373.302 108.064 378.711 108.5 381.927 110.388C379.734 107.048 377.249 103.708 374.764 100.514C374.764 100.949 374.764 101.385 374.618 101.821C372.571 108.355 361.754 104.87 357.661 103.273C354.591 102.111 351.522 100.804 348.159 100.223C352.399 98.0455 356.784 95.7222 361.608 95.2866C363.801 94.9962 368.625 95.4318 371.841 96.8838C369.063 93.5442 365.993 90.3498 362.777 87.3005C362.924 87.8813 362.924 88.6073 362.777 89.4785C360.731 96.0126 349.914 92.5278 345.821 90.9306C342.751 89.7689 339.681 88.4621 336.319 87.8813C340.558 85.7033 344.943 83.3801 349.767 82.9444C351.814 82.7992 356.492 83.0896 359.708 84.3965C356.492 81.4924 353.13 78.7336 349.621 76.12C350.06 76.846 350.06 77.7172 349.767 78.8788C347.721 85.4129 336.904 81.928 332.811 80.3308C329.741 79.1692 326.671 77.8624 323.309 77.2816C327.548 75.1035 331.934 72.7803 336.757 72.3447C338.658 72.1995 342.605 72.3447 345.674 73.5063C343.189 71.9091 340.704 70.3119 338.219 68.8598C334.857 72.4899 326.525 67.6982 323.894 65.375Z" fill="url(#paint0_linear)"/>
<path d="M-13.5336 382.547C-9.39483 392.279 15.8855 379.639 21.3666 375.724C22.8208 374.717 24.275 373.486 25.6173 372.368C26.2884 371.809 26.8477 371.249 27.407 370.69C30.0917 368.229 32.6644 365.433 35.2372 362.636C35.6847 362.189 36.1321 361.629 36.5795 361.182C39.1523 358.274 41.7251 355.365 44.4097 352.569C44.969 352.009 45.5283 351.45 46.0876 350.891C47.0944 349.884 48.1011 348.877 49.2197 347.871C50.4501 346.752 51.6806 345.633 53.0229 344.627C53.5822 344.067 54.2534 343.62 54.9245 343.172C57.1617 341.383 59.3989 339.817 61.748 338.251C62.4191 337.803 62.9784 337.356 63.6496 337.02C66.1105 335.454 68.5714 333.888 71.0323 332.322L72.4865 331.427C75.7305 329.414 78.9744 327.4 82.2183 325.387C82.6658 325.163 83.1132 324.827 83.5606 324.604C84.6792 323.821 85.9097 323.038 87.0283 322.367C99.6684 313.865 111.637 302.903 116 288.361C108.953 300.666 96.0889 309.391 82.1065 311.181C74.8356 312.187 67.341 311.404 60.4057 313.865C52.5755 316.55 46.6469 322.814 40.0472 327.624C29.5324 335.23 22.9326 329.078 10.8518 333.553C-10.7371 341.495 -3.24254 357.043 -6.71019 362.972C-9.73041 367.11 -15.7708 377.29 -13.5336 382.547Z" fill="url(#paint1_linear)"/>
<path opacity="0.37" d="M70.6968 332.21C70.2493 330.421 70.2493 326.282 70.2493 325.611C70.473 322.59 71.4798 320.13 72.3747 317.221C71.4798 320.241 71.1442 323.485 71.4798 326.617C71.4798 327.065 72.1509 329.526 72.1509 331.204L70.6968 332.21Z" fill="#FFF7FB"/>
<path opacity="0.37" d="M83.2251 324.492C83.2251 324.268 83.1132 324.156 83.1132 324.045C82.7776 320.912 83.1132 317.669 84.0081 314.648C83.1132 317.445 82.1065 320.018 81.9946 323.038C81.9946 323.373 81.9946 324.268 81.9946 325.387C82.3302 325.051 82.7776 324.716 83.2251 324.492Z" fill="#FFF7FB"/>
<path opacity="0.37" d="M63.3142 336.908C63.0905 335.119 62.643 333.329 62.643 332.881C62.3075 329.078 62.643 325.163 63.6498 321.584C62.643 325.051 61.4126 327.96 61.1889 331.651C61.1889 332.322 61.077 335.79 61.4126 338.251C62.0837 337.691 62.7549 337.356 63.3142 336.908Z" fill="#FFF7FB"/>
<path opacity="0.37" d="M52.7992 344.515C53.3585 343.956 54.0297 343.508 54.7008 343.061C54.4771 341.271 54.0297 339.481 54.0297 339.034C53.5822 335.23 54.0297 331.315 55.0364 327.736C54.0297 331.203 52.7992 334.112 52.5755 337.803C52.4636 338.363 52.4637 342.054 52.7992 344.515Z" fill="#FFF7FB"/>
<path opacity="0.37" d="M44.2977 352.569C44.857 352.009 45.4163 351.45 45.9756 350.891C45.9756 348.877 45.1926 346.193 45.1926 345.633C44.857 341.83 45.1926 337.915 46.1993 334.336C45.1926 337.803 43.9622 340.712 43.7384 344.403C43.6266 345.186 43.6266 350.443 44.2977 352.569Z" fill="#FFF7FB"/>
<path opacity="0.37" d="M35.2373 362.636C34.2306 361.406 34.3424 354.694 34.3424 353.799C34.5662 350.22 35.7966 347.2 36.8034 343.732C35.6848 347.423 35.3492 351.227 35.7966 355.03C35.9085 355.589 36.8034 359.057 36.5796 361.182L35.2373 362.636Z" fill="#FFF7FB"/>
<path opacity="0.37" d="M25.6173 372.256C24.7224 370.131 24.7224 363.196 24.8343 362.077C25.058 357.714 26.624 354.247 27.8545 350.22C26.5121 354.582 26.1766 359.169 26.624 363.643C26.7359 364.314 27.6307 368.117 27.5189 370.578L25.6173 372.256Z" fill="#FFF7FB"/>
<path d="M-47.1054 405C-41.4691 391.793 -34.8487 379.036 -27.3336 366.818C-27.2441 366.728 -27.1547 366.638 -27.0652 366.548C-27.1547 367.087 -27.2441 366.009 -27.0652 366.548C-22.2341 364.032 -17.403 367.357 -12.3035 368.165C-5.23578 369.243 2.27926 367.357 8.00502 362.954C13.7308 358.642 17.6672 351.904 18.6513 344.806C15.1622 349.029 9.52592 350.826 4.15803 351.724C-1.20987 352.623 -6.84615 352.713 -12.0351 354.419C-14.5401 355.228 -20.1764 358.103 -23.755 361.517C-23.6656 361.337 -23.5761 361.068 -23.4866 360.888C-21.3395 357.564 -19.1923 354.33 -16.8662 351.095C-11.8562 343.908 -6.48829 336.99 -0.852005 330.342C-3.80435 337.709 11.7625 338.607 17.9356 336.002C24.6455 333.127 30.0134 327.198 32.25 320.19C22.9456 324.682 12.6572 318.573 4.06857 324.682C7.82609 320.46 11.6731 316.327 15.699 312.374C15.699 312.554 15.7885 312.643 15.7885 312.823C16.6831 314.979 23.9298 313.632 25.7191 313.272C33.7709 311.925 38.1547 307.522 44.5067 303.21C41.3754 305.276 37.439 305.546 33.6814 305.456C29.9239 305.366 26.0769 305.007 22.4983 306.085C22.2299 306.175 21.9615 306.265 21.6037 306.444C24.1982 303.929 26.8821 301.503 29.5661 299.167C29.9239 299.437 30.3712 299.706 30.8186 299.886C36.9916 302.581 45.8487 294.945 49.4273 290.722C53.4532 286.05 56.2266 280.48 59 275C54.9741 277.605 50.2324 278.773 45.5803 280.031C40.9281 281.289 36.2759 282.816 32.6079 285.961C29.5661 288.656 26.0769 295.035 28.8503 298.449C25.2717 301.593 21.6931 304.917 18.2935 308.241C18.5619 307.792 18.7408 307.253 19.0092 306.624C21.3353 299.886 21.9615 292.16 21.8721 285.062C21.8721 284.164 21.5142 281.828 21.5142 281.828C21.5142 281.828 19.4565 283.176 18.9197 283.625C15.8779 286.41 12.7467 289.195 10.51 292.609C8.27341 296.023 6.93144 300.335 7.73662 304.378C8.8102 309.319 12.3888 312.194 15.4306 311.026C6.93144 319.561 -1.1204 328.545 -8.54599 338.068C-8.36706 337.709 -8.09866 337.35 -7.91973 337.08C-6.30936 334.924 -4.52007 332.858 -2.99916 330.612C4.15803 319.831 4.15803 304.737 -2.9097 293.956C-2.10451 295.124 -6.48829 305.276 -7.02508 307.073C-8.27759 311.655 -9.44063 316.237 -10.5142 320.909C-11.5878 325.67 -12.393 330.432 -13.1982 335.193C-13.3771 336.631 -14.9875 343.728 -13.2876 344.178C-14.8085 346.244 -16.3294 348.31 -17.7609 350.377C-19.0134 352.173 -20.2659 353.97 -21.4289 355.767C-19.3712 350.287 -19.0134 344.447 -18.8344 338.518C-18.6555 332.049 -18.3871 325.581 -18.2082 319.202C-18.2082 318.214 -18.4766 308.511 -18.4766 308.511C-18.4766 308.511 -23.2182 317.854 -23.6656 318.753C-29.3018 328.366 -32.5226 339.416 -32.9699 350.556C-33.1488 354.689 -34.1329 363.673 -30.4649 366.638C-29.8386 367.177 -29.2124 367.357 -28.6756 367.357C-36.1012 379.395 -42.5426 391.883 -48 404.641L-47.1054 405Z" fill="url(#paint2_linear)"/>
<path d="M-13.8694 392.279C-13.8694 385.791 -13.5338 374.717 -6.0392 368.788C6.26537 359.056 23.6036 361.629 33.4473 365.768C41.0538 369.012 40.1589 371.585 46.8705 373.263C58.6157 376.171 65.7748 369.459 72.9338 374.046C75.954 375.947 79.6454 380.198 78.8623 384.113C75.8421 398.767 49.667 404.472 26.4001 403.8C8.61443 403.353 -5.36804 397.089 -13.8694 392.279Z" fill="url(#paint3_linear)"/>
<path d="M78.8625 384.113C75.8423 398.767 49.6671 404.471 26.4003 403.8C8.61456 403.353 -5.25605 397.089 -13.7574 392.279C-13.7574 391.831 -13.7574 391.272 -13.7574 390.713C-13.6455 384.113 -12.8625 374.269 -5.9272 368.9C6.48923 359.168 23.7156 361.741 33.5593 365.88C41.1657 369.124 40.2709 371.697 46.9824 373.374C58.7277 376.283 65.8867 369.571 73.0458 374.157C73.2695 374.269 73.6051 374.493 73.8288 374.717C76.5134 376.73 79.5336 380.533 78.8625 384.113Z" fill="#008B8C"/>
<path opacity="0.2" d="M73.7168 374.605C71.5915 378.632 67.9001 381.764 63.8731 384.001C53.9176 389.482 41.3893 390.042 31.0982 385.344C28.078 384.001 15.4379 379.303 11.9702 379.303C8.27885 379.303 4.58747 379.974 1.00796 381.093C-4.58503 382.994 -9.84243 386.238 -13.8694 390.601C-13.7575 384.001 -12.9745 374.158 -6.0392 368.788C6.37723 359.056 23.6036 361.629 33.4473 365.768C41.0538 369.012 40.1589 371.585 46.8705 373.263C58.6157 376.171 65.7748 369.459 72.9338 374.046C73.1575 374.158 73.3812 374.381 73.7168 374.605Z" fill="#80BEAE"/>
<path d="M33.7829 387.021C31.5457 385.567 15.3261 375.723 -2.45965 381.988C-19.7979 388.14 -27.74 420.244 -29.4178 443.511" stroke="#58B3A2" stroke-miterlimit="10" stroke-linecap="round" stroke-linejoin="round"/>
<path d="M362.547 374.534C372.279 370.395 359.639 345.115 355.724 339.633C354.717 338.179 353.486 336.725 352.368 335.383C351.809 334.712 351.249 334.152 350.69 333.593C348.229 330.908 345.433 328.336 342.636 325.763C342.189 325.315 341.629 324.868 341.182 324.42C338.274 321.848 335.365 319.275 332.569 316.59C332.009 316.031 331.45 315.472 330.891 314.912C329.884 313.906 328.877 312.899 327.871 311.78C326.752 310.55 325.633 309.319 324.627 307.977C324.067 307.418 323.62 306.747 323.172 306.075C321.383 303.838 319.817 301.601 318.251 299.252C317.803 298.581 317.356 298.022 317.02 297.35C315.454 294.889 313.888 292.429 312.322 289.968L311.427 288.513C309.414 285.27 307.4 282.026 305.387 278.782C305.163 278.334 304.827 277.887 304.604 277.439C303.821 276.321 303.038 275.09 302.367 273.972C293.865 261.332 282.903 249.363 268.361 245C280.666 252.047 289.391 264.911 291.181 278.894C292.187 286.164 291.404 293.659 293.865 300.594C296.55 308.425 302.814 314.353 307.624 320.953C315.23 331.468 309.078 338.067 313.553 350.148C321.495 371.737 337.043 364.243 342.972 367.71C347.11 370.73 357.29 376.771 362.547 374.534Z" fill="url(#paint4_linear)"/>
<path opacity="0.37" d="M312.21 290.303C310.421 290.751 306.282 290.751 305.611 290.751C302.59 290.527 300.129 289.52 297.221 288.625C300.241 289.52 303.485 289.856 306.617 289.52C307.065 289.52 309.526 288.849 311.204 288.849L312.21 290.303Z" fill="#FFF7FB"/>
<path opacity="0.37" d="M304.492 277.775C304.268 277.775 304.156 277.887 304.044 277.887C300.912 278.222 297.668 277.887 294.648 276.992C297.445 277.887 300.018 278.894 303.038 279.005C303.373 279.005 304.268 279.005 305.387 279.005C305.051 278.67 304.716 278.222 304.492 277.775Z" fill="#FFF7FB"/>
<path opacity="0.37" d="M316.908 297.686C315.119 297.91 313.329 298.357 312.881 298.357C309.078 298.693 305.163 298.357 301.584 297.35C305.051 298.357 307.96 299.587 311.651 299.811C312.322 299.811 315.79 299.923 318.251 299.587C317.691 298.916 317.356 298.245 316.908 297.686Z" fill="#FFF7FB"/>
<path opacity="0.37" d="M324.515 308.201C323.955 307.642 323.508 306.97 323.061 306.299C321.271 306.523 319.481 306.97 319.034 306.97C315.23 307.418 311.315 306.97 307.736 305.964C311.203 306.97 314.112 308.201 317.803 308.425C318.362 308.536 322.054 308.536 324.515 308.201Z" fill="#FFF7FB"/>
<path opacity="0.37" d="M332.569 316.702C332.009 316.143 331.45 315.584 330.891 315.024C328.877 315.024 326.193 315.807 325.633 315.807C321.83 316.143 317.915 315.807 314.336 314.801C317.803 315.807 320.712 317.038 324.403 317.262C325.186 317.373 330.443 317.373 332.569 316.702Z" fill="#FFF7FB"/>
<path opacity="0.37" d="M342.636 325.763C341.406 326.769 334.694 326.658 333.799 326.658C330.22 326.434 327.199 325.203 323.732 324.197C327.423 325.315 331.226 325.651 335.03 325.203C335.589 325.092 339.057 324.197 341.182 324.42L342.636 325.763Z" fill="#FFF7FB"/>
<path opacity="0.37" d="M352.256 335.383C350.131 336.278 343.195 336.278 342.077 336.166C337.714 335.942 334.247 334.376 330.22 333.146C334.582 334.488 339.169 334.823 343.643 334.376C344.314 334.264 348.117 333.369 350.578 333.481L352.256 335.383Z" fill="#FFF7FB"/>
<path d="M385 408.105C371.793 402.469 359.036 395.849 346.818 388.334C346.728 388.244 346.638 388.155 346.548 388.065C347.087 388.155 346.009 388.244 346.548 388.065C344.032 383.234 347.357 378.403 348.165 373.304C349.243 366.236 347.357 358.721 342.954 352.995C338.642 347.269 331.904 343.333 324.806 342.349C329.029 345.838 330.826 351.474 331.724 356.842C332.623 362.21 332.713 367.846 334.419 373.035C335.228 375.54 338.103 381.176 341.517 384.755C341.337 384.666 341.068 384.576 340.888 384.487C337.564 382.339 334.33 380.192 331.095 377.866C323.908 372.856 316.99 367.488 310.342 361.852C317.709 364.804 318.607 349.237 316.002 343.064C313.127 336.355 307.198 330.987 300.19 328.75C304.682 338.054 298.573 348.343 304.682 356.931C300.46 353.174 296.327 349.327 292.374 345.301C292.554 345.301 292.643 345.212 292.823 345.212C294.979 344.317 293.632 337.07 293.272 335.281C291.925 327.229 287.522 322.845 283.21 316.493C285.276 319.625 285.546 323.561 285.456 327.319C285.366 331.076 285.007 334.923 286.085 338.502C286.175 338.77 286.265 339.038 286.444 339.396C283.929 336.802 281.503 334.118 279.167 331.434C279.437 331.076 279.706 330.629 279.886 330.181C282.581 324.008 274.945 315.151 270.722 311.573C266.05 307.547 260.48 304.773 255 302C257.605 306.026 258.773 310.768 260.031 315.42C261.289 320.072 262.816 324.724 265.961 328.392C268.656 331.434 275.035 334.923 278.449 332.15C281.593 335.728 284.917 339.307 288.241 342.707C287.792 342.438 287.253 342.259 286.624 341.991C279.886 339.665 272.16 339.038 265.062 339.128C264.164 339.128 261.828 339.486 261.828 339.486C261.828 339.486 263.176 341.543 263.625 342.08C266.41 345.122 269.195 348.253 272.609 350.49C276.023 352.727 280.335 354.069 284.378 353.263C289.319 352.19 292.194 348.611 291.026 345.569C299.561 354.069 308.545 362.12 318.068 369.546C317.709 369.367 317.35 369.099 317.08 368.92C314.924 367.309 312.858 365.52 310.612 363.999C299.831 356.842 284.737 356.842 273.956 363.91C275.124 363.105 285.276 367.488 287.073 368.025C291.655 369.278 296.237 370.441 300.909 371.514C305.67 372.588 310.432 373.393 315.193 374.198C316.631 374.377 323.728 375.987 324.178 374.288C326.244 375.809 328.31 377.329 330.377 378.761C332.173 380.013 333.97 381.266 335.767 382.429C330.287 380.371 324.447 380.013 318.518 379.834C312.049 379.656 305.581 379.387 299.202 379.208C298.214 379.208 288.511 379.477 288.511 379.477C288.511 379.477 297.854 384.218 298.753 384.666C308.366 390.302 319.416 393.523 330.556 393.97C334.689 394.149 343.673 395.133 346.638 391.465C347.177 390.839 347.357 390.212 347.357 389.676C359.395 397.101 371.883 403.543 384.641 409L385 408.105Z" fill="url(#paint5_linear)"/>
<path d="M372.279 374.87C365.791 374.87 354.717 374.534 348.788 367.039C339.056 354.735 341.629 337.396 345.768 327.553C349.012 319.946 351.585 320.841 353.263 314.13C356.171 302.384 349.459 295.225 354.046 288.066C355.947 285.046 360.198 281.355 364.113 282.138C378.767 285.158 384.472 311.333 383.8 334.6C383.353 352.386 377.089 366.368 372.279 374.87Z" fill="url(#paint6_linear)"/>
<path d="M364.113 282.138C378.767 285.158 384.471 311.333 383.8 334.6C383.353 352.385 377.089 366.256 372.279 374.757C371.831 374.757 371.272 374.757 370.713 374.757C364.113 374.646 354.269 373.863 348.9 366.927C339.168 354.511 341.741 337.284 345.88 327.441C349.124 319.834 351.697 320.729 353.374 314.018C356.283 302.272 349.571 295.113 354.157 287.954C354.269 287.731 354.493 287.395 354.717 287.171C356.73 284.487 360.533 281.466 364.113 282.138Z" fill="#008B8C"/>
<path opacity="0.2" d="M354.605 287.283C358.632 289.409 361.764 293.1 364.001 297.127C369.482 307.082 370.042 319.611 365.344 329.902C364.001 332.922 359.303 345.562 359.303 349.03C359.303 352.721 359.974 356.413 361.093 359.992C362.994 365.585 366.238 370.843 370.601 374.87C364.001 374.758 354.158 373.975 348.788 367.039C339.056 354.623 341.629 337.396 345.768 327.553C349.012 319.946 351.585 320.841 353.263 314.13C356.171 302.384 349.459 295.225 354.046 288.066C354.158 287.843 354.381 287.619 354.605 287.283Z" fill="#80BEAE"/>
<path d="M367.021 327.217C365.567 329.454 355.724 345.674 361.988 363.46C368.14 380.798 400.244 388.74 423.511 390.418" stroke="#58B3A2" stroke-miterlimit="10" stroke-linecap="round" stroke-linejoin="round"/>
<path d="M229.574 233.413L174.459 233.546L119.343 233.413C119.343 233.413 95.2064 256.029 103.455 313.007C111.703 369.986 149.182 627.832 149.182 627.832H173.166L174.459 513.514L175.751 627.832H199.755C199.755 627.832 237.234 369.967 245.463 313.007C253.692 256.048 229.574 233.413 229.574 233.413Z" fill="#CF7770"/>
<path d="M187.021 63.1814H162.999V94.0082H187.021V63.1814Z" fill="#FA9778"/>
<path d="M187.021 68.4269V72.6461C183.465 75.0183 179.285 76.2842 175.01 76.2842C170.735 76.2842 166.555 75.0183 162.999 72.6461V68.4459C166.557 70.8133 170.736 72.0763 175.01 72.0763C179.284 72.0763 183.463 70.8133 187.021 68.4459V68.4269Z" fill="#290920"/>
<path d="M161.763 84.2775C161.763 84.2775 175.542 101.857 187.915 84.2775C187.915 84.2775 214.332 94.2553 219.806 95.1105C225.279 95.9658 229.65 123.067 229.65 133.33C229.65 143.593 230.354 233.413 230.354 233.413C230.354 233.413 155.586 241.015 119.324 233.413C119.324 233.413 116.93 129.396 123.828 108.737C123.828 108.737 127.63 95.1105 135.764 93.0009C143.898 90.8913 156.841 92.0127 161.763 84.2775Z" fill="#FFDEB0"/>
<path d="M161.364 89.1047C163.472 91.0214 165.801 92.6802 168.301 94.0461C170.678 95.4023 173.357 96.1407 176.093 96.1937C176.731 96.2381 177.371 96.1869 177.994 96.0417C178.643 95.943 179.28 95.7774 179.894 95.5475L181.795 94.7873L183.524 93.685C184.126 93.3381 184.682 92.9167 185.178 92.4306L186.793 91.0432C187.801 90.0359 188.694 88.9336 189.758 87.9073C189.074 89.1807 188.295 90.4161 187.496 91.7084L186.033 93.3619C185.572 93.9561 185.028 94.4809 184.418 94.9203C182.089 96.9694 179.1 98.1098 175.998 98.1323C172.934 98.0825 169.955 97.116 167.446 95.3575C165.02 93.7014 162.952 91.5751 161.364 89.1047Z" fill="#290920"/>
<path d="M44.2148 71.1448C42.1602 73.9344 41.0304 77.2972 40.9839 80.7615C41.231 84.3155 45.8112 96.2509 45.8112 96.2509L60.2364 95.2437C60.2364 95.2437 57.9176 82.8711 55.808 80.4955C53.6984 78.1198 49.4793 69.3203 44.2148 71.1448Z" fill="#FA9778"/>
<path d="M115.124 172.121C110.107 165.83 105.222 159.482 99.9197 153.362C98.0192 151.234 96.2515 149.105 94.484 146.938C92.2793 152.013 89.9798 157.486 87.6611 163.321C71.1074 126.413 61.1677 98.3796 59.4952 93.5902C59.4897 93.5143 59.4897 93.4381 59.4952 93.3622L59.324 92.868L45.8302 96.251C47.1986 135.098 58.5258 173.945 72.4378 207.661L72.6278 208.136C74.1211 211.626 76.6256 214.589 79.8184 216.643C83.0111 218.697 86.746 219.748 90.5414 219.66C94.3368 219.572 98.0189 218.35 101.113 216.15C104.207 213.95 106.572 210.874 107.902 207.319C108.035 206.976 108.168 206.634 108.282 206.311C111.76 196.809 115.504 187.306 119.476 177.803C118.032 175.846 116.587 173.983 115.124 172.121Z" fill="#FA9778"/>
<path d="M135.764 93.001C135.764 93.001 118.906 97.4863 112.159 107.616C105.412 117.746 89.3526 154.845 89.3526 154.845L112.957 196.999C112.957 196.999 159.654 117.48 135.764 93.001Z" fill="#FFDEB0"/>
<path d="M92.9447 194.338C91.6333 189.225 90.588 184.075 89.5427 178.905C88.4974 173.736 87.6422 168.567 86.806 163.378C86.7871 163.257 86.7921 163.133 86.8211 163.014C86.85 162.895 86.9023 162.783 86.9747 162.684C87.0471 162.585 87.1383 162.502 87.2431 162.438C87.3479 162.375 87.4639 162.332 87.5851 162.314C87.7969 162.287 88.0116 162.333 88.1943 162.443C88.377 162.554 88.5172 162.722 88.5924 162.922C89.8658 166.495 91.1012 170.087 92.2605 173.698C92.8307 175.599 93.4579 177.309 93.9711 179.134C94.4842 180.958 95.0733 182.783 95.5675 184.626C94.7502 182.897 94.0091 181.148 93.2298 179.419C92.4506 177.689 91.7664 175.903 91.0442 174.154C89.5744 170.644 88.1805 167.109 86.8628 163.549L88.6304 163.093C89.5617 168.262 90.3788 173.451 91.1391 178.658C91.8993 183.866 92.5266 189.073 92.9447 194.338Z" fill="#290920"/>
<path d="M43.7207 21.8637L49.4224 16.9983C49.6271 16.8179 49.8907 16.7184 50.1636 16.7184C50.4365 16.7184 50.7001 16.8179 50.9048 16.9983L56.4733 21.8637C58.262 23.428 59.6959 25.3563 60.6792 27.5195C61.6625 29.6827 62.1725 32.031 62.1749 34.4072V54.1159C62.1749 55.5322 61.6123 56.8906 60.6108 57.8922C59.6092 58.8937 58.2509 59.4564 56.8345 59.4564H43.3407C41.9243 59.4564 40.5658 58.8937 39.5642 57.8922C38.5627 56.8906 38.0001 55.5322 38.0001 54.1159V34.4833C37.9916 32.0924 38.4982 29.7277 39.4854 27.5501C40.4725 25.3725 41.917 23.4331 43.7207 21.8637Z" fill="#BDDBF2"/>
<path d="M50.0306 86.2541C49.747 86.2541 49.4661 86.1979 49.2043 86.0888C48.9425 85.9797 48.7049 85.8198 48.5052 85.6184C48.3056 85.4169 48.1478 85.1779 48.041 84.9152C47.9342 84.6524 47.8805 84.3711 47.883 84.0875V39.3108C47.8805 39.028 47.9342 38.7476 48.0412 38.4859C48.1483 38.2242 48.3062 37.9865 48.5062 37.7865C48.7061 37.5866 48.9439 37.4285 49.2056 37.3215C49.4674 37.2145 49.7479 37.1606 50.0306 37.1632C50.3143 37.1607 50.5954 37.2144 50.8582 37.3212C51.1209 37.428 51.3599 37.5857 51.5614 37.7854C51.7628 37.9851 51.9228 38.2227 52.0319 38.4845C52.141 38.7463 52.1971 39.0271 52.1971 39.3108V84.0875C52.1971 84.6621 51.9689 85.2132 51.5625 85.6195C51.1562 86.0258 50.6053 86.2541 50.0306 86.2541Z" fill="#42A3E8"/>
<path d="M52.2731 68.8262H47.7878C46.9586 68.8262 46.2863 69.4984 46.2863 70.3276V89.0669C46.2863 89.8962 46.9586 90.5683 47.7878 90.5683H52.2731C53.1023 90.5683 53.7746 89.8962 53.7746 89.0669V70.3276C53.7746 69.4984 53.1023 68.8262 52.2731 68.8262Z" fill="#004B80"/>
<path d="M48.0159 65.177C48.0159 65.177 42.9606 63.5616 44.0819 66.9255C44.0819 66.9255 41.402 68.541 43.7207 72.3421C43.2291 72.6292 42.8108 73.0262 42.4983 73.502C42.1858 73.9779 41.9878 74.5196 41.9197 75.0847C41.8516 75.6499 41.9153 76.2231 42.1057 76.7596C42.2962 77.296 42.6082 77.7811 43.0175 78.1768C43.0175 78.1768 47.94 80.5524 49.0613 78.3098C50.1826 76.0671 47.1608 73.5964 47.1608 73.5964C47.1608 73.5964 50.1066 75.782 50.9619 74.5847C51.8171 73.3874 49.8974 69.3202 49.8974 69.3202C49.8974 69.3202 52.4252 69.6623 52.5773 68.0469C52.7293 66.4314 48.0159 65.177 48.0159 65.177Z" fill="#FA9778"/>
<path d="M56.8536 83.0231C56.8536 83.0231 55.5802 72.4751 52.7674 72.19C51.1519 72.038 51.3039 75.8771 51.722 79.165C51.8031 79.7543 52.0012 80.3215 52.3045 80.8332C52.6078 81.345 53.0102 81.791 53.4882 82.145C53.9662 82.4991 54.5101 82.7541 55.088 82.8951C55.666 83.0361 56.2662 83.0603 56.8536 82.9661V83.0231Z" fill="#FA9778"/>
<path d="M230.734 219.881L213.097 201.788L202.682 89.3519L192.571 85.4178L188.352 132.931H163.531L159.312 85.4178L149.182 89.3519L138.786 201.788L121.149 219.881C118.402 222.7 116.855 226.474 116.834 230.41L116.017 397.429H235.865L235.048 230.41C235.027 226.474 233.48 222.7 230.734 219.881Z" fill="#FF4313"/>
<path d="M185.045 190.118C184.813 179.765 182.707 169.54 178.83 159.938C176.83 155.144 174.231 150.623 171.095 146.482C167.864 142.38 164.017 138.802 159.692 135.877L160.224 135.003C164.808 137.796 168.925 141.291 172.425 145.361C175.891 149.478 178.811 154.026 181.111 158.893C183.384 163.78 185.191 168.87 186.508 174.097C187.855 179.348 188.72 184.71 189.093 190.118H185.045Z" fill="#56B19A"/>
<path d="M206.863 141.256C205.365 142.902 204.023 144.683 202.853 146.577C200.434 150.572 198.422 154.8 196.847 159.197C195.232 163.555 193.849 167.996 192.704 172.5C191.526 177.024 190.537 181.509 189.739 186.184L194.718 186.793C195.137 182.364 195.802 177.822 196.619 173.375C197.417 168.889 198.451 164.448 199.717 160.071C200.923 155.723 202.566 151.507 204.62 147.489C205.579 145.621 206.718 143.852 208.022 142.206C207.613 141.918 207.225 141.601 206.863 141.256Z" fill="#56B19A"/>
<path d="M207.623 181.186H169.974C168.767 181.186 167.788 182.165 167.788 183.372V189.415C167.788 190.622 168.767 191.601 169.974 191.601H207.623C208.83 191.601 209.809 190.622 209.809 189.415V183.372C209.809 182.165 208.83 181.186 207.623 181.186Z" fill="white"/>
<path d="M204.829 185.823H172.805C171.745 185.823 170.886 186.683 170.886 187.743V213.59C170.886 214.65 171.745 215.51 172.805 215.51H204.829C205.89 215.51 206.749 214.65 206.749 213.59V187.743C206.749 186.683 205.89 185.823 204.829 185.823Z" fill="white"/>
<path d="M161.44 136.086C161.44 136.086 144.088 115.18 135.859 120.008C127.629 124.835 154.75 136.086 161.44 136.086Z" fill="#56B19A"/>
<path d="M166.838 141.351C166.838 141.351 160.661 118.088 168.491 116.549C176.321 115.009 166.838 141.351 166.838 141.351Z" fill="#56B19A"/>
<path d="M167.75 141.218C167.75 141.218 140.952 140.248 141.142 148.421C141.389 158.95 167.75 141.218 167.75 141.218Z" fill="#56B19A"/>
<path d="M174.668 149.58C174.668 149.58 165.678 128.674 177.234 122.326C183.144 119.114 174.668 149.58 174.668 149.58Z" fill="#56B19A"/>
<path d="M174.421 148.288C174.421 148.288 149.22 152.279 150.379 158.703C151.538 165.126 168.757 162.162 174.421 148.288Z" fill="#56B19A"/>
<path d="M179.932 158.95C179.932 158.95 180.578 129.529 186.242 130.936C191.906 132.342 186.622 152.792 179.932 158.95Z" fill="#56B19A"/>
<path d="M182.118 164.993C182.118 164.993 158.855 165.773 159.502 173.603C160.148 181.433 182.118 164.993 182.118 164.993Z" fill="#56B19A"/>
<path d="M183.923 171.417C183.923 171.417 183.277 153.039 189.625 151.5C195.973 149.96 183.923 171.417 183.923 171.417Z" fill="#56B19A"/>
<path d="M204.487 146.368C204.487 146.368 219.692 139.545 224.671 143.783C229.65 148.022 207.186 148.554 204.487 146.368Z" fill="#56B19A"/>
<path d="M200.496 153.818C200.496 153.818 221.193 146.482 224.538 151.499C227.883 156.517 206.027 158.303 200.496 153.818Z" fill="#56B19A"/>
<path d="M204.487 146.102C204.487 146.102 206.388 131.449 199.337 128.75C192.286 126.051 197.93 144.563 204.487 146.102Z" fill="#56B19A"/>
<path d="M200.496 153.818C200.496 153.818 196.695 138.785 191.754 139.545C186.812 140.305 195.745 154.845 200.496 153.818Z" fill="#56B19A"/>
<path d="M195.365 169.745C195.365 169.745 213.743 155.091 221.326 161.401C228.909 167.711 200.249 171.284 195.365 169.745Z" fill="#56B19A"/>
<path d="M172.292 190.537C182.548 189.27 192.92 189.27 203.176 190.537C198.061 191.223 192.904 191.54 187.744 191.487C182.577 191.53 177.414 191.213 172.292 190.537Z" fill="#290920"/>
<path d="M306.489 166.096L306.261 165.849C293.699 151.918 281.288 139.773 270.322 129.738L245.615 154.445C254.129 162.047 262.416 169.65 270.322 177.461C236.454 187.838 213.306 193.045 213.306 193.045L215.206 206.862C241.514 208.489 267.921 206.571 293.718 201.161L295.067 200.894C298.702 200.137 302.074 198.435 304.842 195.96C307.61 193.485 309.677 190.324 310.835 186.796C311.993 183.268 312.201 179.497 311.438 175.863C310.675 172.229 308.968 168.86 306.489 166.096Z" fill="#FA9778"/>
<path d="M215.719 206.672C215.719 206.672 196.847 214.274 190.537 212.849C189.131 212.545 191.506 210.948 195.003 209.447C195.003 209.447 185.235 210.511 184.075 210.093C182.916 209.675 196.657 205.152 196.657 205.152C196.657 205.152 181.453 207.565 180.711 206.406C179.97 205.247 194.205 201.598 194.205 201.598C194.205 201.598 182.004 203.498 181.32 202.282C180.635 201.066 197.512 197.036 197.512 197.036C197.512 197.036 191.811 192.798 193.464 191.639C195.118 190.48 202.036 192.285 204.582 193.387C207.129 194.49 217.411 192.342 217.411 192.342L215.719 206.672Z" fill="#FA9778"/>
<path d="M208.859 91.8796H208.573V128.883C223.094 145.304 245.938 165.716 251.583 163.264C260.002 159.615 282.219 139.659 282.219 139.659C247.572 96.9351 208.859 91.8796 208.859 91.8796Z" fill="#FFDEB0"/>
<path d="M286.325 178.658C284.918 178.81 283.493 178.81 282.086 178.905H277.848C275.035 178.905 272.147 178.772 269.41 178.62C269.163 178.601 268.933 178.488 268.766 178.304C268.6 178.12 268.511 177.88 268.517 177.632C268.527 177.444 268.591 177.263 268.703 177.111C268.814 176.959 268.967 176.843 269.144 176.777C274.106 174.925 279.185 173.401 284.348 172.216C279.613 174.646 274.724 176.767 269.714 178.563L269.448 176.663C272.261 176.834 275.149 177.043 277.867 177.347C279.273 177.48 280.661 177.67 282.067 177.86C283.474 178.05 284.937 178.297 286.325 178.658Z" fill="#290920"/>
<path d="M200.059 37.8283C198.935 37.5975 197.771 37.6564 196.676 37.9993V32.7728C196.676 27.0266 194.393 21.5158 190.33 17.4526C186.267 13.3894 180.756 11.1067 175.01 11.1067C172.164 11.1042 169.345 11.6629 166.716 12.7508C164.086 13.8388 161.697 15.4346 159.684 17.447C157.672 19.4594 156.076 21.8488 154.988 24.4786C153.9 27.1084 153.341 29.9269 153.344 32.7728V37.9993C152.219 37.6459 151.021 37.5917 149.869 37.8421C148.717 38.0925 147.65 38.6389 146.773 39.4274C145.896 40.2159 145.24 41.2193 144.869 42.3386C144.498 43.4579 144.426 44.6546 144.658 45.8105C145.399 49.4786 149.6 54.9331 153.268 54.1919C153.406 54.165 153.54 54.1203 153.667 54.0589C154.528 59.0952 157.143 63.6646 161.049 66.9585C164.955 70.2523 169.9 72.0584 175.01 72.057C180.116 72.0539 185.057 70.2458 188.959 66.9523C192.861 63.6589 195.473 59.092 196.334 54.0589C196.468 54.1177 196.608 54.1622 196.752 54.1919C200.42 54.9331 204.62 49.4786 205.362 45.8105C205.715 44.0491 205.355 42.2196 204.36 40.7232C203.366 39.2269 201.82 38.1858 200.059 37.8283Z" fill="#FA9778"/>
<path d="M147.433 42.3897C148.172 42.228 148.937 42.228 149.676 42.3897C150.434 42.5218 151.159 42.8063 151.804 43.2259C152.471 43.6617 153.004 44.2735 153.344 44.9934C153.684 45.6887 153.803 46.4711 153.686 47.236C153.436 46.5605 153.097 45.9214 152.679 45.3355C152.275 44.8209 151.794 44.3721 151.253 44.0051C150.056 43.3016 148.772 42.7585 147.433 42.3897Z" fill="#290920"/>
<path d="M150.208 49.6687C149.853 49.1983 149.612 48.6517 149.505 48.0722C149.381 47.4767 149.381 46.8622 149.505 46.2667C149.658 45.6516 149.98 45.0919 150.436 44.6512C150.88 44.2361 151.447 43.976 152.051 43.91C151.665 44.2847 151.326 44.7061 151.044 45.1644C150.798 45.5793 150.612 46.0273 150.493 46.4948C150.295 47.5409 150.199 48.604 150.208 49.6687Z" fill="#290920"/>
<path d="M202.53 42.3896C201.196 42.7643 199.918 43.3139 198.729 44.0241C198.182 44.3906 197.694 44.8394 197.284 45.3544C196.873 45.945 196.535 46.5831 196.277 47.255C196.172 46.4901 196.29 45.711 196.619 45.0123C196.965 44.2961 197.496 43.6857 198.158 43.2448C198.81 42.8228 199.541 42.5382 200.306 42.4086C201.037 42.2404 201.796 42.2339 202.53 42.3896Z" fill="#290920"/>
<path d="M199.755 49.6687C199.764 48.604 199.668 47.5409 199.47 46.4948C199.357 46.0281 199.178 45.58 198.938 45.1644C198.642 44.7102 198.298 44.2896 197.911 43.91C198.517 43.9719 199.085 44.2325 199.527 44.6512C199.988 45.0872 200.312 45.6488 200.458 46.2667C200.591 46.8612 200.591 47.4778 200.458 48.0722C200.356 48.6534 200.115 49.2012 199.755 49.6687Z" fill="#290920"/>
<path d="M191.887 52.6145C191.887 53.7421 191.553 54.8445 190.926 55.7821C190.3 56.7198 189.409 57.4505 188.367 57.8821C187.325 58.3136 186.179 58.4265 185.073 58.2065C183.967 57.9865 182.951 57.4435 182.154 56.6461C181.356 55.8487 180.813 54.8328 180.593 53.7268C180.373 52.6208 180.486 51.4744 180.918 50.4326C181.349 49.3907 182.08 48.5003 183.018 47.8738C183.955 47.2473 185.057 46.9128 186.185 46.9128C187.697 46.9128 189.148 47.5135 190.217 48.5828C191.286 49.6521 191.887 51.1023 191.887 52.6145Z" fill="#FA7C55"/>
<path d="M169.346 52.6145C169.346 53.7421 169.012 54.8445 168.385 55.7821C167.759 56.7198 166.868 57.4505 165.827 57.8821C164.785 58.3136 163.639 58.4265 162.533 58.2065C161.426 57.9865 160.41 57.4435 159.613 56.6461C158.816 55.8487 158.273 54.8328 158.053 53.7268C157.833 52.6208 157.946 51.4744 158.377 50.4326C158.809 49.3907 159.54 48.5003 160.477 47.8738C161.415 47.2473 162.517 46.9128 163.645 46.9128C165.157 46.9128 166.607 47.5135 167.676 48.5828C168.746 49.6521 169.346 51.1023 169.346 52.6145Z" fill="#FA7C55"/>
<path d="M169.46 52.8616C171.052 53.7718 172.81 54.3534 174.63 54.572C175.492 54.637 176.357 54.5004 177.157 54.1729C178.023 53.8335 178.846 53.3933 179.609 52.8616C179.155 53.769 178.458 54.5323 177.595 55.0662C176.689 55.6391 175.623 55.9056 174.554 55.8264C173.537 55.7457 172.551 55.4373 171.669 54.9241C170.788 54.4109 170.033 53.706 169.46 52.8616Z" fill="#290920"/>
<path d="M174.44 38.7217C174.632 39.7963 174.759 40.8816 174.82 41.9716C174.895 42.5457 174.895 43.127 174.82 43.7011C174.685 44.287 174.44 44.8418 174.098 45.3355C173.489 46.2668 172.615 47.0651 172.596 47.8443C172.577 48.6235 173.566 49.4977 174.497 49.9729C173.898 49.9495 173.321 49.7416 172.844 49.3776C172.368 49.0136 172.016 48.5112 171.836 47.9393C171.787 47.6056 171.806 47.2655 171.891 46.9391C171.976 46.6127 172.125 46.3066 172.33 46.0388C172.634 45.5636 172.976 45.1265 173.261 44.7084C173.818 43.8749 174.122 42.8979 174.136 41.8956C174.183 40.8332 174.285 39.7739 174.44 38.7217Z" fill="#290920"/>
<path d="M159.958 36.384C160.584 35.6127 161.352 34.9677 162.219 34.4834C163.084 33.9628 164.038 33.6082 165.032 33.4381C167.003 33.0201 169.057 33.2954 170.848 34.2173C171.078 34.3327 171.259 34.5277 171.357 34.7662C171.454 35.0047 171.462 35.2705 171.378 35.5143C171.295 35.758 171.126 35.9632 170.902 36.0917C170.679 36.2201 170.416 36.2632 170.164 36.2129C169.346 36.0609 168.567 35.8898 167.788 35.7948C167.008 35.6774 166.218 35.6456 165.431 35.6998C163.832 35.8318 162.293 36.3752 160.965 37.2772C160.826 37.3741 160.654 37.4124 160.487 37.384C160.32 37.3555 160.171 37.2626 160.072 37.1252C159.975 37.0304 159.912 36.907 159.892 36.7735C159.871 36.6399 159.894 36.5033 159.958 36.384Z" fill="#3C0525"/>
<path d="M166.99 45.4876C168.333 45.4876 169.422 44.3984 169.422 43.0549C169.422 41.7113 168.333 40.6222 166.99 40.6222C165.646 40.6222 164.557 41.7113 164.557 43.0549C164.557 44.3984 165.646 45.4876 166.99 45.4876Z" fill="#3C0525"/>
<path d="M188.181 37.239C187.512 36.7918 186.79 36.428 186.033 36.1557C185.283 35.8969 184.505 35.731 183.714 35.6616C182.934 35.6077 182.15 35.6396 181.377 35.7566C180.598 35.8516 179.818 36.0227 178.982 36.1747C178.729 36.225 178.467 36.182 178.243 36.0535C178.02 35.925 177.851 35.7198 177.767 35.4761C177.684 35.2323 177.692 34.9665 177.789 34.728C177.887 34.4895 178.067 34.2945 178.298 34.1791C180.088 33.2557 182.143 32.9804 184.113 33.3999C185.101 33.5736 186.048 33.928 186.907 34.4452C187.785 34.9227 188.56 35.5685 189.188 36.3458C189.271 36.4682 189.309 36.6153 189.297 36.7625C189.284 36.9098 189.222 37.0484 189.119 37.1551C189.017 37.2618 188.881 37.3302 188.735 37.349C188.588 37.3677 188.439 37.3356 188.314 37.258L188.181 37.239Z" fill="#3C0525"/>
<path d="M179.666 43.0549C179.666 43.536 179.809 44.0064 180.076 44.4064C180.344 44.8065 180.724 45.1183 181.168 45.3024C181.613 45.4865 182.102 45.5347 182.574 45.4408C183.045 45.347 183.479 45.1153 183.819 44.7751C184.159 44.4349 184.391 44.0014 184.485 43.5295C184.579 43.0576 184.531 42.5684 184.346 42.1239C184.162 41.6794 183.851 41.2995 183.45 41.0322C183.05 40.7649 182.58 40.6222 182.099 40.6222C181.454 40.6222 180.835 40.8785 180.379 41.3347C179.923 41.7909 179.666 42.4097 179.666 43.0549Z" fill="#3C0525"/>
<path d="M158.532 32.2786C158.532 32.2786 158.114 41.7813 156.632 41.9714C155.149 42.1614 153.534 38.4744 153.534 38.4744C150.151 36.5738 146.369 39.7287 146.369 39.7287C140.876 29.8839 145.38 23.7072 145.38 23.7072C145.38 23.7072 140.325 7.11548 156.632 1.22381C172.938 -4.66786 198.938 12.627 198.938 12.627C207.509 18.9558 204.639 41.1351 204.639 41.1351C203.825 39.8312 202.614 38.8229 201.184 38.2585C199.754 37.694 198.18 37.6031 196.695 37.9992C196.695 37.9992 194.376 43.7009 192.4 43.1117C190.423 42.5225 190.993 33.3999 190.993 33.3999C190.993 33.3999 176.53 32.9818 168.377 26.653L158.532 32.2786Z" fill="#3C0525"/>
<defs>
<linearGradient id="paint0_linear" x1="360" y1="51" x2="360" y2="166" gradientUnits="userSpaceOnUse">
<stop stop-color="#80BEAE"/>
<stop offset="1" stop-color="#009494" stop-opacity="0"/>
</linearGradient>
<linearGradient id="paint1_linear" x1="85.7157" y1="295.478" x2="-86.8506" y2="442.599" gradientUnits="userSpaceOnUse">
<stop stop-color="#56B19A"/>
<stop offset="1" stop-color="#1F9E96"/>
</linearGradient>
<linearGradient id="paint2_linear" x1="5.5" y1="275" x2="5.5" y2="405" gradientUnits="userSpaceOnUse">
<stop stop-color="#80BEAE"/>
<stop offset="1" stop-color="#009494" stop-opacity="0"/>
</linearGradient>
<linearGradient id="paint3_linear" x1="-13.8376" y1="382.97" x2="78.9588" y2="382.97" gradientUnits="userSpaceOnUse">
<stop stop-color="#0E655F"/>
<stop offset="1" stop-color="#22B94D"/>
</linearGradient>
<linearGradient id="paint4_linear" x1="275.478" y1="275.284" x2="422.599" y2="447.851" gradientUnits="userSpaceOnUse">
<stop stop-color="#56B19A"/>
<stop offset="1" stop-color="#1F9E96"/>
</linearGradient>
<linearGradient id="paint5_linear" x1="255" y1="355.5" x2="385" y2="355.5" gradientUnits="userSpaceOnUse">
<stop stop-color="#80BEAE"/>
<stop offset="1" stop-color="#009494" stop-opacity="0"/>
</linearGradient>
<linearGradient id="paint6_linear" x1="362.97" y1="374.838" x2="362.97" y2="282.041" gradientUnits="userSpaceOnUse">
<stop stop-color="#0E655F"/>
<stop offset="1" stop-color="#22B94D"/>
</linearGradient>
</defs>
</svg>
